<?xml version="1.0" standalone="no"?>
<!DOCTYPE svg PUBLIC "-//W3C//DTD SVG 1.1//EN" "http://www.w3.org/Graphics/SVG/1.1/DTD/svg11.dtd" >
<svg xmlns="http://www.w3.org/2000/svg">
<metadata></metadata>
<defs>
<font id="a_quiet_sleepregular" horiz-adv-x="419" >
<font-face units-per-em="2048" ascent="1536" descent="-512" />
<missing-glyph horiz-adv-x="500" />
<glyph horiz-adv-x="0" />
<glyph horiz-adv-x="682" />
<glyph unicode="!" horiz-adv-x="567" d="M182 449v-21v21zM100 467q8 8 9.5 15t1.5 15.5t1 15.5t9 15q4 -4 10 -12q4 -6 7 -13t3 -16h-20v-38l20 -21l-20 -20q0 16 -2.5 30.5t-18.5 28.5zM141 346v21v-21zM141 367v-21v21zM162 346h-21h21zM141 367h-20h20v20v-20zM141 346v21h21v-21h-21zM162 387h-21h21z M344 1440q8 0 25.5 -1t36 -4t36 -12.5t23.5 -23.5q0 -29 -2 -67t-17 -54q-23 -31 -36 -61.5t-20 -60.5t-12 -60.5t-13 -61.5q-16 -29 -31 -59.5t-31 -61.5q-14 -59 -29.5 -110t-31.5 -111q0 -16 -2 -21t-19 -22v-20q-14 0 -7 -2t7 -19l-18 -18v18v-18h-21h21v-21 q0 -16 -10.5 -40.5t-10.5 -41.5h-20q16 16 18 20.5t2 20.5l-20 -20h20q-14 0 -18 -10q-2 -6 -2 -11q-16 16 -18.5 30.5t-2.5 31.5v20q14 14 7 19.5t-7 19.5v41h21q-16 16 -28.5 27.5t-12.5 -4.5v-43v63q4 4 10 13q4 6 7 12t3 14q0 14 -10 29.5t-10 32.5q14 76 22.5 141 t38.5 141v41q14 23 14.5 48.5t0.5 50t7 46t38 37.5q23 8 32 21.5t10 23t-5.5 10.5t-14.5 -14q14 23 20.5 38.5t12.5 26.5t15 19.5t32 16.5zM242 692q-16 0 -18.5 -2t-2.5 -18zM121 23h20h-20l-21 -21v9t-2 1t-6 1t-12 10h41h-21h21zM203 143q14 0 16 2t2 19q0 -16 -2 -18.5 t-16 -2.5v-20v-21v21h-21v-21h-20v-20h-21v-19v-20h-20h20h-20h20h-20q-6 0 -10 -2q-10 -4 -11 -18v20h-20h-19h19h-39h20h-20q6 4 8 10q4 10 -8 10h-21q0 14 -10 28.5t-10 31.5v20l20 21v20h21v21v20q16 16 20.5 18.5t18.5 2.5q16 16 30.5 8t30.5 -8v-21h21v-20h20v-21 q12 0 19 -10q2 -6 2 -10v-21z" />
<glyph unicode="&#x22;" horiz-adv-x="729" d="M340 983h31h-31zM340 983h31h-31zM281 891q18 0 26 14q4 8 4 17v-31h-30q-20 0 -13 14q4 8 13 17q20 0 12 -17q-4 -8 -12 -14h30q0 20 -16 12q-8 -4 -14 -12zM371 952v-30q-23 0 -23 4t23 26l-31 -30l31 30v-30v30zM371 922h-31h31zM311 1012q0 -8 4 -15q6 -14 25 -14 l-29 -31q18 18 11 27q-4 4 -11 4v-31v31v-31q0 -12 -5 -17t-11 -9q-8 -4 -14 -4q0 20 -17 12q-8 -4 -14 -12v30q-8 -8 -17 -18q-14 -23 -14 -43h31h-31v31q-12 0 -18 -4.5t-9.5 -7.5t-3.5 -2v14q-12 12 -22 14t-18.5 8t-13.5 19.5t-5 48.5q0 23 -8 27.5t-14.5 11t-3.5 21.5 t26 63q23 45 7.5 45t-38.5 -45q12 33 14.5 44t5.5 20t10 25.5t30 61.5q-6 33 -11 64q-4 27 -2 51t13 37q-10 0 7 0t42.5 -3t49.5 -9.5t24 -18.5q-12 -35 -13.5 -53.5t1.5 -32.5t7.5 -28.5t4.5 -37.5v-90q0 -23 15 -46t15 -46v-31v-30v-29v29zM311 1073v-31q-23 0 -23 4 t23 27zM645 983h29h-29zM645 983h29h-29zM584 891q18 0 26 14q4 8 4 17v-31h-30q-20 0 -13 14q4 8 13 17q20 0 12 -17q-4 -8 -12 -14h30q0 20 -16 12q-8 -4 -14 -12zM674 952v-30q-23 0 -23 4t23 26l-29 -30l29 30v-30v30zM674 922h-29h29zM614 1012q0 -8 4 -15 q6 -14 27 -14l-31 -31q18 18 13 27q-4 4 -13 4v-31v31v-31q0 -12 -5 -17t-11 -9q-8 -4 -14 -4q0 20 -17 12q-8 -4 -14 -12v30q-8 -8 -16 -18q-14 -23 -15 -43h31h-31v31q-10 0 -16 -4.5t-9 -7.5t-3 -2v14q-12 12 -22.5 14t-20 8t-14.5 19.5t-5 48.5q0 23 -8 27.5t-14.5 11 t-3 21.5t25.5 63q23 45 7.5 45t-38.5 -45q12 33 14.5 44t5.5 20t11 25.5t31 61.5q-8 33 -12 64q-4 27 -2 51t14 37q-12 0 5 0t43 -3t49.5 -9.5t23.5 -18.5q-12 -35 -13.5 -53.5t1.5 -32.5t7.5 -28.5t4.5 -37.5v-90q0 -23 15 -46t15 -46v-31v-30v-29v29zM614 1073v-31 q-23 0 -23 4t23 27zM340 983h31h-31zM340 983h31h-31zM281 891q18 0 26 14q4 8 4 17v-31h-30q-20 0 -13 14q4 8 13 17q20 0 12 -17q-4 -8 -12 -14h30q0 20 -16 12q-8 -4 -14 -12zM371 952v-30q-23 0 -23 4t23 26l-31 -30l31 30v-30v30zM371 922h-31h31zM311 1012q0 -8 4 -15 q6 -14 25 -14l-29 -31q18 18 11 27q-4 4 -11 4v-31v31v-31q0 -12 -5 -17t-11 -9q-8 -4 -14 -4q0 20 -17 12q-8 -4 -14 -12v30q-8 -8 -17 -18q-14 -23 -14 -43h31h-31v31q-12 0 -18 -4.5t-9.5 -7.5t-3.5 -2v14q-12 12 -22 14t-18.5 8t-13.5 19.5t-5 48.5q0 23 -8 27.5 t-14.5 11t-3.5 21.5t26 63q23 45 7.5 45t-38.5 -45q12 33 14.5 44t5.5 20t10 25.5t30 61.5q-6 33 -11 64q-4 27 -2 51t13 37q-10 0 7 0t42.5 -3t49.5 -9.5t24 -18.5q-12 -35 -13.5 -53.5t1.5 -32.5t7.5 -28.5t4.5 -37.5v-90q0 -23 15 -46t15 -46v-31v-30v-29v29zM311 1073 v-31q-23 0 -23 4t23 27zM645 983h29h-29zM645 983h29h-29zM584 891q18 0 26 14q4 8 4 17v-31h-30q-20 0 -13 14q4 8 13 17q20 0 12 -17q-4 -8 -12 -14h30q0 20 -16 12q-8 -4 -14 -12zM674 952v-30q-23 0 -23 4t23 26l-29 -30l29 30v-30v30zM674 922h-29h29zM614 1012 q0 -8 4 -15q6 -14 27 -14l-31 -31q18 18 13 27q-4 4 -13 4v-31v31v-31q0 -12 -5 -17t-11 -9q-8 -4 -14 -4q0 20 -17 12q-8 -4 -14 -12v30q-8 -8 -16 -18q-14 -23 -15 -43h31h-31v31q-10 0 -16 -4.5t-9 -7.5t-3 -2v14q-12 12 -22.5 14t-20 8t-14.5 19.5t-5 48.5q0 23 -8 27.5 t-14.5 11t-3 21.5t25.5 63q23 45 7.5 45t-38.5 -45q12 33 14.5 44t5.5 20t11 25.5t31 61.5q-8 33 -12 64q-4 27 -2 51t14 37q-12 0 5 0t43 -3t49.5 -9.5t23.5 -18.5q-12 -35 -13.5 -53.5t1.5 -32.5t7.5 -28.5t4.5 -37.5v-90q0 -23 15 -46t15 -46v-31v-30v-29v29zM614 1073 v-31q-23 0 -23 4t23 27zM340 983h31h-31zM340 983h31h-31zM281 891q18 0 26 14q4 8 4 17v-31h-30q-20 0 -13 14q4 8 13 17q20 0 12 -17q-4 -8 -12 -14h30q0 20 -16 12q-8 -4 -14 -12zM371 952v-30q-23 0 -23 4t23 26l-31 -30l31 30v-30v30zM371 922h-31h31zM311 1012 q0 -8 4 -15q6 -14 25 -14l-29 -31q18 18 11 27q-4 4 -11 4v-31v31v-31q0 -12 -5 -17t-11 -9q-8 -4 -14 -4q0 20 -17 12q-8 -4 -14 -12v30q-8 -8 -17 -18q-14 -23 -14 -43h31h-31v31q-12 0 -18 -4.5t-9.5 -7.5t-3.5 -2v14q-12 12 -22 14t-18.5 8t-13.5 19.5t-5 48.5 q0 23 -8 27.5t-14.5 11t-3.5 21.5t26 63q23 45 7.5 45t-38.5 -45q12 33 14.5 44t5.5 20t10 25.5t30 61.5q-6 33 -11 64q-4 27 -2 51t13 37q-10 0 7 0t42.5 -3t49.5 -9.5t24 -18.5q-12 -35 -13.5 -53.5t1.5 -32.5t7.5 -28.5t4.5 -37.5v-90q0 -23 15 -46t15 -46v-31v-30v-29 v29zM311 1073v-31q-23 0 -23 4t23 27zM645 983h29h-29zM645 983h29h-29zM584 891q18 0 26 14q4 8 4 17v-31h-30q-20 0 -13 14q4 8 13 17q20 0 12 -17q-4 -8 -12 -14h30q0 20 -16 12q-8 -4 -14 -12zM674 952v-30q-23 0 -23 4t23 26l-29 -30l29 30v-30v30zM674 922h-29h29z M614 1012q0 -8 4 -15q6 -14 27 -14l-31 -31q18 18 13 27q-4 4 -13 4v-31v31v-31q0 -12 -5 -17t-11 -9q-8 -4 -14 -4q0 20 -17 12q-8 -4 -14 -12v30q-8 -8 -16 -18q-14 -23 -15 -43h31h-31v31q-10 0 -16 -4.5t-9 -7.5t-3 -2v14q-12 12 -22.5 14t-20 8t-14.5 19.5t-5 48.5 q0 23 -8 27.5t-14.5 11t-3 21.5t25.5 63q23 45 7.5 45t-38.5 -45q12 33 14.5 44t5.5 20t11 25.5t31 61.5q-8 33 -12 64q-4 27 -2 51t14 37q-12 0 5 0t43 -3t49.5 -9.5t23.5 -18.5q-12 -35 -13.5 -53.5t1.5 -32.5t7.5 -28.5t4.5 -37.5v-90q0 -23 15 -46t15 -46v-31v-30v-29 v29zM614 1073v-31q-23 0 -23 4t23 27z" />
<glyph unicode="&#x26;" horiz-adv-x="1175" d="M446 350q12 -16 17.5 -21t21.5 -22q-16 0 -19 2t-3 19zM422 453v41v-41zM422 453v-43v22v21zM422 410v22v-22zM735 369q0 -31 -3 -72t-19 -72v-22q-16 0 -18.5 -3t-2.5 -20q16 35 29.5 75t13.5 73v22v19zM735 410v-19v19zM735 369v22v-22zM1108 246h-21q-16 0 -18 2 t-2 18q-16 -47 -31.5 -80.5t-31.5 -66.5q-14 -29 -43 -49.5t-60 -53.5q-33 -16 -62.5 -31.5t-60.5 -31.5q-49 -31 -105.5 -38t-103.5 -21q-63 0 -115.5 12t-111.5 28q-49 14 -103.5 46t-84.5 79q-47 45 -88 93.5t-56 113.5q-16 63 -6 125t25 125q16 45 34.5 91t49.5 93 q16 47 44.5 92.5t57.5 73.5q16 18 30.5 32.5t30.5 33.5q0 14 -2 29.5t-18 31.5q0 29 -7 74t7 92q0 47 12.5 93t28.5 94q35 33 78 63.5t88 60.5q94 27 188 0q31 0 51.5 -13t51.5 -27q18 -18 41.5 -46t23.5 -59v-61q0 -18 -3 -23.5t-19 -17.5v-23q-14 -16 -16.5 -20t-2.5 -21 l-24 -43q-61 -66 -123 -123q0 -16 -23.5 -31.5t-38.5 -29.5q-16 -18 -31.5 -32.5t-31.5 -33.5q-8 0 -15.5 -3t-13.5 -7q-8 -6 -14 -10v-19q16 -33 42.5 -64.5t43.5 -62.5q16 0 30.5 3.5t32.5 21.5q29 0 9.5 -14.5t-52.5 -28.5q14 0 30.5 2t31.5 16q31 0 64.5 12.5t82.5 12.5 h19q16 0 30.5 -3t30.5 -22q33 0 53.5 -12t51.5 -29q0 -16 13 -30.5t28 -30.5q16 -16 31.5 -42t31.5 -40q0 -8 -3 -13t-5 -9.5t-1 -8.5t9 -10q0 -49 7 -86t-7 -82q0 -6 -2 -14q-4 -14 -18 -27h20v19q16 33 18 74.5t2 72.5q0 -31 -2 -75t-18 -91q0 -16 12.5 -18t28.5 -2z M838 659q-14 16 -40 19.5t-44 3.5h-103q-16 0 -30.5 -11.5t-32.5 -11.5q18 -16 32.5 -30.5l30.5 -30.5q47 -29 60.5 -41t-19.5 18q33 -31 64.5 -50t62.5 -50q29 -16 50.5 -42.5t52.5 -41.5q16 -16 33.5 -31.5t48.5 -31.5v41v41q0 33 -2.5 61.5t-16.5 44.5h19v-22v-19v19v22 v19v-19q-12 0 -17 8q-2 4 -2 11q0 18 -3 23t-19 17q0 16 -2.5 19.5t-18.5 3.5q0 16 -2 18t-18 2q-16 16 -33.5 28.5t-50.5 12.5zM588 682v-23q18 16 42.5 19.5t41.5 3.5h-21h-63zM403 1180q-16 -16 -19 -42t-3 -40q0 -33 3 -51.5t19 -32.5q14 0 19.5 9t23.5 9 q12 16 27.5 31.5t32.5 34.5q16 14 45 53t61 72v16q14 18 16.5 23.5t2.5 19.5h20v23h-20q0 16 -12.5 18t-30.5 2q-29 0 -47.5 -2t-34.5 -18q-16 0 -38 -13.5t-22 -27.5q-18 -18 -30.5 -34.5t-12.5 -49.5zM778 59q31 0 47.5 12.5t32.5 28.5q-16 0 -32.5 -12.5t-47.5 -28.5z M942 203q16 16 21.5 34.5t21.5 47.5v22q-47 33 -119.5 76t-152.5 92q-61 45 -110.5 81t-96.5 83q-8 0 -15.5 -3t-13.5 -7q-8 -6 -14 -11l22 21h21h-21v20q0 -16 -3 -18t-19 -2l-17 -21q-33 -33 -46 -65.5t3 -77.5q0 -16 -12 -20q-6 -2 -10 -2q16 -33 21.5 -60.5t19.5 -42.5 q18 -16 23.5 -32.5t17.5 -32.5q16 -14 31.5 -28.5t31.5 -31.5q-16 16 -20 30.5t-21 29.5q-29 16 -48 42.5t-34 41.5q-16 31 -19 65.5t-3 81.5q0 33 25.5 70t56.5 53q0 16 3 18t19 2q-16 0 -21 11.5t-18 11.5q-18 33 -33.5 49.5t-31.5 32.5q-29 -16 -61.5 -45t-63.5 -60 q-31 -76 -58.5 -140t-43.5 -128q0 -47 3 -82t19 -63q14 -33 43 -54.5t57 -50.5q49 -47 111 -74.5t139 -27.5q66 -16 136.5 -3t134.5 44q47 16 80.5 46t64.5 77zM1004 119q-14 -14 -14.5 -11t14.5 33q0 16 10 44t10 61q16 0 20 10q2 4 3 10h20q-16 -31 -31.5 -65.5 t-31.5 -81.5zM692 575q0 16 -2 19.5t-18 3.5q16 0 18 -3.5t2 -19.5z" />
<glyph unicode="'" horiz-adv-x="417" d="M342 977h31h-31zM342 977h31h-31zM281 885q18 0 26 14q4 8 4 16v-30h-30q-20 0 -13 14q4 8 13 16q20 0 12 -16q-4 -8 -12 -14h30q0 20 -16 12q-8 -4 -14 -12zM373 946v-31q-23 0 -23 4.5t23 26.5l-31 -31l31 31v-31v31zM373 915h-31h31zM311 1010q0 -8 4 -17 q4 -6 9.5 -11t17.5 -5l-31 -31q18 18 13 27q-4 4 -13 4v-31v31v-31q0 -12 -5 -17t-11 -9q-8 -4 -14 -5q0 20 -17 13q-8 -4 -16 -13v31q-8 -8 -15 -18q-14 -23 -14 -43h29h-29v30q-12 0 -18 -4t-9.5 -7t-3.5 -2v13q-12 12 -23 14.5t-20.5 8.5t-14.5 21.5t-5 50.5 q0 23 -8 26.5t-14.5 10t-3.5 22.5t26 64q25 45 9.5 45t-38.5 -45q10 35 12.5 46t5.5 19t12 24.5t32 63.5q-8 35 -13 66q-4 27 -2 51t15 37q-12 0 5 0t43.5 -3t50.5 -9.5t24 -18.5q-12 -35 -14.5 -55.5t0.5 -34.5t8.5 -27.5t5.5 -36.5v-92q0 -23 15 -47t15 -47v-31v-28v-33 v33zM311 1069v-31q-23 0 -23 4t23 27z" />
<glyph unicode="," horiz-adv-x="479" d="M78 207q10 0 15 4t8 6t3 1v-11h-26zM104 207h-26h26zM158 287l-27 -27v27v-27q20 0 26.5 13.5t24.5 13.5q0 -10 4 -14.5t9 -8.5q6 -4 14 -4h-51h24h-24l8 12q2 4 2 9.5t-10 5.5zM104 233h-26v27q20 0 20 -3t-20 -24q20 0 23 3.5t3 23.5v-27zM340 49q-18 -10 -24.5 -15 t-4.5 -5t10.5 5t18.5 15q-10 -20 -8 -27.5t2 -12.5t-8.5 -12t-36.5 -26q-31 -23 -60 -41q-25 -16 -52 -27.5t-46 -11.5q-6 6 -10 13q-4 4 -2 9t12 5q18 20 21.5 34.5t-2 27t-12.5 22.5t-7 21q20 20 23.5 26t3.5 27q0 20 -13.5 39.5t-13.5 38.5v26h27h-27v27v-27v27v26h27 h-27v-26l27 26q-8 0 -15 -4q-12 -8 -12 -22l27 26h24h27h-27h54h-27h27l-27 -26q10 0 19.5 4t17.5 8q8 6 16 14h-26h26v-26q8 6 17 10q16 6 36 -10q0 -10 7.5 -16.5t14.5 -10.5t10 -10t-7 -16v-25q0 -10 11 -12t18.5 -7.5t4.5 -17.5t-34 -43z" />
<glyph unicode="." d="M250 6h-21h41h-20l-21 -22q0 16 -3 11t-19 11h43h-21h21zM336 133q16 0 19 3t3 20q0 -16 -3 -19.5t-19 -3.5v-20v-21v21h-21v-21h-22l-23 -22v-21v-22h-20h20h-20h20h-20q-6 0 -10 -2q-10 -4 -11 -19v21h-22h-21h21h-43h22h-22q6 4 8 10q4 12 -8 12h-21q0 16 -11 31.5 t-11 32.5v20q0 16 10 21q6 2 12 2v22h21v21v22q16 16 21 18.5t22 2.5q16 16 31.5 8t31.5 -8v-21h23v-22h22v-21q14 0 19 -12q2 -6 2 -10v-23z" />
<glyph unicode="0" horiz-adv-x="1226" d="M1038 1163v41v-20v-21zM1059 1122h-21h21zM1059 1059v41v-41zM1059 1100v22v-22zM1079 1100q0 33 -10 53.5t-10 50.5q0 16 -10.5 21.5t-10.5 21.5q0 -6 2 -14q4 -14 19 -29q0 -16 2 -30.5t18 -30.5q0 -16 2 -31.5t19 -30.5q0 -47 11 -86t11 -100q0 -16 -3 -16t-19 16v41 v20v41q0 31 -2 49.5t-19 34.5v19zM936 1432v22q6 -10 10 -16t6 -13q2 -8 2 -12q8 -10 13.5 -16t7.5 -13q2 -8 2 -12l20 -22q-16 0 -18 13t-2 28l-23 22v19h-18zM936 1475v-21v21zM520 1391l21 22zM1184 86h-21h21zM1141 106v21v-21zM1141 106h22h-22zM1122 86q10 0 27 -12 q8 -6 14 -11q12 0 19 -10q2 -4 2 -8v18q-16 0 -35 13.5t-49 29.5q-16 0 -30.5 12.5t-31.5 28.5q-8 8 -5 9.5t10.5 -0.5t17.5 -5.5t18 -3.5v-20q16 -16 21.5 -18.5t21.5 -2.5v-20zM1288 -18q-16 0 -31 10q-8 4 -12 10v21q0 -16 10.5 -20.5t10.5 -20.5h22zM1288 -18v-21v21z M1079 147q-16 16 -30.5 20.5t-30.5 20.5h-21v23q-14 0 -18 8q-2 4 -2 10q0 16 -21 21q-8 2 -20 2q-10 0 -10 3t2 7t8 10h-23q0 -6 -2 -10q-4 -10 -16 -10q-16 -31 -31.5 -52.5t-32.5 -52.5q-33 -16 -52 -41.5t-52 -42.5q-61 -31 -137 -46t-154 -15l-18 21h-41h-43 q0 14 -10 20q-6 2 -11 2q-47 14 -77.5 32.5t-47.5 49.5q-31 16 -51 44t-51 58q-16 33 -29.5 64t-13.5 61q-16 31 -28.5 63t-12.5 62v62v63q8 31 12 55.5t8.5 46t8.5 42t12 43.5q33 78 65.5 145.5t79.5 144.5q16 31 42 58.5t40 44.5q16 16 21.5 28.5t21.5 12.5q0 16 -2 31.5 t-18 31.5q0 16 -8.5 16.5t8.5 -16.5q-16 31 -21.5 49.5t-19.5 34.5q0 31 -3 38t-20 22v22q0 -16 13.5 -21.5t27.5 -19.5l125 -125q16 16 31.5 20.5t32.5 20.5q16 16 30.5 31.5t30.5 30.5q14 0 29 10q8 6 12 12h-20q61 14 98 27.5t68 13.5q25 0 41 -3t29.5 -8t25.5 -8t28 -3 q0 -12 11 -17q4 -2 10 -2q-16 0 -31.5 7t-32.5 -7h-81q-31 -16 -51.5 -28.5t-51.5 -12.5l-125 -125q0 -16 -13 -31.5t-30 -31.5q16 -16 31.5 -42t32.5 -42q31 -47 51 -82t53 -82q0 -31 12.5 -52.5t28.5 -52.5q16 -16 20.5 -41.5t20.5 -41.5q47 -92 96 -162t113 -148v-20 q14 0 19.5 10t21.5 10v21l18 41q16 16 19.5 20t3.5 21q14 0 18 10q2 6 2 12v41l21 21v-21v21h20h-20v20l20 21v20v21q16 47 28.5 107t12.5 122v61v-20v-21v-20v-82v18v41v64q0 -16 2 -20.5t19 -20.5v-41v-84v-41v-22q0 -14 -10.5 -30t-10.5 -32v-41v-63h-20 q0 -31 -10.5 -48.5t-10.5 -33.5q0 -8 -3 -15.5t-7 -13.5q-6 -8 -10 -12q-16 -16 -18.5 -31.5t-2.5 -32.5v-18q14 12 19 26q2 8 2 15q14 14 18 28q2 8 2 13q16 31 18.5 51t2.5 53q0 -33 -2 -53.5t-19 -50.5q0 -4 -2 -13q-4 -14 -18 -28q0 -6 -2 -15q-4 -14 -19 -26 q0 -16 -13 -31.5t-30 -32.5q14 0 21 -10q2 -6 2 -10h-23h23v-21v21l20 -21v-20q16 0 28.5 -13.5t12.5 -27.5q16 -16 28.5 -21.5t12.5 -21.5l21 -21h-21v21l-20 20q0 -14 10 -28q4 -9 10 -13zM895 395q0 16 -3 21.5t-20 21.5q0 -16 3.5 -29.5t19.5 -13.5zM727 252 q33 16 52.5 33.5t51.5 50.5q-8 0 -12 6t-8 14.5t-9 14.5t-14 6q-14 14 -39.5 32.5t-41.5 49.5q-78 92 -148 178t-100 194q-16 31 -28.5 49.5t-12.5 32.5q-16 33 -31.5 66t-32.5 80l-61 -123q-47 -78 -76 -158t-29 -174q-16 -47 -8 -93t8 -93q16 -16 20.5 -33.5t20.5 -48.5 q16 -16 21.5 -31.5t19.5 -32.5q63 -78 148.5 -99t163.5 -5q31 16 72.5 34.5t72.5 49.5z" />
<glyph unicode="1" horiz-adv-x="671" d="M389 1417h19h-19zM389 1399v18v-18zM408 1399l-19 18zM430 1438h21q0 -16 -2.5 -16.5t-18.5 16.5v-21v21zM164 -121v19h22zM164 -82q16 0 19 2t3 19v-21h-22zM125 41q0 14 8 -2q4 -8 10 -19q0 -14 -10 -18q-4 -2 -8 -2v-43q0 -12 -10 -6q-4 2 -9 6q0 -14 9.5 -28.5 t9.5 -30.5q-12 0 -16 -11q-2 -4 -3 -8v19v59q0 33 2.5 50.5t16.5 33.5zM125 -223q0 -12 -10 -6q-4 2 -9 6q4 6 9 14q4 6 7 12.5t3 14.5v-41zM106 -223v-19v19zM451 1399q23 4 45 2q18 -4 38.5 -13.5t36.5 -31.5q0 -45 -13 -98.5t-30 -83.5q-23 -45 -32 -90.5t-17 -90.5 t-17 -91t-32 -91q-16 -47 -30.5 -91t-30.5 -91q-16 -92 -33 -171t-49 -155q-16 -16 -18.5 -29.5t-2.5 -29.5q0 -6 -2 -11q-4 -10 -16 -10v-20v-21q-6 -4 -10 -12q-10 -14 -11 -27v19q-6 0 -10 -2q-10 -4 -10 -17q0 12 10 17q4 2 10 2v-19q0 -16 -2 -18t-18 -2h20 q-16 -31 -20 -61.5t-21 -61.5h-22v20q16 0 20 11q2 4 2 10h-22h22q-16 -16 -19 -20.5t-3 -20.5q0 16 -10.5 41t-10.5 41v20l21 21q16 16 8 29.5t-8 29.5v41l22 21q0 8 -3 17t-8 17.5t-8 10.5t-3 -6q0 -29 -2 -46.5t-19 -33.5q0 16 2 33.5t19 46.5q0 16 11 30.5t11 30.5 q0 31 -8 50.5t8 49.5q8 53 13.5 103.5t12.5 99.5t19.5 99.5t34.5 103.5v63q16 29 19.5 65t7.5 71.5t14 68.5t41 56q16 0 18.5 12t2.5 28q-14 -16 -23.5 -30.5t-16.5 -27.5t-16.5 -24.5t-25.5 -19.5h-21q-14 0 -20 -8t-14.5 -16.5t-22.5 -9.5t-45 16q-14 6 -22.5 4t-9.5 -7.5 t2 -11.5t9 -6q-14 8 -19 6t-11.5 -2t-15.5 6.5t-31 28.5q-18 16 -31 35q-12 16 -21.5 33.5t-9.5 33.5q14 0 19.5 10.5t21.5 10.5q23 -8 39 -6t28.5 8l25 12t26.5 6q16 16 31.5 19.5t31.5 3.5q16 14 32.5 28.5t49.5 30.5h21h18v19l21 -19l-21 19h21l20 20h19h-19h19 q-14 0 -16.5 -2t-2.5 -18q14 0 16.5 2t2.5 18q6 0 14 2q15 5 29 21zM330 1317l-21 20zM266 283q0 4 2 10q4 10 19 10q0 -14 -11 -18q-6 -2 -10 -2zM369 1214q16 16 18 20.5t2 20.5h-20q0 -8 3 -12t5 -8t1 -8.5t-9 -12.5z" />
<glyph unicode="2" horiz-adv-x="1476" d="M211 213v20v-20zM231 252v-19v19zM231 233h-20h20zM109 1016q-6 4 -11 12q-8 16 -8 27v41q4 4 8 12q4 6 7.5 12t3.5 15l22 22q14 16 18.5 27.5t20.5 11.5q14 31 52 57.5t69 42.5q61 45 133 75t147 46q14 0 40 9.5t40 9.5h80q14 0 43 -2t57 -17q16 0 40 -12t40 -29 q16 -29 21.5 -46t19.5 -34l30.5 -30.5t31.5 -28.5q14 -16 18 -33.5t21 -46.5q16 -16 18 -40.5t2 -39.5q0 -31 -2 -51t-18 -51q0 -16 -12.5 -29.5t-26.5 -30.5q-31 -31 -51.5 -58.5t-51.5 -43.5q-45 -59 -102 -96t-117 -82l-30.5 -30.5t-28.5 -31.5q-16 0 -21.5 -10 t-21.5 -10q0 -6 -2 -10q-4 -8 -17 -8q-6 0 -10 -3q-10 -4 -10 -18q-14 -16 -28.5 -20.5t-30.5 -18.5l20 19h-20v-19q-6 0 -11 -2q-10 -4 -10 -18h-20v-21q-29 -16 -70 -42.5t-72 -57.5q-6 -6 -12 -10q-14 -10 -27 -11h21v21q29 0 36 12t23 29h-20q0 -16 2 -18.5t18 -2.5 q-31 0 -47 -12t-33 -29q29 31 49.5 57.5t53.5 41.5v22l18 21q16 0 20.5 10t18.5 10q16 0 20.5 21.5t20.5 38.5h21q0 14 12 29.5t28 31.5h19q8 6 14 19.5t10.5 24.5t3.5 16.5t-8 -3.5q-29 -29 -46 -48t-33 -52q16 33 33.5 52.5t45.5 47.5q14 16 40 34t40 46q31 33 62 62 q14 14 18 29.5t19 29.5q16 16 39.5 30.5t23.5 30.5q14 16 28.5 29.5t30.5 30.5q14 16 18.5 30.5t20.5 30.5v19v22q0 14 -12 28.5t-27 29.5q-4 6 -12 14l-29 29q0 14 -2 18t-16 21q0 4 -2 10q-6 10 -18 10q-16 14 -21.5 26.5t-21.5 12.5q-14 16 -41 16t-58 -16 q-14 0 -42.5 -2t-57.5 -19q-45 0 -90 -9t-88 -9q-33 0 -70 -12.5t-53 -28.5q-12 -12 -27 -16q-8 -2 -12 -2q0 -16 2 -16.5t18 16.5q-16 -16 -31.5 -21.5t-29.5 -21.5q-16 -14 -27.5 -18.5t-11.5 -20.5q0 -10 -12 -27q-6 -8 -10 -14q0 -14 3 -26.5t19 -12.5v-21q0 14 -12 19 q-6 2 -10 2zM672 614q0 16 12 18.5t29 2.5q-14 -14 -29 -19q-8 -2 -12 -2zM1255 213h19h-19zM1214 195q0 12 9 16q4 2 10 2zM1233 195v18v-18zM1233 133q8 0 13 6t9.5 11.5t8.5 7.5t10 -6h18h-18q-14 0 -19.5 -9.5t-21.5 -9.5q-14 -16 -28.5 -20t-30.5 -19q-8 0 -8.5 6 t2.5 13.5t10.5 13.5t15.5 6q16 0 20.5 2t18.5 17v-19zM1335 213v-18v18q4 6 11 8q10 4 10 -8h18h-39zM1194 152q-16 0 -30.5 -11.5t-30.5 -27.5h-19h-20q-16 0 -20.5 -9.5t-20.5 -9.5q0 4 -2 6q-4 4 -19 -6q-6 0 -10 -2q-8 -4 -8 -20l-23 22q-6 0 -13 -6t-10 -14t-3 -14.5 t8 -6.5q14 14 29.5 16.5t29.5 2.5q-14 0 -29.5 -9.5t-29.5 -9.5h-62q-16 0 -39.5 -12t-40.5 -29q-45 0 -85.5 -6t-82.5 -12t-84 -8t-87 6h-62q-31 8 -60.5 4t-57 -8t-53.5 -1t-48 25q-16 23 -35.5 31t-35 7t-20.5 -12t11 -26q-16 14 -27.5 20.5t-23.5 8.5t-24.5 3t-26.5 9 l-21 -20l21 20q0 14 -2 19.5t-19 21.5q-4 20 -4 43q0 18 4 39t21 37h141q0 16 12.5 29.5t28.5 29.5q29 31 49.5 51.5t48.5 51.5q8 6 6 4t-7 -10.5t-11 -17.5t-6 -17q-16 0 -28.5 -2t-12.5 -19q-14 -16 -18.5 -28.5t-20.5 -12.5v-9t-2 -1t-7 -1t-14 -9q-6 -6 -10 -12 q-8 -16 -8 -27h18q39 -16 74 -21.5t69 -6.5t68.5 -3t71.5 -10h162q74 -16 146.5 -8t131.5 8h62h18q0 -14 10 -18q6 -2 13 -2v20h39q0 -14 -11 -18q-6 -2 -10 -2h21v20h20v-20v20h101q4 0 10 -2q10 -6 10 -18q0 4 -2 10q-6 10 -18 10v-20q-16 16 -20.5 16t-20.5 -16h20h41z M934 152q0 6 -2 8q-6 6 -21 -8h23z" />
<glyph unicode="3" horiz-adv-x="1153" d="M1026 1399h23h-23zM1049 1380h18h20h-20q-6 0 -10 -2q-8 -4 -8 -20q-16 0 -21 -10q-2 -6 -2 -11q-14 -16 -29.5 -30.5t-31.5 -30.5t-41 -30.5t-41 -31.5q-31 -16 -51.5 -31.5t-51.5 -29.5q-31 0 -59.5 -13.5t-44.5 -27.5q-61 -33 -99 -62.5t-85 -60.5q-16 0 -20.5 -11 t-20.5 -11v-21h-21h21h-21q-14 0 -18 -10q-2 -6 -2 -10v20v-20h-21h21h-21v-21q-16 0 -31.5 -12t-31.5 -29q16 0 19 2t3 19q-16 0 -20 -11q-2 -6 -2 -10q0 16 11 20.5t11 20.5v21h21v41h20v22h21q0 14 8 27.5t-8 13.5q-16 -16 -18.5 -31.5t-2.5 -31.5q0 16 2 31.5t19 31.5 q4 4 12 8q6 4 13 7.5t16 3.5q0 16 12 31.5t29 31.5q31 45 74.5 79t90.5 64h-84q-31 0 -51 2.5t-51 18.5h-41q-16 16 -40.5 8t-41.5 -8q-16 0 -34.5 2t-47.5 18q-18 16 -28 19q-8 2 -13 2q-16 0 -16 -10.5t16 -10.5h-43h-20q-14 0 -27.5 2t-13.5 19h22q0 4 2 10q4 10 17 10 q0 4 2 11q4 10 18 10q0 16 13.5 28.5t29.5 12.5q14 0 29.5 2t30.5 18h63q31 16 61.5 18.5t61.5 2.5t61.5 -10.5t61.5 -10.5q31 -16 52.5 -18t49.5 -2q33 0 52.5 -9.5t52.5 -9.5h41h20h41h-20h20v-22v22h21h61h23h18q16 0 21 9q2 4 2 10h18zM985 1380h23q-16 -16 -21.5 -16 t-21.5 16v-22v22h20zM801 1380q0 -16 2 -19t18 -3zM492 989h-21h21zM965 1358h20h-20zM1130 1358q0 16 -3 19t-19 3v19q0 -12 10 -17q6 -2 12 -2v-22zM143 61q0 -16 2 -18t17 -2h-19v20v0zM225 20h-20h20zM205 20h-23h23zM182 41v-21v21zM326 41q16 0 14 -3t-11.5 -7 t-22.5 -7.5t-21 -3.5q0 4 -2 11q-6 10 -17 10h-41q-16 0 -18 2t-2 18h-62q0 16 -12 21q-6 2 -10 2h22q14 -16 40 -21.5t42 -21.5h101zM59 143v-18q-16 14 -20 29.5t-21 31.5v21q0 -16 10.5 -31.5t10.5 -32.5h20zM18 207h-20h20zM1008 616q14 -47 16 -81.5t2 -81.5 q16 -31 16 -65t-16 -81q-14 -31 -32.5 -58.5t-49.5 -41.5q-31 -61 -87 -97t-118 -69q-16 0 -34.5 -10.5t-47.5 -10.5h-41v-20q-16 16 -21 8t-22 -8h-61h20h21h-21h-20q0 -14 -10 -18q-6 -2 -10 -2l-21 20v-20h-82q-16 0 -41.5 2t-42.5 18h-20l-19 20h19v-20h20h64h-21 q-16 0 -31.5 2t-31.5 18q31 -16 59.5 -8t44.5 8h21h20h41l41 41q12 0 18 -10q2 -6 2 -10q16 16 28.5 21.5t12.5 21.5q14 0 20.5 -8t22.5 8q6 0 13.5 6t11.5 11t3 7.5t-9 -6.5q-31 0 -51.5 -12t-51.5 -29q31 16 51.5 32t51.5 32q16 0 40.5 11t41.5 28q31 16 49 41.5t35 42.5 q31 29 46 49t15 53q16 0 18.5 12.5t2.5 28.5v41q-16 16 -20.5 44t-20.5 59t-20.5 59.5t-20.5 44.5q-16 29 -21.5 36t-21.5 23q-31 31 -63.5 47.5t-78.5 16.5q-47 16 -82.5 20t-82.5 21q-31 0 -58.5 -10.5t-44.5 -10.5q-18 -16 -31 -18q-8 -2 -12 -2h21q-31 0 -58.5 -20.5 t-42.5 -20.5l-31.5 -31.5t-31.5 -32.5h-19q14 0 18.5 12.5t20.5 28.5q0 16 27 45t57 60l19 20v21q16 16 20 28.5t21 12.5v-21h-21q0 -6 -2 -10q-4 -10 -18 -10v-21q31 16 59.5 30.5t44.5 31.5q31 16 72 18t71 2h144q47 -16 81 -20t64 -21q31 -31 61.5 -54.5t61.5 -70.5 q16 -31 32 -61.5t32 -61.5zM696 41q16 0 29.5 2t13.5 18q-6 0 -14 -2q-15 -4 -29 -18z" />
<glyph unicode="4" horiz-adv-x="1140" d="M561 2v-20v20zM561 2v21v-21zM561 23v22v-22zM561 2v21v-21zM518 23q0 -16 11.5 -20.5t11.5 -20.5v-23v23q0 16 -11.5 31.5t-11.5 31.5v82q0 8 0 5t2 -10t7 -17.5t14 -18.5q-6 0 -13 -2q-10 -4 -10 -18q0 -4 2 -13q4 -16 21 -30h-23zM561 -143v43v-23v-20zM1184 729h-23 h23zM1120 729h21h-21zM1120 729h-18h18zM1141 729h-21h21zM1184 711h22h-22q-16 0 -42 -2t-40 -19h-107q-16 0 -15 3t9 7t27 11q8 0 13 -3t9 -5.5t8.5 -1.5t12.5 10h43h18h64zM1352 711h-66h43h23zM1352 711h18h-18zM1038 711q-33 0 -60.5 -2t-41.5 -19h-23h-22h-21 q-16 0 -30.5 -11t-30.5 -11q0 4 -2 10q-4 12 -19 12q0 -16 -13 -19t-30 -3q0 -14 -10 -9q-6 2 -10 9h-18v-21q14 0 39.5 2t41.5 19q-16 -16 -41.5 -20.5t-39.5 -20.5q-16 -61 -35 -125t-51 -125v-43l-21 -21v-20v-19l-18 -43v21v-21v21v-21v-22q-16 -31 -18.5 -58.5 t-2.5 -44.5q-6 -4 -10 -12q-10 -14 -10 -28v20h20q-14 0 -18 10q-2 4 -2 10q14 0 18 11q2 4 2 10h-20h20q-16 -16 -18 -20.5t-2 -20.5v82h-23q0 16 3 19t20 3v19q0 16 -11.5 21.5t-11.5 21.5q0 8 3 9t8.5 1t8.5 2t3 10v39q0 8 -3 18.5t-8.5 18.5t-8.5 11.5t-3 -5.5v-82v82 q0 16 11.5 31.5t11.5 32.5q0 29 -11.5 57.5t-11.5 44.5q16 33 19.5 50.5t3.5 31.5h-125q-6 0 -15 2q-14 4 -28 21h-23h-20q-31 -16 -72 -19.5t-72 -3.5q-33 0 -61.5 3t-42.5 20h-21l-20 20q-16 0 -21 10q-2 4 -2 11q-14 14 -18 30q-2 8 -2 13v61q0 16 13.5 31.5t29.5 32.5 q16 29 43 47t59 35q16 16 42 31.5t42 31.5q16 0 20.5 9t20.5 9v21v-21h21h20q-23 8 -30 9l-7 2l2 1t-6 9h21l20 22q0 16 12.5 21.5t28.5 21.5t32.5 30.5t33.5 29.5q29 33 70.5 61.5t74.5 42.5q29 0 57.5 13.5t45.5 29.5q16 16 24 18.5t-24 2.5q47 16 67.5 29.5t36.5 13.5 q31 14 49.5 18t32.5 21v43h20v-43v-185q-16 -35 -27.5 -77.5t-11.5 -90.5q-16 -33 -21 -75.5t-22 -92.5q-16 -29 -31.5 -70.5t-31.5 -74.5h43h41h-21h21h22h-22h22h19h20h146q6 0 14 -2q12 -2 29 -16h-21v18h-22h-62l21 -18v18q16 -14 31.5 -16t31.5 -2zM393 772 q47 -16 84 -29.5t84 -13.5q0 49 15.5 95t44.5 94q0 16 3 31.5t19 31.5q16 29 21.5 61.5t21.5 63.5q16 45 32.5 68.5t49.5 56.5q16 14 20.5 29.5t20.5 31.5q0 16 -2 23.5t-19 -23.5q16 31 29.5 49.5t13.5 32.5v-18q-16 -16 -42.5 -34.5t-43.5 -49.5q-29 -31 -47 -49.5 t-34 -34.5q-47 -47 -90.5 -83t-75.5 -85q-16 -29 -42 -49.5t-40 -52.5v-21h-23v-23h-20h-23q-16 -16 -30.5 -20t-30.5 -18q-16 -16 -28.5 -21.5t-12.5 -19.5q-16 0 -18.5 -3.5t-2.5 -19.5h21h61h41h23h20zM600 356q16 16 18.5 21.5t2.5 21.5q0 -16 -10.5 -21.5t-10.5 -21.5z " />
<glyph unicode="5" horiz-adv-x="911" d="M125 791h18l-18 -23v23zM143 811v-20v20zM125 850v-21q0 -12 -10 -16q-6 -2 -11 -2l21 -20q-14 0 -19 -13q-2 -6 -2 -10v23v38v39q0 16 10.5 6t10.5 -24zM86 709h-25q18 0 23.5 9t19.5 9q-14 0 -16 -2t-2 -16zM86 1032v62q-18 14 -21.5 31.5t-3.5 45.5v84q18 14 26.5 43 t37.5 58q0 14 11 28.5t28 14.5q16 16 28.5 20t12.5 19h100q16 0 30.5 8t26.5 -8h103q33 0 49 -11.5t33 -27.5q14 -18 30.5 -21.5t32.5 -3.5q14 0 22.5 -3t14.5 -6t10.5 -6t12.5 -3h39v-21h-19q-31 -14 -60.5 -26.5t-64.5 -12.5h-119q-31 0 -59.5 -11t-40.5 -11 q-31 0 -58.5 -2t-43.5 -17q-14 -16 -18.5 -34.5t-20.5 -49.5q0 -29 -9.5 -58.5t-9.5 -59.5l-22 -21v-18v-21v-41v19l-21 -19l21 19v-19q-14 -14 -8 -18q2 -2 8 -2q0 -14 -10.5 -30.5t-10.5 -33.5v-18v41v-41h-18v63v19q0 16 -10.5 20t-10.5 19v22q-12 12 -6 19q2 2 6 2 q0 14 -9 24.5t-9 -6.5q0 -14 2 -29.5t16 -31.5q-14 16 -16 31.5t-2 29.5zM164 1053q6 0 8 2q4 4 -8 18v-20zM104 61l-18 19zM125 61h-21h21zM125 41h18h-18zM125 41v20v-20zM205 41q0 4 -2 10q-6 10 -17 10h-43v19q-14 0 -28.5 3t-28.5 21l-25 17l25 -17q14 -18 37.5 -21 t40.5 -3q16 -14 33.5 -16.5t46.5 -2.5q16 0 -3.5 -10t-35.5 -10zM2 203q4 -4 10 -13q4 -6 7.5 -13t3.5 -13q-6 4 -11 12q-10 11 -10 27zM2 221v-18v18zM752 608q29 -63 44 -122.5t15 -123.5q0 -59 -15.5 -116.5t-43.5 -102.5q-16 -16 -41 -41.5t-41 -40.5 q-31 -16 -50.5 -29.5t-54.5 -13.5q-14 0 -28.5 -8t-28.5 -8h-43h-39h-41h21h-21v16v-16h-23h-16q-31 0 -62.5 2t-78.5 14l-19 23h19q16 -16 30.5 -19.5t30.5 -3.5h-22q-14 16 -18.5 19.5t-20.5 3.5h84h16h23h18q12 0 17.5 10t21.5 10t18.5 -8t2.5 8q16 0 20 2.5t20 16.5 l19 -19q16 14 27.5 28.5t-5.5 14.5q-16 -18 -33.5 -23t-47.5 -20q16 14 40.5 28.5t40.5 14.5t29.5 2.5t30.5 14.5q14 16 16 21t2 22q18 0 21.5 11t3.5 28q29 31 44 71.5t15 69.5q0 31 -2 48.5t-18 31.5q0 31 -2 49.5t-17 34.5q0 12 -10 27.5t-10 29.5q-18 33 -46 50.5 t-57 33.5q-31 12 -61.5 30.5t-63.5 47.5q-12 0 -36.5 11.5t-36.5 11.5q-35 -16 -37 -19.5t14 -3.5h-80q-33 0 -49 -9t-33 -9l21 18q29 16 50.5 31.5t49.5 32.5q31 16 60.5 27t60.5 11q59 0 120.5 -14t123.5 -47q45 -31 87 -66t75 -94zM565 18q0 16 -9 16.5t-9 -16.5h18z" />
<glyph unicode="6" horiz-adv-x="1142" d="M371 649h20q-14 0 -18 -10q-2 -4 -2 -8v18zM391 688v21v-21zM410 748v-21v21zM391 709q0 4 2 8q4 10 17 10q-12 0 -17 -10q-2 -4 -2 -8zM391 688v21v-21zM469 864q-8 0 -14 -3t-13 -7q-8 -4 -12 -8q-16 -29 -27.5 -49.5t-11.5 -48.5q-8 -8 -12 -9.5t-6 -1.5t-2 -1v-9 q-14 -29 -9 -55.5t-10 -40.5q0 -16 9.5 -30.5t9.5 -29.5q0 14 -9.5 18.5t-9.5 20.5q0 43 11.5 85t27.5 73q0 29 11.5 48.5t27.5 47.5q16 16 32.5 33.5t47.5 46.5q14 0 14 -2t-14 -18q-16 -14 -28.5 -29t-12.5 -31zM371 551v20v-20zM588 492q-29 -16 -55.5 -18.5t-43.5 -2.5 h-20v21q16 -16 39.5 -18.5t40.5 -2.5l20 21h19zM588 492v20v-20zM606 512h-18h18zM1040 668v-97q0 -45 -2 -77.5t-18 -61.5q0 -45 -14.5 -79t-44.5 -79q-43 -59 -99.5 -112t-116.5 -82q-74 -31 -147.5 -55.5t-146.5 -24.5q-31 0 -70 2t-68 18q-45 14 -79.5 21.5t-77.5 38.5 q-16 14 -30.5 27.5t-29.5 29.5q-16 16 -30.5 32.5t-28.5 47.5q-14 43 -26.5 78t-12.5 78v98v41v59q8 37 16.5 79t18.5 87t25.5 88t37.5 80q45 88 91 149.5t106 106.5q45 29 86 66t72 51q45 31 54 40t-36 -20q59 37 105.5 60.5t83 38t67.5 22.5t59 17h39h-20 q-14 0 -31.5 -12.5t-46.5 -26.5q-29 -16 -73 -45t-103 -74q-45 -29 -77 -69t-62 -68q-43 -45 -75 -89t-63 -87q-14 -45 -38.5 -89.5t-38.5 -89.5q-16 -45 -20.5 -98t-18.5 -98v-98v-99q0 -29 9 -49t9 -49l59 -59q16 -14 40 -28.5t40 -31.5q29 0 58.5 -2t58.5 -16 q207 0 354 116q74 74 116 163t42 194q29 57 0 117q0 16 -2 29.5t-18 29.5v18q0 16 -2 27.5t-17 11.5l-20 21q-16 16 -29.5 27.5t-30.5 11.5h21q14 0 16 -2t2 -17q0 10 -10 17q-4 2 -8 2l-21 20q16 -16 16.5 -18t-16.5 -2v20h-39q-6 0 -10 2q-10 4 -10 19h-19 q-59 0 -124.5 -20.5t-110.5 -80.5h-21q-12 -12 -26 -16q-8 -2 -12 -2h18v18h20q16 16 40 30.5t40 29.5h-20q-16 0 -16.5 -7.5t16.5 7.5q-29 -14 -46.5 -32t-33.5 -46q31 45 62.5 76.5t74.5 60.5h41q0 16 11.5 18.5t27.5 2.5t29.5 -2.5t29.5 -18.5h58q16 0 33.5 -2t46.5 -16 q-6 0 -9 -2q-6 -6 9 -19q29 -16 55.5 -29.5t42.5 -29.5v-60q16 -14 27.5 -37.5t11.5 -39.5q16 -16 18 -16.5t2 16.5q-16 29 -20 58.5t-19 57.5l-79 80q16 -16 39.5 -32.5t39.5 -47.5q14 -29 26.5 -58.5t12.5 -57.5v-39v-41zM961 668q0 -14 -7.5 -27.5t7.5 -30.5v58z" />
<glyph unicode="7" horiz-adv-x="1126" d="M961 1393h20h-20zM920 1393h18h-18zM1059 1370l-21 23q16 0 18.5 -3.5t2.5 -19.5zM139 1073q-16 0 -18 2t-2 19q-14 0 -28.5 12t-29.5 27q-16 29 -28.5 46t-12.5 33v19h-20v61v41v19h20v18l21 23l20 18q14 0 18.5 2t20.5 19h19h20h41q14 -16 29.5 -18.5t32.5 -2.5 q29 0 61.5 -9t75.5 -9q76 -16 137.5 -19.5t122.5 -3.5q16 0 27.5 -2t11.5 -16h22h21h-21h21h18h23h18h19q14 14 32.5 16t47.5 2h20v-18v18h-20q-6 0 -11 -2q-10 -4 -10 -16h41q-16 0 -30.5 -9.5t-28.5 -9.5h-23v-18q0 10 -10 16q-4 2 -8 2q-14 0 -18.5 -12t-18.5 -29v23 q-16 -16 -21.5 -19.5t-19.5 -3.5q0 6 -2 8q-6 4 -19 -8l-22 -18q33 0 50 9t34 9q-16 -14 -33.5 -16t-50.5 -2h-39q-31 -16 -50.5 -29.5t-47.5 -13.5h-162q-43 0 -86 3t-74 19q-16 0 -30.5 2t-30.5 19h-19h-20l-19 -21v-61q14 -16 16.5 -16t2.5 16v-78q0 -16 10 -20.5 t10 -20.5zM659 1352q-6 4 -10 6q-10 4 -10 -6h20zM139 12h19l-19 -18v18zM158 74v-23v23zM158 51v-18v18zM158 33v18v-18zM139 135q10 0 6 -12q-2 -6 -6 -10v-39q0 -16 -10 -21q-6 -2 -10 -2v-18l20 -21q-16 -14 -18 -19t-2 -22v23v39v41q0 12 10 26q4 6 10 13v61q0 8 3 5 t4 -10t0 -17.5t-7 -16.5zM139 -147v61v-20v-19v-22zM1038 1473v-21q-6 -4 -10 -12q-8 -16 -8 -29q-8 -16 -15.5 -39.5t-16.5 -49.5t-21.5 -50.5t-28.5 -40.5q-29 -45 -56.5 -88t-41.5 -88q-31 -31 -59.5 -74t-59.5 -90q-33 -43 -73 -77t-68 -81q-29 -45 -60 -83t-61.5 -75.5 t-60 -76.5t-60.5 -84q-4 -4 -8 -13q-8 -16 -8 -28q-14 0 -19 -11q-2 -4 -2 -8h-20h20h-20v-20q0 -16 -2.5 -18.5t-18.5 -2.5q0 -4 -2 -12q-2 -12 -16 -29v21h18h-18v-21q0 -14 -3 -16t-20 -2q-16 -31 -20 -60.5t-19 -58.5h-22v-22v22q16 14 19 18.5t3 20.5 q-16 -16 -19 -30.5t-3 -30.5v61v39l22 18q0 16 2 21.5t17 19.5v41q0 8 3 9.5t7 1.5t7 1t3 9v39q4 0 10 2q12 4 13 20v37q-16 -29 -21.5 -49.5t-21.5 -48.5q0 29 13 49t30 49q0 16 11 30.5t28 29.5q0 33 12 62.5t29 59.5q37 51 64.5 100.5t55 96.5t60.5 92t78 90 q14 16 28.5 30.5t30.5 31.5q29 29 50.5 58.5t49.5 57.5q16 31 43 56.5t58 25.5q29 16 46 41t34 39q0 4 2 8q4 10 16 11q-14 -14 -28.5 -16.5t-30.5 -2.5q-8 -6 -8.5 -4t3 7t10.5 10.5t15 5.5h39q16 14 29.5 29.5t13.5 29.5q14 16 28.5 20.5t28.5 20.5v21zM322 414q12 0 14 2 t2 16z" />
<glyph unicode="8" horiz-adv-x="1187" d="M932 524q0 16 -3 19.5t-20 3.5h23v-23zM870 606q16 0 18.5 -2t2.5 -18q0 12 -10 18q-7 2 -11 2zM891 586h18h-18zM909 565q-12 0 -16 10q-2 4 -2 11zM909 506q-14 31 -28.5 47t-30.5 33q-16 16 -20.5 18t-20.5 2l20 -20v-21q0 8 -3 15.5t-7 13.5q-6 8 -10 12 q-16 16 -30.5 20.5t-30.5 20.5q16 0 28 -2t12 -18v20v-20q16 0 18.5 -2t2.5 -19q16 0 30.5 -2t30.5 -18v-21q16 -14 27.5 -19t11.5 -22q0 -6 2 -10q4 -8 21 -8v-23q0 16 -3.5 19.5t-19.5 3.5zM950 403q0 -16 -2 -40.5t-16 -40.5v22h18v59zM1073 1212q29 -84 0 -139 q-16 -31 -20 -47t-21 -16q0 -14 -12 -28.5t-29 -31.5q-14 -16 -39.5 -30.5t-42.5 -30.5q-14 0 -32.5 -7.5t-35 -16.5t-30.5 -19t-23 -17q-31 -16 -40 -16t22 16q-92 -31 -123 -61h-80v-20v20v-20h19h22v-21h19q47 -14 81.5 -29.5t79.5 -29.5q4 -4 11 -13q4 -6 7 -13t3 -15 v20h-21q-14 16 -29.5 27.5t-29.5 11.5l19 -18v18q16 -14 30.5 -26.5t30.5 -12.5q-29 0 -59.5 10.5t-61.5 10.5h-20l-21 18q-4 0 -12 2q-16 4 -27 21h-61q-8 0 -9 3t-1 6t-1 6t-10 3h-41v-18h21h-21q-16 0 -20 -3.5t-19 -19.5q-16 -14 -41.5 -26.5t-39.5 -12.5 q-47 -31 -80 -63.5t-64 -77.5q-14 -16 -18 -33.5t-21 -48.5q0 -16 -10 -33.5t-10 -46.5q0 -47 15.5 -90t43.5 -72q47 -16 92 -28.5t93 -12.5q59 0 107 9.5t95 9.5h80q0 16 10 20q4 2 11 2h20h19v19h40h-18h18h21h-21v20h21h20v21q16 0 20.5 12t20.5 29q0 16 10.5 30.5 t10.5 30.5v18l18 21v-21h-18v-18v-41q0 14 9 29.5t9 29.5q0 -14 -2 -41.5t-16 -58.5v-20l-21 -21q-6 0 -10 -2q-10 -4 -10 -18q-8 0 -12 -6.5t-8.5 -14.5t-8.5 -14t-12 -6q0 -14 -2 -7t-19 7q0 -14 -12 -27.5t-28 -13.5h-19q-8 -6 -17.5 -16.5t-15.5 -17.5t-5 -10t18 5 q16 16 40.5 30.5t38.5 30.5q-14 -31 -41.5 -46t-58.5 -15q-16 -16 -33.5 -18.5t-46.5 -2.5l-123 -61h-161q-31 0 -74 12.5t-88 28.5q-31 16 -72 46t-72 75q0 31 -9 51t-9 51v82q0 29 2 59.5t16 61.5q16 14 32 39.5t32 42.5q0 29 14.5 46t44.5 34q31 45 72 63.5t70 18.5 q31 0 58.5 11t41.5 28h23q-6 0 -13 2q-10 4 -10 18q-29 16 -49.5 33.5t-50.5 46.5q-16 16 -41 33.5t-39 48.5q-16 31 -18.5 63.5t-2.5 79.5q0 29 12.5 59.5t26.5 61.5q16 14 33.5 38.5t48.5 41.5q31 47 74 76.5t88 46.5q92 45 185 47t200 -29q31 0 63.5 -14.5t77.5 -44.5 q31 -16 56.5 -56.5t25.5 -87.5zM647 141q-16 0 -20 2t-19 17q14 0 18.5 -2t20.5 -17v0zM383 768q0 -14 10 -18q6 -2 13 -2h40v20h-63zM365 889q0 -14 9 -19.5t9 -21.5q0 16 -2 28.5t-16 12.5zM932 1153v41q0 4 -2 8q-6 10 -21 10q-14 16 -41.5 28.5t-58.5 12.5 q-59 16 -131 16.5t-131 -16.5q-61 -31 -117.5 -62.5t-85.5 -78.5q0 -16 -10 -30.5t-10 -30.5v-19v-22v-19q0 -31 15 -51t44 -51q16 -14 31.5 -29.5t31.5 -30.5l19 -20h20q0 -14 11 -18q4 -2 10 -3h20q0 -16 2 -18t19 -2q4 0 10 2q10 4 10 18h19v-20v20q31 16 61.5 34 t61.5 48q29 14 56.5 39t43.5 41q47 45 85 94.5t38 108.5zM870 483v-18v18zM870 444q0 -14 11 -18q4 -2 10 -2q-16 0 -18.5 2t-2.5 18zM891 465l-21 -21zM870 506q16 -16 27.5 -33.5t11.5 -48.5q16 -31 19.5 -51.5t3.5 -50.5q0 -14 -3 -14.5t-20 14.5v40l23 21 q-16 16 -19.5 30.5t-3.5 30.5t-9 30.5t-9 31.5q-14 0 -19 8q-2 4 -2 10v-18z" />
<glyph unicode="9" horiz-adv-x="1073" d="M795 1280v-20v20zM575 -8v20v-20zM596 12v19v-19zM596 31v20v-20zM575 31h21h-21zM575 51q-14 -14 -18 -26q-2 -8 -2 -13q0 -14 -10 -18q-4 -2 -8 -2q4 0 8 2q10 4 10 18t2 28.5t18 31.5q0 16 10.5 30.5t10.5 28.5q8 8 11 6t3 -7t-3 -11t-11 -6v-21q-16 -16 -18.5 -20.5 t-2.5 -20.5zM516 -68q0 -6 -2 -10q-4 -8 -16 -8v-20q0 10 8 26q4 6 10 12zM952 1001q16 -43 18.5 -87t2.5 -91l-62 -178q-29 -88 -54.5 -165t-82.5 -150q0 -4 -2 -13q-4 -14 -18 -28q0 -6 -2 -10q-4 -8 -17 -9v-20h-20l-19 -39q12 0 17 8q2 4 2 10q-12 0 -17 -10 q-2 -4 -2 -8v-21q-16 -29 -30.5 -49t-28.5 -49h-41h20q16 16 18.5 20.5t2.5 18.5q-16 -14 -18.5 -18t-2.5 -21q0 16 2.5 32.5t18.5 47.5v18q4 0 8 3q10 4 10 18v39h21v39q4 0 10 2q10 4 10 18q-6 8 -10 17q-10 14 -10 4q0 -16 -2 -30.5t-19 -29.5q0 14 10.5 31.5t10.5 46.5 q4 4 10 12q4 6 7 13.5t3 15.5q14 29 9 55.5t10 42.5q16 45 27.5 89.5t11.5 89.5q16 45 20 78.5t21 78.5q0 16 2 30.5t16 31.5v59v39v-20q0 6 -2 8q-6 6 -16 -8q0 -14 -2 -28.5t-19 -31.5l21 21q0 10 8 26q4 6 10 13v20q0 -29 -9 -59.5t-9 -59.5v-20h-21q0 -16 -2 -20.5 t-18 -20.5q0 -12 -2 -23q-4 -20 -17 -37h-20l-19 -18q0 -14 -10 -18q-6 -2 -10 -2q0 -14 -12.5 -9.5t-26.5 -9.5l-21 -20q-16 -16 -16 -18.5t16 -2.5q29 16 49.5 40t49.5 40q-14 -29 -42 -46t-57 -34q-31 0 -57.5 -2t-42.5 -16q-45 0 -89 -10.5t-89 -10.5q-29 14 -71 22.5 t-87 37.5q-16 0 -33.5 15t-46.5 44q-16 14 -29.5 31.5t-29.5 46.5q-14 47 -26.5 91t-12.5 89q14 45 22.5 79t36.5 79q0 29 11.5 49t27.5 49q29 31 72 71t88 68q90 59 178 60q29 -16 58.5 -18.5t58.5 -2.5q16 0 23.5 10.5t-23.5 10.5q45 -16 68.5 -20.5t52.5 -18.5h20l19 -21 h20q0 -6 -2 -10q-4 -8 -18 -8v18h-19q-16 0 -42.5 -2t-57.5 -16q-31 0 -60.5 -2t-58.5 -19q-45 0 -87 -26.5t-71 -73.5q-45 -29 -67.5 -71t-50.5 -87q-16 -45 -26.5 -98t5.5 -98q16 -47 55 -76t84 -45t98.5 -27.5t98.5 -11.5q29 0 46.5 9t33.5 9h20l21 21q0 -12 8 -8 q4 2 10 8l21 20l20 19v-19h-20h20h19h-19v19q14 0 16.5 2t2.5 18h20q14 31 28.5 63t31.5 77l18 20v18v41v60q0 12 10 16q4 2 11 2v41q0 14 -2.5 26.5t-18.5 12.5q0 14 -2 26.5t-16 12.5v21v20q-16 16 -18.5 29.5t-2.5 29.5h-20h20q0 -6 2 -10q4 -10 19 -10q4 -6 12 -10 q12 -8 27 -9v-20l18 -20l41 -41q0 -10 8 -27q4 -8 10 -12q16 -45 28.5 -88.5t12.5 -90.5zM555 725h-39h39zM754 330l20 18q16 -14 6 -16t-26 -2v0z" />
<glyph unicode=":" d="M229 782l-22 -22q-6 0 -12 2q-10 4 -11 20h23h22l-22 -22q16 0 28 11t-6 11zM276 782v23v-23zM117 827q0 16 -11.5 34t-11.5 34v23l23 24v23h22v22q0 4 2 10q4 12 21 13q0 16 3 19t19 3t34 -3t36 -19h22v-23h23v-22l23 -23v-24h22l-22 -23v-23h-23h-23q0 -6 -2 -12 q-4 -10 -20 -10v-23l-4 -12q-6 -10 -21 -10h25h-25h25h-25l-22 -23h-23l23 23h-23h-22h22h-45h23h-23v22h-22zM229 281l-22 -23q16 0 28.5 11.5t-6.5 11.5v-23v23l-22 -23h-23q0 16 11 21q6 2 12 2h22zM276 281v22v-22zM322 418h22q0 -6 -2 -12q-4 -10 -20 -11v-22h-23h-23 q0 -6 -2 -13q-4 -12 -20 -12v-22v22v-22v-23h-25h25h-25h25h-25l-22 -22h-23q16 0 21 10q2 6 2 12l-23 -22q-10 0 -10 3t2 7q2 6 8 12h-22h22h-45q16 0 19.5 -3t3.5 -19l-23 22v23h-22q0 16 -11.5 34.5t-11.5 34.5v23q16 0 21 10q2 6 2 12v23h22v22l23 23q0 4 2 10 q4 12 20 12t34 -3t36 -19h22v-23h23v-22l23 -23v-22z" />
<glyph unicode=";" horiz-adv-x="417" d="M215 786l-25 -22q-6 0 -12 2q-10 4 -10 20h22h25l-25 -22q18 0 29.5 11t-4.5 11zM260 786v23v-23zM328 946v-20v20zM121 834h-23q0 16 -11 33.5t-11 33.5v25l22 20v25h23v22q-2 4 2 11q4 12 22 12q0 18 3.5 21t19.5 3t34.5 -3t35.5 -21h22v-23h23v-22l24 -25v-20h21 l-21 -25v-22h-24h-23q0 -6 -2 -13q-4 -10 -20 -10v-22q0 -6 -2 -13q-4 -12 -21 -12h23h-23h23h-23l-25 -23h-22l22 23h-22h-23h23h-47h24h-24v25zM76 510v22v-22zM145 557h-24l24 21q-10 0 -18 -3.5t-14 -7.5q-8 -6 -15 -10v21h23h24q4 0 11 -3q12 -4 12 -18h-23zM76 532 h-23l23 25v-25v25v-25zM307 440q-10 -8 -5 -10t9 -7t1 -15.5t-29 -36.5q-16 -8 -18.5 -12.5t1.5 -4.5t10.5 4t6.5 13q-8 -16 -6 -22.5t2 -11.5t-7.5 -11.5t-33.5 -22.5q-27 -20 -50 -35q-20 -14 -38.5 -24.5t-28.5 -10.5q-16 0 -21 13q-2 6 -2 12q18 25 20.5 39t0.5 22.5 t-4 14.5t6 14v47q0 16 -11.5 33.5t-11.5 36.5v22h23v23q0 -16 -3 -19.5t-20 -3.5q0 16 3 19.5t20 3.5h-23q0 4 2 10q4 12 21 12h-23h23h24h23h22h-22h22q-6 -6 -8 -12q-2 -4 -2 -7t10 -3q0 16 13 20q6 2 12 2h-25h25h45q0 -16 7 -26t13.5 -16.5t8.5 -11.5t-6 -13 q0 -18 12 -23q6 -4 12 -2z" />
<glyph unicode="?" horiz-adv-x="1032" d="M301 23h-20h43h-23l-20 -21v9t-2.5 1t-6.5 1t-10 10h39h-20h20zM381 145q16 0 18 2.5t2 16.5q0 -14 -2 -16.5t-18 -2.5v-20v-21v21h-21v-21h-16l-20 -22v-21v-18h-23h23h-23h23h-23q-6 0 -10 -2q-10 -4 -10 -18v20h-19h-20h20h-41h21h-21q6 4 8 8q4 10 -8 10h-20 q0 16 -10.5 32t-10.5 32v20q0 12 10 17q4 2 11 2v20h20v21v20q16 16 20.5 18.5t20.5 2.5q14 16 29.5 8t32.5 -8v-21h20v-20h16v-21q12 0 19 -10q2 -6 2 -10v-19zM221 569q0 12 10 17q4 2 11 2q0 -12 -11 -17q-6 -2 -10 -2zM242 608h20h-20zM262 608q0 16 2 19.5t17 3.5 q-14 0 -16.5 -3.5t-2.5 -19.5zM242 608h20h-20zM301 711q0 -14 -10 -19q-6 -2 -10 -2q-14 -14 -18.5 -26.5t-20.5 -12.5v-20q-16 -16 -20.5 -31.5t-20.5 -30.5q0 -6 -2 -10q-4 -10 -19 -10q14 0 19 10q2 4 2 10q16 29 20 47.5t21 34.5q16 29 32.5 49.5t49.5 51.5q8 8 5 5 t-9.5 -10.5t-12.5 -17.5t-6 -18zM201 406l-21 20v41q0 -14 2.5 -29.5t18.5 -31.5zM201 406v-21v21zM909 1257q16 -31 18.5 -48t2.5 -33t-10.5 -31t-10.5 -31t-12 -28.5t-27 -28.5q0 -16 -13 -31.5t-30 -32.5q-4 -6 -12 -12q-6 -6 -13 -12t-16 -15q-29 -16 -56.5 -28.5 t-43.5 -12.5q-31 -16 -48 -20t-34 -19q-6 0 -10 -2q-10 -4 -10 -18h-19h-20l-21 -20q-4 0 -12 -3q-14 -4 -31 -20q0 16 11 20q6 2 12 3h-23v-23h-18q0 -6 -2 -10q-4 -10 -19 -10q-31 -14 -60.5 -42t-57.5 -59h-43h20l23 21q16 0 20 10t16 10h-16q-16 0 -21.5 -12t-21.5 -29 q16 16 31.5 44t27.5 57h21v20q16 0 28.5 3t12.5 20q16 0 20 12t21 28h18q16 14 21.5 26.5t21.5 12.5h21q8 8 17 18.5t17.5 17.5t10.5 10.5t-6 -5.5q-29 -16 -49.5 -30.5t-53.5 -30.5q16 16 45 40.5t58 41.5q16 0 33.5 12t48.5 29q16 16 30.5 40.5t30.5 37.5q14 0 18 10 q2 4 3 10v21q16 0 18 12t2 29v20v21h-20q0 12 -11 18q-6 2 -10 2q-16 0 -30.5 10t-30.5 10t-30.5 2.5t-31.5 18.5h-100q-47 14 -82 7t-78 -7q-47 -16 -82 -18.5t-82 -2.5q-16 -16 -40.5 -30.5t-41.5 -30.5l-20 -20h20q-16 0 -28.5 -12.5t-12.5 -28.5q-12 -12 -16 -29 q-2 -8 -2 -12q0 -29 -8 -45.5t8 -32.5v-23v23q-6 4 -10 12q-10 14 -11 29q-16 0 -18 20.5t-2 36.5t10 33.5t10 48.5q16 16 20.5 30.5t18.5 30.5q16 16 20.5 27.5t20.5 11.5q61 61 123 84t123 39q74 16 137.5 18.5t122.5 2.5q16 0 33.5 -10.5t48.5 -10.5q16 0 30.5 -2 t31.5 -18q16 0 32.5 -2t46.5 -19q33 -31 62 -61q16 -16 18 -30t2 -30zM645 913h41q-16 -16 -20 -16t-21 16v0z" />
<glyph unicode="A" horiz-adv-x="1087" d="M123 414q0 4 -2 8q-6 10 -19 10v21q0 -16 10.5 -20.5t10.5 -18.5zM102 532v19v-19zM82 514q4 0 10 2q10 4 10 16v-18v-22v22h-20zM82 492v22v-22zM123 395q-16 14 -30.5 30.5t-31.5 47.5q0 31 2.5 57.5t18.5 42.5q0 14 12 25.5t29 11.5q0 16 12 28.5t29 12.5 q31 14 61.5 16.5t61.5 2.5q-16 0 -42 -9.5t-40 -9.5h-21q-16 -16 -20 -18t-21 -2q-16 -16 -38.5 -32.5t-22.5 -47.5l-21 -19q0 -31 2.5 -47t18.5 -32q0 -16 10 -27q4 -8 10 -12q16 -14 30.5 -28.5l31.5 -31.5q-16 16 -28.5 20.5t-12.5 20.5zM430 297h21h-21zM1067 -18 q-47 45 -92 101t-92 116q-31 29 -51.5 60.5t-51.5 76.5l-20 18l-21 21v20h-20q0 14 -13.5 25.5t-29.5 11.5v21q-29 16 -46.5 30.5t-33.5 30.5h20v-22h21h-21v22q-6 0 -10 2q-10 4 -10 16q0 -12 10 -16q4 -2 10 -2h-20q0 10 -10 16q-6 2 -11 2q-33 -31 -53 -50t-51 -50 q-31 -29 -72 -58.5t-71 -58.5q16 0 30.5 -9t30.5 -9h21h20q-31 0 -51.5 2t-50.5 16q0 -12 -11 -16q-6 -2 -10 -2q-16 -23 -26.5 -37t-12.5 -17t7.5 4t31.5 29q-31 -29 -59.5 -55t-42.5 -43q-16 -16 -30.5 -29.5t-31.5 -27.5q-61 -31 -61 -60q-16 0 -30.5 -12t-31.5 -26 l-20 -21v21q31 0 61 57q16 16 30.5 32.5t31.5 45.5q16 31 40.5 50t41.5 48q47 59 79.5 106.5t63.5 90.5q31 29 61.5 68.5t61.5 70.5q-31 14 -48 16t-34 2q-31 16 -72 18.5t-71 2.5h-41h-41h20h21h18h105v20q-16 0 -18.5 -2t-2.5 -18q-63 31 -123 0q61 16 119.5 25.5 t106.5 -5.5h20q8 0 15.5 -3t13.5 -7q8 -6 12 -10h21q31 45 59.5 89t44.5 87q16 16 30.5 39.5t30.5 38.5v20l19 21l22 39q0 14 10.5 38.5t10.5 38.5q16 29 30.5 49.5t30.5 49.5l21 37q0 16 2 31.5t18 29.5q16 45 32.5 90t49.5 105v-19l21 -20v-19q0 -104 12 -194t29 -181 q0 -72 10 -145.5t10 -146.5q16 -59 20.5 -118t20.5 -118q0 -59 10.5 -126.5t10.5 -127.5q16 -47 18 -77.5t2 -61.5l20 -78v-20v-19zM760 453q14 0 18 -21q2 -8 2 -18q16 0 20.5 -9.5t20.5 -9.5h21v-20q4 0 6 2q4 4 -6 18q0 10 -11 17q-6 2 -10 2q-16 14 -20 18l-21 21 q-16 16 -33.5 30.5t-48.5 30.5q16 -16 41 -30.5t41 -30.5t28.5 -20.5t12.5 -18.5q12 0 19 -11q2 -4 2 -8h18v-20q16 -16 19.5 -20.5t3.5 -18.5q14 0 18 8q2 4 2 10l-20 41v19l-23 18v21v79q-14 31 -16 60t-2 59q-16 29 -18.5 69t-2.5 68l-20 60v-21l20 21v18q-16 0 -18 -2 t-2 -16v-21h-21v-20l-20 -39q-16 -29 -30.5 -46t-31.5 -32q-16 -29 -40.5 -58.5t-41.5 -58.5q4 -6 13 -12q14 -10 28 -10q14 -14 9.5 -16.5t9.5 -2.5q8 -16 19.5 -24t23.5 -16.5t22.5 -16.5t18.5 -22zM842 256q14 -14 29.5 -35.5t31.5 -21.5q-16 16 -31.5 36.5t-29.5 20.5z " />
<glyph unicode="B" horiz-adv-x="1415" d="M236 131h-23h23zM236 150q12 0 16 8q2 4 2 10q0 -6 -2 -10q-4 -8 -16 -8zM236 250v-23v-18q-8 -6 -10.5 -10t-2.5 -8.5t-1 -9.5t-9 -13v-37q-12 0 -16 -10q-2 -6 -2 -10v20q14 14 16 28.5t2 30.5q0 14 11.5 29t11.5 31zM195 74q-14 -14 -16.5 -19.5t-2.5 -21.5h-20 q16 0 18 13t2 28h19zM752 666h-23h23zM788 684h-18h18zM752 684h18l-18 -18v18zM729 684h23h-23zM236 33h18h-18zM332 14h-19h19zM295 14q10 0 6 9q-2 4 -6 10l18 -19h-18zM498 55q6 0 1 -3t-16.5 -8t-25 -8t-19.5 -3q-16 0 -21 11t-20 11h-65h-19h-77h-41h18h145h140z M41 33h-23h82h-59zM18 33l-18 -19zM1403 209q14 -14 14 -39t-14 -39q0 -14 -12 -27q-6 -8 -11 -12l-37 -37q-16 0 -20 -11t-20 -11q-6 -6 -13 -10q-12 -8 -24 -9q-59 -31 -141.5 -45t-159.5 -14h-97h-39h-18q0 14 -13.5 16t-27.5 2h-59h18h-18q0 14 -11 21q-4 2 -8 2 q4 0 8 -2q10 -6 11 -21h-19h-22l-19 23h-18q-45 0 -88 9t-88 9l-41 19l22 -19v19q29 -14 46.5 -16.5t31.5 -2.5h-18q-16 14 -34 16.5t-48 2.5h139h18h39q4 0 13 -2q8 -2 26 -17q14 0 31.5 9.5t46.5 9.5v-19q31 14 48.5 16.5t33.5 2.5l18 -19q14 0 31 6.5t27 14.5t12 14 t-12 6q-23 -8 -38 -13t-29.5 -7t-30 -2h-37.5q29 0 67.5 11t67.5 11h119q29 14 70.5 27.5t72.5 28.5q14 0 18 10t19 10q16 0 21 2t20 17q4 0 8 2q8 4 8 16h23v22l-23 19q-12 14 -16 29.5t-19 29.5q-16 14 -28.5 31.5t-12.5 34.5q-8 6 -14 13t-12 11q-8 6 -15 13 q-14 16 -27.5 21t-29.5 20q-35 14 -62.5 19t-41.5 22q-29 12 -58.5 20t-58.5 15.5t-58.5 15.5t-60.5 24q-59 0 -105 21.5t-92 38.5q-12 14 -28.5 16t-46.5 2q-14 -45 -29.5 -77.5t-30.5 -75.5q-14 -16 -16 -21.5t-2 -19.5l-21 -19q-10 0 -14 -4l-8 -8q-4 -6 -4 -10v-19 l-19 -18v18h19h-19v-18v-21q-14 -35 -27.5 -54t-13.5 -50h-18q14 14 16 19t2 22q-6 0 -7 -3t0 -5t4 -1t3 9q-14 -16 -16 -21.5t-2 -19.5v78v26h18v58v41h23v16t-2 17.5t-7 10.5t-14 -3v-82v82q0 14 11.5 27.5t11.5 29.5v78q0 14 9 18t9 19q-31 0 -47 -2t-30 -17h-99h-18 q14 0 27.5 2t29.5 17q29 16 70 28.5t86 12.5v100q20 14 25 30.5t22 45.5q0 14 9 28.5t9 30.5q14 27 16.5 35t2.5 25q16 29 28.5 60.5t12.5 59.5q14 31 21 50.5t38 50.5q12 12 14 27.5t2 29.5q16 14 8 21.5t-8 -21.5v39h-34q-45 16 -90.5 3t-94.5 -42q-45 -14 -89 -29.5 t-87 -27.5q-14 -14 -28.5 -19.5t-30.5 -21.5q-14 -14 -16.5 -28.5t-2.5 -31.5l19 -18v18q0 -14 11 -27.5t11 -29.5q14 -20 18.5 -34.5t18.5 -28.5q14 -16 28.5 -31t29.5 -29h18q-14 0 -27.5 2t-29.5 17q-14 0 -27.5 12t-28.5 29q-33 0 -59 63q-16 0 -21.5 12.5t-19.5 26.5 v59v60q14 0 19.5 11t21.5 28q14 14 28.5 25t30.5 11q14 16 27.5 31t28.5 29q29 14 68.5 38.5t70.5 39.5q29 0 48 11t36 11q29 14 48 16.5t48 2.5q31 0 72 -2t86 -17q45 -16 77.5 -30.5t77.5 -28.5q31 0 69 -13.5t67 -27.5q76 -14 151.5 -41t151.5 -55q29 -29 54.5 -50.5 t41.5 -66.5q16 -16 20.5 -33.5t18.5 -46.5q-6 -8 -10 -16q-8 -16 -9 -29q0 -14 -2 -19.5t-18 -21.5q-6 -6 -10 -12q-10 -10 -10 -25q-12 0 -25 -12q-6 -6 -12 -10q-16 -14 -21.5 -16.5t-17.5 -2.5q0 -14 -2 -16t-17 -2q-6 0 -12 -2q-10 -4 -10 -17h-19q-14 0 -29.5 -10 t-29.5 -10h18q4 0 11 2q12 4 12 18l-23 -20h-18h18h-18q0 -12 -10 -17q-4 -2 -8 -2h-21q-47 -14 -92 -29.5t-90 -29.5h-58h19h20q14 0 30.5 2t47.5 16h-22q-29 0 -44.5 -9t-31.5 -9q29 14 57.5 29.5t59.5 29.5h18q0 12 10 17q6 2 13 2h36q20 16 36 29.5t30 27.5q0 -4 2 -6 q4 -6 16 6q6 4 15 12q6 6 12 12.5t14 16.5h19q16 0 20 8q2 4 2 11v18q14 16 14.5 19.5t-14.5 3.5q-16 -31 -33.5 -48.5t-48.5 -33.5q16 16 41 33.5t41 48.5q14 0 18.5 9t16.5 9v18q0 20 -2 25.5t-14 21.5q-4 4 -13 9q-6 4 -13 7t-15 3q-14 14 -44 29.5t-73 29.5 q-35 14 -77 19.5t-87 21.5q-29 14 -68.5 18.5t-84.5 16.5q-31 16 -71 30.5t-69 28.5v-75q0 -14 -10 -31.5t-10 -46.5v-80q0 -35 -11.5 -75t-25.5 -70q0 -29 -11.5 -44.5t-11.5 -31.5q-12 -14 -16 -39t-18 -39v-41q43 0 84 -2t69 -16q4 0 8 2q10 4 11 16q31 0 58.5 13.5 t41.5 27.5q31 0 59.5 12.5t57.5 28.5q14 6 15 4t-6 -8t-20.5 -12.5t-27.5 -6.5q0 -14 -9.5 -9t-9.5 -9q-14 0 -29.5 -9t-29.5 -9h-18q-16 -16 -30.5 -19.5t-29.5 -3.5q-16 -14 -21 -16t-20 -2h41h19q31 0 50 -9.5t50 -9.5q43 -16 83 -21t71 -20q14 0 38.5 -9t38.5 -9 q20 0 45 -10.5t39 -10.5q16 -16 41 -29.5t41 -27.5q27 -16 44.5 -29.5t31.5 -27.5q29 -31 48.5 -71t47.5 -69q0 -20 3 -32.5t20 -12.5v-18v-41zM1323 961q-6 -6 -10 -15q-10 -14 -10 -26q4 4 10 12q4 6 7 12.5t3 16.5zM379 430q0 16 7 19.5t-7 3.5v-23zM924 -27 q16 -14 30.5 -16t28.5 -2q-14 14 -28.5 16t-30.5 2z" />
<glyph unicode="C" horiz-adv-x="931" d="M1137 436q0 12 10 17q4 2 10 2zM1098 416h-21l21 20v-20zM1077 416q-14 0 -18 -10.5t-21 -10.5q16 16 20.5 18.5t18.5 2.5zM1098 416h-21h21zM1077 377q31 29 50.5 44t50.5 15q16 14 20 16.5t21 2.5q-4 0 -13 -2q-12 -2 -28 -17q-31 -16 -61 -33.5t-58 -46.5 q-47 -16 -81 -33.5t-79 -46.5q-14 -8 -13 -2.5t10 14.5t21.5 18t20.5 9q16 16 30.5 18.5t28.5 2.5q16 16 30.5 28.5t31.5 12.5q10 10 16 6q2 -2 2 -6zM1415 555q14 14 17.5 9t3.5 9q-29 -14 -48.5 -27.5t-50.5 -29.5h-20q31 16 48 20.5t32 18.5h18zM1436 573h20h-20z M1415 1251q-14 -29 -25.5 -45t-11.5 -32q-31 -31 -51 -51.5t-51 -49.5v-20v20q16 0 20 15.5t21 44.5q16 16 20 33.5t21 45.5v39q16 16 18 30.5t2 31.5q-6 4 -10 12q-10 14 -10 29h-21h-20h-21h-39q-16 -16 -29.5 -18.5t-29.5 -2.5q-16 -16 -40.5 -28.5t-39.5 -12.5 q-45 -31 -90 -57.5t-90 -40.5q-74 -61 -148.5 -120.5t-150.5 -119.5q-74 -76 -146.5 -152.5t-132.5 -166.5q-29 -31 -56.5 -72t-43.5 -88q-14 -16 -28.5 -39.5t-30.5 -40.5q0 -29 -11.5 -46t-27.5 -34q-16 -45 -16.5 -87t16.5 -70q0 -14 10 -29q4 -8 10 -12q0 -6 2 -11 q4 -10 17 -10q31 -16 50 -16t50 16q16 0 43 10.5t57 10.5q14 16 28.5 18t31.5 2q0 14 8 19q4 2 10 2q16 0 20.5 2t20.5 16h21q16 0 32.5 10.5t44.5 10.5h-20h-18v-21q0 16 2 18.5t16 2.5h20h-20q16 0 18 2t2 18h41h21v19q59 31 118.5 51t119.5 49q12 4 22 10q10 4 20.5 7 t18.5 3q-14 0 -18 -10q-2 -6 -3 -10h-20h-20q-14 -16 -32 -20.5t-46 -18.5h20q14 0 14 7t-14 -7q29 14 48.5 18t49.5 21q-45 -16 -78.5 -40t-80.5 -40q0 -16 -2 -18t-19 -2l-20 -19q-14 0 -27.5 -2t-30.5 -18q-16 0 -33.5 -21.5t-48.5 -38.5q-6 6 -10 8q-10 4 -10 -8 q-29 -16 -45 -20t-33 -21q0 -8 -6 -9t-14 -1t-14.5 -1t-6.5 -9q-14 0 -30.5 -8.5t-27.5 -17.5t-13 -14t12 3q45 14 88 37.5t72 40.5q-29 -16 -72 -40t-88 -38q0 -14 -10 -19q-4 -2 -9 -2q-8 0 -15 -3t-13 -7q-8 -6 -13 -10q-29 0 -59.5 -10.5t-58.5 -10.5q-16 0 -34 2.5 t-46 18.5h-21h-20v20q-16 0 -27.5 12.5t-11.5 26.5q-45 29 -62.5 72t-17.5 88t12.5 87t28.5 73q16 29 29.5 58.5t27.5 60.5q16 31 28.5 56.5t12.5 41.5q16 31 30.5 61.5t29.5 59.5q76 92 152.5 180t166.5 178q45 29 77 56.5t62 44.5q74 45 139.5 89t139.5 91 q76 29 147.5 53.5t133.5 24.5q14 0 40.5 8t57.5 -8h61q14 -16 18.5 -28.5t18.5 -12.5q14 -29 19 -43q2 -8 2 -15v21v-41q0 -16 -10.5 -31t-10.5 -31zM340 76q-29 31 -59 0h59zM1436 1372v-18v18z" />
<glyph unicode="D" horiz-adv-x="1638" d="M981 741q-29 -33 -59.5 -52t-61.5 -50l23 20q29 29 58.5 49.5t62.5 51.5v-19h-23zM1040 780q-16 0 -20 -10t-16 -10q12 0 16 10t20 10zM1640 20q0 -6 -2 -10q-4 -10 -18 -10l-18 -20h-43h-37h-60h-43h-18l-21 20q-14 0 -30.5 2t-49.5 18q-59 31 -118.5 60t-120.5 59 q-43 16 -77 30.5t-62 31.5q-29 0 -60 10t-59 10q-78 14 -149.5 5t-133.5 -25q-45 0 -89 -12.5t-89 -26.5q-16 -16 -20.5 -19.5t-20.5 -3.5q-45 -16 -89 -42.5t-91 -55.5q-29 -16 -59.5 -20.5t-59.5 -20.5q16 16 20.5 30.5t18.5 30.5q8 0 13 -3t9.5 -5t8.5 -1t12 9 q12 29 36.5 45.5t41.5 32.5l20 23q-16 -16 -40.5 -31.5t-41.5 -32.5q16 16 44 42t59 40q29 31 49 47.5t49 30.5q16 31 44 48.5t56 33.5q31 14 61 40t58 42q61 29 111.5 57.5t109.5 61.5q16 14 20.5 16t20.5 2l21 21h18l19 20h-19h19h20v18q16 0 30.5 12.5t31.5 28.5h20 q-16 0 -20 -10t-21 -10h21l20 20q0 -16 -12 -28.5t-29 -12.5v-18h-18q-16 -14 -21 -29q-2 -8 -2 -12h-20v-18h-19q-14 -16 -14 -29.5t14 -13.5q0 16 11.5 29.5t27.5 13.5q-16 0 -27.5 -13.5t-11.5 -29.5q-8 0 -14 -3t-12 -8q-8 -4 -13 -8q-16 -16 -30.5 -36.5t-30.5 -20.5 q-29 -33 -56.5 -50.5t-41.5 -31.5h139q45 14 92 7t107 -7q45 -16 100 -41t100 -41q29 -29 72 -45t88 -33q16 -14 30.5 -19t28.5 -22h39h21h22h-22v23q0 14 -10.5 38.5t-10.5 39.5l-18 41v18q-29 78 -59.5 150.5t-61.5 150.5q-29 59 -59.5 107.5t-59.5 91.5q-59 92 -134 178 t-167 164q-16 14 -29.5 38.5t-27.5 39.5q-31 16 -48.5 30.5t-33.5 28.5q-45 33 -77 48t-62 15q-29 0 -61 -5t-60 -38q-29 -29 -44.5 -56.5t-15.5 -41.5v-80v39q0 -45 3.5 -77.5t19.5 -63.5q0 -45 11 -66.5t26 -52.5q0 -29 12 -47t27 -35q16 -29 31.5 -45t29.5 -31l21 -22v22 q-16 0 -41 14.5t-41 43.5q-43 47 -92.5 117.5t-65.5 162.5q-16 47 -13 91t33 90q14 47 42 84.5t57 54.5q16 14 40.5 27.5t41.5 13.5h98q45 0 88 -22.5t74 -39.5q29 -16 46 -28.5t34 -28.5q14 -16 28.5 -21.5t30.5 -21.5q14 -14 26.5 -28.5t12.5 -30.5q16 -14 29.5 -27.5 t29.5 -13.5q61 -59 108.5 -119t92.5 -119q59 -59 97 -121.5t81 -138.5q33 -76 70 -150.5t53 -150.5q12 -29 27.5 -71t32.5 -87l18 -41v-41q0 -16 2 -30.5t18 -28.5v-19v-20v-21zM762 541h-21h21zM442 201q29 0 48.5 2t52.5 18q-33 0 -52.5 -2t-48.5 -18zM602 719h-20h20z M401 1178v-19v19zM1004 719v-21h-23zM981 698q-16 0 -18 -2t-2 -16q0 14 2 16t18 2zM942 639q0 8 3 9t6 1t6.5 1t3.5 9q4 0 10 3q10 4 10 18q16 0 20 8q2 4 3 10q12 0 14 2t2 19v-21q-12 0 -25.5 -11t-13.5 -28q-16 0 -20.5 -12t-18.5 -29q-12 0 -8 11q2 4 8 10zM1061 741 h-21q16 0 20.5 9.5t20.5 9.5z" />
<glyph unicode="E" horiz-adv-x="1052" d="M1180 377h39h-17h-22zM1159 377h-18h18zM1102 356h18h-18zM1120 356q16 0 18.5 2t2.5 19v-21h-21zM1159 356h-18h18zM1141 336q29 0 47 10t31 10h59h-39q-29 0 -69 -12t-68 -25q-23 -8 -43.5 -13t-40 -9t-43 -8t-51.5 -10h18q0 12 21 16q8 2 20 2q14 16 28.5 11t28.5 11 q16 0 34 2.5t46 14.5h21zM1495 399h-98h-21h99h20zM1495 399h21h-21zM1001 319q-45 -16 -86 -30.5t-69 -30.5h-21q-16 0 -21 -9t-18 -9h-59q-16 0 -32.5 -22.5t-45.5 -37.5q0 4 -2 8q-6 10 -18 11q-16 -14 -33.5 -28.5t-46.5 -29.5q-6 4 -12 6q-14 4 -27 -6q-8 -8 -20.5 -17 t-21.5 -17.5t-10 -10.5t15 4q43 16 75 30.5t60 29.5q-29 -14 -60.5 -31.5t-74.5 -46.5q-31 0 -72 -12.5t-69 -26.5q-16 -16 -20.5 -18t-18.5 -2v-19h-37q-6 -6 -14 -12q-14 -10 -27 -10q-16 0 -20.5 -2.5t-20.5 -16.5q-29 0 -48.5 12.5t-47.5 28.5q0 4 -2 8q-6 10 -21 11v20 q-12 0 -16 8q-2 4 -2 10q0 16 -2 20.5t-19 18.5v41q-12 10 -16 27q-2 8 -2 12v78q0 29 2 69t16 72q16 74 44 131.5t57 104.5q29 43 58.5 76.5t57.5 79.5h-38q-6 0 -9 -3q-6 -6 9 -18q-16 16 -29.5 18.5t-30.5 2.5h-18q-6 0 -11 -3q-10 -4 -10 -18q0 4 2 10q4 10 19 11l18 20 q16 14 20.5 18.5t18.5 20.5q4 4 12 8q16 8 29 8q31 0 59.5 12.5t57.5 12.5q16 29 39.5 48t38.5 48q33 31 61.5 57.5t58.5 40.5q59 45 118 98.5t118 98.5q74 45 137.5 82t136.5 37q16 16 41 20t39 19h60q16 0 29.5 -2t29.5 -17l18 -20v-17v17q14 -12 19 -27q2 -8 2 -12v-59 q-14 -14 -18 -27q-2 -6 -3 -10q-14 -16 -18 -29.5t-20 -13.5q-12 -29 -38 -45.5t-40 -32.5l-21 -19q16 14 20.5 29.5t18.5 28.5q16 16 31.5 32.5t28.5 49.5v16v21v38q0 14 -9 19q-4 2 -8 2h-22q-16 0 -29.5 -2t-30.5 -19q-45 -16 -86 -42.5t-69 -55.5q-47 -16 -81 -42.5 t-81 -55.5q-57 -59 -114.5 -120.5t-117.5 -133.5h195q0 -18 10 -23q4 -4 10 -2h17h22h21v-16v16v-16v16h18v-16h78h-18q4 -6 8 -8q10 -6 10 8v-21q-14 0 -27.5 -2t-13.5 -16h-16l-21 18l-18 -18q-16 0 -21.5 -2t-21.5 -18v20q-12 0 -22.5 -10t5.5 -10h39q-6 0 -14 -3 q-12 -4 -25 -18q-16 0 -20 10.5t-18 10.5q-16 -16 -31 -27.5t-31 -11.5q-59 0 -116.5 -8.5t-116.5 8.5h-21q-16 -16 -21 -18.5t-20 -2.5q-29 -45 -59.5 -87t-59.5 -71q-29 -43 -55.5 -85t-42.5 -70q-14 -47 -26.5 -91t-12.5 -87v-41v-19q12 0 19 -10q2 -6 2 -10v-39l18 -21 h41q14 0 19.5 2t21.5 19h37q14 16 18 18t21 2q29 14 58.5 26.5t62.5 12.5q16 14 20 16.5t16 2.5h21q16 0 30.5 11t30.5 11q29 14 45.5 18.5t32.5 18.5v-18h-20h-21h21h20v18h37h21q16 0 18 2t2 19q57 14 117.5 27t120.5 13q10 4 20 7q10 2 19.5 1t17.5 -8h-21h-18h-18 q-16 0 -42 -3t-38 -19h16q31 0 51 11t49 11zM766 866q0 4 -2 8q-6 6 -16 -8h18zM311 121q16 0 37 10q10 4 23 10q-12 0 -28 -2t-32 -18zM1257 1401v20v-20zM942 829h23h18h18h21h-57q0 -14 -13.5 -16t-27.5 -2q-16 0 -6 9t24 9zM1061 850h20h-20zM1081 850l21 -21z" />
<glyph unicode="F" horiz-adv-x="1085" d="M1739 987q0 16 10 21q6 2 12 2zM1700 987h16h-16zM1700 969h-23h23zM1700 969v18v-18zM1716 969h-16h16zM1716 948q8 8 16.5 14.5t14.5 12.5q8 6 14 12q12 0 27 10q8 6 12 13q-6 0 -10 -2q-10 -4 -10 -21q-31 -14 -52.5 -29.5t-50.5 -33.5q-14 -14 -42.5 -28.5 t-57.5 -29.5q-14 0 -13 3t10 8.5t21.5 12.5t20.5 15h22q16 14 30.5 19.5t31.5 23.5h16zM1901 1112q0 -16 -11.5 -21.5t-25.5 -21.5q14 0 14 8t-14 -8q14 16 28.5 31.5t32.5 32.5v-21h-24zM1925 1133h19h-19zM1616 924q-29 -14 -58.5 -28.5t-64.5 -29.5l-18 -20h-23h-41h-20 q-12 -12 -25 -17q-6 -2 -12 -2q-18 0 -21.5 7.5t-3.5 -7.5h-59h-45h-37q-16 0 -16.5 -12t16.5 -12q29 0 60.5 3t62.5 21q-31 -18 -66 -21t-78 -3q-16 0 -43.5 12t-56.5 12q-47 14 -95 18.5t-95 20.5q-43 29 -86 48.5t-72 54.5q-33 14 -60.5 40.5t-44.5 43.5v-43 q0 -66 -11 -113t-11 -94q-16 -29 -20.5 -70t-16.5 -71q74 -16 137.5 -32t126.5 -30h41h17h26q0 -16 2 -8t15 8h20v-22v22h21v-22q16 0 19 3t3 19q14 -16 41 -8t43 8l18 -22h-18q0 12 -12 8q-6 -2 -11 -8h41q-14 0 -29.5 -8.5t-31.5 -8.5l-20 -22q-14 0 -19 10q-2 6 -2 12 q-16 0 -21.5 -11t-21.5 -11t-20.5 -10.5t-16.5 -10.5l-26 21q-10 -12 -17 -21q-4 -8 -6 -14t6 -6q12 16 29.5 18t30.5 2q-12 0 -30 -10t-30 -10q-16 0 -30.5 8t-30.5 -8q-14 0 -44 -9.5t-61 -9.5q-45 14 -89 16.5t-73 2.5h-18q0 -14 -11 -41t-11 -43q-31 -92 -51.5 -183.5 t-51.5 -183.5q0 -14 -10 -19t-10 -22v-41h-21v-20v-21l-18 -18v18v-18v-23v-20q-18 -31 -23.5 -61.5t-19.5 -59.5q0 -6 -2 -10q-4 -10 -19 -11q16 0 18.5 2.5t2.5 18.5v37q0 -14 -10.5 -27.5t-10.5 -30.5v101v20q14 0 19 11q2 4 2 10q0 16 -10.5 31.5t-10.5 29.5h21v41 q0 14 8 19q4 2 10 2q-6 8 -10 18t-6 17.5t-2 10.5t0 -3q-16 -33 -18.5 -50.5t-2.5 -33.5v84q16 14 18.5 30.5t2.5 49.5v104q14 92 30.5 172t30.5 176q-14 0 -30.5 2t-30.5 15q-16 16 -44 28t-59 12v21q-16 0 -18 3t-2 20v-44v-18q0 -16 2 -21.5t18 -17.5q0 -16 2 -21t19 -22 q-4 0 -12 2q-14 4 -29 19q-14 8 -25 16q-10 8 -20 18.5t-17 26.5v18h-22v64v39v22q0 16 11 30.5t11 29.5h19h24v-19h60q16 -16 31.5 -18t29.5 -2q16 -16 30.5 -18.5t33.5 -2.5q14 0 28.5 -11t30.5 -11h19q8 16 13 35.5t9 39t8 38t13 32.5q14 29 21 60.5t42 60.5q14 16 16 43 t2 39q16 16 16.5 26.5t-16.5 -5.5q0 4 3 10q4 12 20 12q-31 16 -50.5 30.5t-35.5 31.5q-14 12 -43 28.5t-57 32.5q-29 14 -48.5 18t-33.5 21h-62h-20q-27 0 -37 -10q-6 -6 -4 -11h-19v-41v-79q0 -33 2.5 -70t16.5 -53q16 -31 18 -31t2 31q0 -47 12.5 -81t28.5 -63 q16 -16 21.5 -41.5t19.5 -40.5v-20v20q-14 0 -19 12.5t-22 30.5q-16 14 -40.5 41t-39.5 56q-33 35 -51 75.5t-31 69.5q-16 16 -19 31.5t-3 32.5q-16 14 -20.5 38.5t-20.5 40.5q0 16 2 44t18 61q0 14 11 29q4 8 10 12q8 6 16.5 13t12.5 13q6 8 10 15q31 14 53.5 18t50.5 21 h82q29 0 73 -12.5t91 -26.5q29 -18 63.5 -34.5t77.5 -47.5q33 -16 60.5 -45t44.5 -60q33 -29 59.5 -50t44.5 -50q29 -16 48.5 -40.5t48.5 -41.5q63 -33 125.5 -60.5t123.5 -45.5q14 -14 33 -16.5t49 -2.5q4 -6 11 -10q10 -10 28 -10h43h21h43h-25h25q0 -14 2 -16.5t16 -2.5 q-14 0 -16 2t-2 17h18h19h20q47 0 92 12t74 27h18h43h-22h-21v-19h-57v-20q12 16 12 18t-12 2h39q14 0 18.5 2.5t20.5 16.5zM840 600q0 -14 -11 -8q-6 2 -10 8h21zM369 29q0 14 10 18t10 19q-16 -14 -18 -18.5t-2 -18.5zM1104 924q16 -14 21 -16.5t20 -2.5q-4 4 -12 8 q-6 4 -13.5 7.5t-15.5 3.5zM266 -362v-19v19zM266 -342v-20v20zM287 -342v20v-20zM287 -342h-21h21zM266 -362v20v-20zM248 -279v-43v-20v-39v-25v25v59v101q0 16 9 -3.5t9 -33.5zM248 -463q-16 -16 -19.5 -21t-3.5 -22q0 -8 -3 14.5t-7 53.5q-6 37 -10 84q0 6 3 -12.5 t7 -43t7 -43t3 -10.5h23zM1145 600h22h-22zM1126 600h19h-19zM1126 578q12 0 27 10q8 6 14 12h21v-22q-16 0 -31.5 -2.5t-30.5 -14.5q-16 0 -30.5 -3t-28.5 -19q-16 0 -6 11t24 11q0 12 2.5 6t16.5 -6zM1225 618q16 0 16 -2t-16 -16v18h45h-45zM1290 618h-20h20z" />
<glyph unicode="G" horiz-adv-x="1519" d="M1075 406h-20q4 0 10 2q10 4 10 18v-20zM1036 367h-20h20zM977 328l18 18zM995 346l21 21zM1036 367h-20h20zM956 266q-16 -14 -27 -18t-11 -21q-16 -8 -30 -20t-23 -21.5t-12 -11.5t5 14q45 29 77 58.5t60 60.5q31 29 57.5 59.5t43.5 59.5q14 0 18 10t21 10 q-16 -16 -20.5 -20t-18.5 -20q-16 -14 -30.5 -32t-29.5 -46h-20q-16 -16 -29.5 -30.5t-30.5 -31.5v0zM1296 627q-31 -16 -47 -35t-32 -47h-23q16 16 31.5 29.5t29.5 29.5q4 0 11 2q10 4 10 21h20zM1296 627v20v-20zM1395 1380q16 16 18 20.5t2 18.5q0 -14 -2 -18.5 t-18 -20.5zM758 129q-16 -16 -20.5 -18t-18.5 -2q-16 -16 -20.5 -18.5t-20.5 -2.5q-29 -14 -49.5 -28.5t-48.5 -30.5q0 6 -2 8q-6 4 -19 -8q-29 0 -46 -11.5t-34 -27.5q-14 0 -28.5 10t-30.5 10q-8 -8 -26.5 -15t-34 -13.5t-19.5 -9.5t18 -3q61 0 98.5 12.5t84.5 28.5 q-47 -16 -91 -28.5t-92 -12.5h-77h-60h-20h-21q-29 0 -49 10.5t-49 10.5q-16 16 -30.5 32.5t-28.5 47.5q-16 14 -18.5 41.5t-2.5 56.5v39q0 14 10 29q4 8 11 12q14 74 31.5 136t45.5 122q31 45 63 100.5t77 100.5q31 59 62.5 105t76.5 91l73 73t89 87q45 29 76.5 59.5 t60.5 59.5q59 45 121.5 89t136.5 89q76 45 149.5 63.5t151.5 18.5h39h39h20h60h20v-23v-18q-16 0 -18 -2t-2 -19q-14 0 -19 -10q-2 -6 -2 -10l21 20q-16 -16 -20.5 -29.5t-18.5 -29.5h-21v-21q-14 0 -18 -10q-2 -4 -2 -8q-14 -16 -28.5 -30.5t-31.5 -30.5 q-29 -14 -59.5 -28.5t-60.5 -31.5l-21 -18l14 14q8 8 19.5 18.5t28.5 26.5q14 14 39.5 42t39.5 56q16 16 18.5 20.5t2.5 20.5h20v19h-20l-21 -19h-38q-16 -16 -31 -18t-31 -2q-4 -6 -12 -10q-14 -10 -29 -11q-45 -14 -79 -41.5t-79 -56.5q-74 -59 -148.5 -121.5 t-148.5 -136.5q-76 -76 -147.5 -149.5t-132.5 -147.5q-59 -92 -113.5 -171t-85.5 -169q0 -16 -9 -20t-9 -21v-39q-14 -14 -19 -26q-2 -8 -2 -13v-41v-38q0 -14 11 -19q4 -2 10 -2q14 0 18 -9t21 -9h20h19q31 0 60.5 -8.5t57.5 8.5h62h20q16 -16 29.5 -8t30.5 8l41 18h39h-21 h-18h18h21h20h-20q16 16 26 18q6 2 12 3h21q16 0 18 2t2 18q59 14 108.5 44t109.5 75h20q16 0 20.5 9t18.5 9q-12 0 -16 -10q-2 -4 -2 -8h-21l-20 -21q-14 0 -28.5 -12t-31.5 -27q16 14 16.5 16.5t-16.5 2.5q31 0 50.5 12t50.5 29q-31 -31 -71 -60.5t-69 -58.5h-20zM221 70 q14 0 25.5 -3.5t19.5 -7.5q8 -6 15 -10q-16 0 -31 2.5t-29 18.5zM758 -449q0 14 2 16.5t18 2.5zM817 -371q0 -12 -10 -16q-6 -2 -10 -2q4 0 10 2q10 4 10 16zM797 -389v-21v21zM778 -410h19h-19zM838 -309q-6 0 -11 -2q-10 -4 -10 -19q-16 0 -20 -12t-19 -29 q-14 -14 -18 -37q-2 -10 -2 -22l-21 -19v19q16 16 28.5 33.5t12.5 46.5q14 16 28.5 39.5t31.5 40.5q8 14 9 12t-1 -11.5t-5 -21.5t-3 -18zM698 -528q-16 -16 -27.5 -20.5t-11.5 -18.5q14 14 18.5 28.5t20.5 30.5v-20zM639 -588l20 21q0 -14 -10 -19q-6 -2 -10 -2zM1573 745 q16 -16 18 -39.5t2 -39.5q0 -29 -2 -47.5t-18 -34.5q-14 -45 -31.5 -74t-46.5 -45q-16 -29 -40.5 -55.5t-39.5 -42.5q-76 -104 -149.5 -185.5t-151.5 -171.5q-14 -16 -26.5 -30.5t-12.5 -30.5q-16 0 -20 -9.5t-19 -9.5v-20q-6 0 -10 -2q-10 -4 -10 -19q-16 -14 -20.5 -26.5 t-18.5 -12.5l18 21l-18 -21l-21 -20v-20q-29 -31 -49 -61t-49 -58l-20 -21v21h20q0 10 8 26q4 8 11 13q-8 -8 -14.5 -15.5t-12.5 -11.5l-12 -12q16 14 27.5 41.5t11.5 56.5q14 0 18 10q2 4 2 11l21 20q14 16 16 30.5t2 28.5h20q0 16 2.5 30.5t18.5 29.5q4 0 8 2q10 4 10 18 q8 8 11.5 17.5t3.5 17.5t-3 10t-12 -4q-14 -31 -18 -51t-21 -49q0 29 12.5 56.5t26.5 43.5q16 14 30.5 31.5t29.5 46.5q16 31 23 60.5t36 58.5q47 59 82 119.5t80 119.5q16 29 39.5 55.5t40.5 43.5q29 29 46 47t32 35v39q-14 16 -28.5 18t-31.5 2q-14 -16 -18 -18t-21 -2 h-39q-31 16 -47 18t-32 2h-121q-16 -16 -23.5 -18t23.5 -2q-45 0 -67.5 -9.5t-51.5 -9.5q-16 0 -33.5 -10t-46.5 -10q16 0 20.5 10t18.5 10q16 14 43 31.5t57 46.5q29 16 58.5 28.5t60.5 12.5q29 14 60.5 18t60.5 21h59q16 16 32.5 18t47.5 2q14 0 31.5 -2t48.5 -18 q4 0 12 -2q12 -4 27 -19h20v-18zM1096 -10q0 16 2 18t16 2z" />
<glyph unicode="H" horiz-adv-x="1284" d="M154 -242q0 16 2 20.5t16 18.5q0 -12 -10 -16q-4 -2 -8 -2v-21zM211 -145q0 -6 -2 -11q-4 -8 -19 -8q14 0 19 8q2 5 2 11zM190 -164v-20v20zM172 -184h18h-18zM229 -49q6 6 13.5 21.5t10.5 27.5t3 17.5t-8 -9.5q-14 -43 -27.5 -67.5t-30.5 -67.5q-14 -29 -27 -57.5 t-30 -57.5q-12 0 -16 -10q-2 -4 -2 -8q0 14 9 18t9 21q16 14 20.5 30.5t18.5 45.5h18q0 29 2.5 45t18.5 30zM57 -356q-14 -14 -26.5 -30.5t-12.5 -45.5v18v21q31 27 58 57zM18 -432h-18h18zM1032 121v20v-20zM1012 102v-18l20 -21q-14 0 -18 11q-2 4 -2 10q0 14 -9.5 27.5 t-9.5 29.5q0 29 -9 45.5t-9 30.5t9 5t9 -23v-21v-37q14 0 7 -2t-7 -18q4 0 8 -2q11 -7 11 -17zM1069 -12q-6 4 -10 12q-8 16 -8 27l8 -13q4 -6 7 -12t3 -14zM1090 -12h-21h21zM1524 803h-21h39h-18zM1466 803h-20h20zM1466 803h19h-19zM1485 782v21v-21zM1485 764q10 0 26 8 q8 4 13 10h37h-19q-29 -14 -48 -16t-48 -2q-14 -14 -40 -16.5t-54 -2.5q-8 0 -6 3.5t9 6.5t17 6t17 3h20h57h19zM1696 782h-58h37h21zM1696 782h18h-18zM1389 764q-14 0 -40 -2t-55 -17h-20h-37q-16 0 -29.5 -10t-27.5 -10h-19q-16 0 -20 -2t-19 -16q-14 0 -18 9t-21 9 q-6 -6 -15 -13t-15 -12.5t-4 -8.5t16 -3q29 14 48.5 16.5t47.5 2.5q-29 0 -57.5 -9.5t-56.5 -9.5q-4 0 10 2t39.5 5t54.5 6.5t52.5 6.5t35.5 5t2 2q-29 -16 -47 -20.5t-47 -18.5q-29 -43 -45.5 -95.5t-32.5 -95.5q0 -16 -2 -29.5t-16 -27.5v-20v-19v-18q-14 0 -16.5 -12.5 t-2.5 -26.5v18v-18v18v-18v-19q0 -29 -10 -57.5t-10 -56.5v-21v21v37v-37q-14 14 -16.5 30.5t-2.5 44.5h-18l18 19v20q0 14 -9 18.5t-9 18.5q0 8 3 9t6 1t6 1t3 10q-6 6 -10 12q-8 12 -8 25q4 0 8 2q10 4 10 18q-6 10 -10 16q-8 12 -8 2v-75v75q0 14 9 31t9 45 q-14 16 -16 42t-2 54q0 14 9 18.5t9 20.5q-43 0 -76.5 -10t-76.5 -10q-29 0 -57.5 -2t-57.5 -17h-57q-29 -43 -57.5 -95t-57.5 -95q-14 -29 -25.5 -48.5t-11.5 -47.5q-16 -14 -20 -18.5t-19 -20.5v-19q-12 0 -16 -10q-2 -4 -2 -8l-19 -20q0 -14 -12 -27.5t-27 -30.5h19v21 v18v-18h-19v-21v21q4 0 9 -2q10 -6 10 -19h-19v-18l-18 -19v-20q-29 -43 -57.5 -85t-57.5 -85q-4 -6 -12 -10q-14 -10 -27 -11h19v21q16 14 27.5 30.5t11.5 45.5v-19q-14 -16 -26.5 -32.5t-12.5 -45.5h-19q29 43 45.5 74t30.5 59v21q0 14 2 16t19 2q0 10 8 27q4 8 10 12 q14 14 16 40t2 55q4 -4 11 -7q10 -6 10 7q14 16 16 29.5t2 27.5q0 8 6.5 12t13.5 8t13 8.5t6 10.5t3 21.5t4.5 28.5t0 17t-7.5 -10q-16 -43 -29.5 -73.5t-27.5 -59.5q14 29 21.5 66.5t35.5 66.5q0 29 20.5 57.5t35.5 57.5q0 29 10 57.5t10 56.5h-20q-29 0 -69 -11t-83 -27 q-6 0 -10 -2q-8 -4 -8 -17h-39q-14 0 -18.5 -9t-20.5 -9h-19h-18v-21q0 -14 2 -16t16 -2q0 -12 9 -17q4 -2 10 -2t8 2q4 4 -8 17q16 -14 20 -26.5t19 -12.5q10 -12 26 -16q8 -2 13 -3q29 -14 45 -16t30 -2h19h-19q-6 -6 -12 -10q-14 -10 -27 -10q-14 0 -50 2t-64 18 q-14 0 -38 9t-38 9q-14 29 -37.5 48.5t-38.5 48.5h19q0 12 8 24q4 6 10 13l21 20l18 18q0 12 8 17q4 2 10 2q14 0 19 10q2 4 2 10q-6 6 -10 13q-10 10 -11 24q-14 16 -16 42t-2 55v96q0 29 9 45t9 31q16 29 27.5 47t11.5 47q14 16 28.5 32.5t29.5 45.5l57.5 57.5l56.5 56.5 q29 43 60 64.5t74 50.5q14 14 18 16t20 2l19 19q14 0 18 10t21 10h57q14 0 27.5 -10t29.5 -10q57 -57 58 -115q14 -29 16 -47t2 -47q0 -43 -2 -88t-16 -103q-16 -59 -29.5 -113t-28.5 -97h76q57 0 102.5 2t88.5 16q16 43 41.5 88t54.5 104q0 14 9 27.5t9 28.5 q29 29 39.5 57.5t38.5 56.5q14 29 30.5 55.5t45.5 41.5q14 0 28.5 21.5t28.5 35.5q14 29 26.5 45t12.5 31q14 0 25.5 12t11.5 27v-39q0 -29 -11 -79t-26 -93q-16 -14 -20 -27.5t-19 -30.5q-14 -29 -18 -45t-21 -30q0 -43 -14 -83t-43 -69q-14 -43 -27.5 -74.5t-29.5 -60.5 h78q6 0 -29 -4t-77 -9t-73.5 -9.5t-17.5 -4.5h18h21h37h39h-19h19v-18h18h-18v18h18h19h20h133h39l-20 -18v18h-58v-18q16 0 16.5 9t-16.5 9q16 -14 30 -16t28 -2zM326 733q57 14 122.5 28.5t124.5 29.5h19q0 14 2 28.5t16 28.5q16 43 20.5 86t18.5 86q0 43 9.5 75.5 t9.5 75.5q-6 4 -11 13q-8 16 -8 26v19v20h-18q-43 -16 -86 -54t-86 -81q-43 -29 -84 -66.5t-70 -66.5t-45 -66.5t-31 -66.5v-39l19 20q-14 -23 -18.5 -43t-4.5 -40.5t2 -38t2 -31.5q29 14 55 28.5t42 28.5zM535 389q0 14 2 26.5t16 12.5q0 -16 -9 -20.5t-9 -18.5zM1051 465 l18 20q0 -16 -2 -18t-16 -2zM1262 809q0 -8 -40 -15.5t-87 -13.5l-127 -16q0 6 39.5 14t87.5 15z" />
<glyph unicode="I" horiz-adv-x="714" d="M1106 1120h22h-22zM1067 1120h20h-20zM1067 1079q16 16 30.5 18.5t30.5 2.5h19h-19q-16 0 -33.5 -10.5t-47.5 -10.5h-80q-8 0 -5 3t10 7.5t17 7.5t17 3q4 -6 10 -8q12 -4 12 8h39v-21zM1247 1100h-39h-20h41h18zM1006 1120q-14 -16 -32 -18t-48 -2h-21q0 12 -10 18 q-4 2 -8 2h-62h-39q0 4 -2 8q-6 10 -18 11h-41q31 -14 48.5 -16.5t31.5 -2.5q-14 0 -31.5 2t-48.5 17q-16 0 -30.5 10t-30.5 10q-29 0 -56.5 10.5t-44.5 10.5v-21q0 -29 11.5 -69.5t11.5 -69.5q-16 -47 -21.5 -81t-19.5 -81q0 -31 -2 -62.5t-19 -78.5q-14 -29 -27.5 -61.5 t-13.5 -77.5q-29 -76 -39 -138.5t-38 -124.5q0 -14 -3.5 -27.5t-19.5 -13.5v-18v-20q-14 0 -14 -2.5t14 -18.5l-18 -20v20v-20h-21h21v-21q-16 0 -8 -2t8 -16q-6 -4 -11 -13q-10 -14 -10 -28h180h39h23h20h19h-19h19h-19h19q16 16 30.5 18t30.5 2h19h-19v-20v20h19 q0 -16 -12.5 -20t-28.5 -21h-19q0 -4 -2 -12q-4 -14 -18 -27v19l-19 -19q0 -14 -10 -8q-6 2 -10 8q-6 -12 -8 -20t-2.5 -14.5t10.5 -6.5q0 16 12 20.5t27 20.5q-14 -16 -26.5 -20t-12.5 -21h-41q-16 -16 -30.5 -28.5t-31.5 -12.5q-45 0 -77.5 -9t-61.5 -9h-41 q-16 14 -39.5 18t-40.5 21q-16 0 -28.5 2t-12.5 18q-14 0 -38.5 10.5t-41.5 10.5q-29 16 -45 32.5t-16 47.5q0 16 -9 30.5t-9 28.5h-21v41v41v-20q16 0 30.5 -10.5t30.5 -10.5q4 0 9 -2q10 -6 10 -18q16 0 40.5 -10.5t41.5 -10.5q14 0 18 -2t21 -16h41q16 -16 29.5 -18.5 t29.5 -2.5v21q16 0 18.5 2t2.5 16q-6 4 -11 12q-10 14 -10 29h21q0 16 -10.5 20.5t-10.5 20.5h21q0 6 -3.5 16.5t-7.5 17.5t-7 10t-3 -3v-82v82v39q0 29 -8 50.5t8 49.5q8 45 10 86t5.5 81t13.5 79t33 76q0 16 9 29.5t9 29.5q16 16 21.5 44t19.5 59q0 29 15.5 49t43.5 51 q16 0 19.5 21.5t3.5 37.5q14 16 18 30.5t21 29.5v41h18q-43 31 -88 47t-92 33q-29 0 -59.5 2t-59.5 18q-8 0 -15 -3t-13 -7q-8 -6 -13 -10q-16 0 -28.5 -2.5t-12.5 -18.5q-14 0 -18 -9t-21 -9v-21q-16 -16 -18 -30.5t-2 -30.5q-16 -14 -8 -40t8 -40q16 -16 18 -16.5t2 16.5 q0 -29 12.5 -45.5t26.5 -16.5q0 -14 12.5 -28.5t28.5 -30.5q-16 0 -20 2t-21 18q-14 0 -38.5 12.5t-41.5 26.5q-29 16 -45 41t-16 41q-6 14 -13.5 26.5t-13.5 26t-9 30t-3 38.5q0 29 12.5 56.5t26.5 43.5q0 16 11 29.5t11 30.5q14 0 16.5 2t2.5 18q16 0 20 2t21 19 q16 16 43 20t57 19q45 0 100.5 -2t100.5 -17q45 -31 88 -48t74 -34q45 -29 77.5 -49t61.5 -51q16 0 30.5 -9t30.5 -9q0 -16 2.5 -18.5t16.5 -2.5q0 -14 10 -18q4 -2 10 -2q16 0 20.5 -2t20.5 -19l-20 21q0 -14 10 -19q4 -2 10 -2h21q29 -16 59.5 -20t59.5 -19h22h-22h-39h39 zM545 94q0 12 -10 19q-6 2 -11 2q0 -14 11 -19q4 -2 10 -2zM383 297q0 4 2 8q4 10 21 10q0 -6 -3 -10q-4 -8 -20 -8zM725 1239q4 0 10 -2q10 -6 10 -16q-16 0 -18 2t-2 16zM324 -106q-14 0 -19 10q-2 4 -2 10q0 -6 2 -10q5 -10 19 -10zM324 -106q0 14 10 18q4 2 10 2z M725 174v-18v18zM745 156h-20h20zM745 135q0 4 3 10q4 10 18 11q-14 0 -18 -11q-2 -6 -3 -10q-16 -16 -28 -20t-12 -21q-10 0 -7 10q2 4 7 11h20q0 4 2 10q4 10 18 10zM825 195h-20h-19h19h20z" />
<glyph unicode="J" horiz-adv-x="989" d="M1065 1540l20 21v-21h-20zM1065 1460v21v-21zM1065 1481v20v-20zM1085 1501h-20h20zM1085 1778v-78v-21v80v19zM1065 1778v20v-20zM1065 1778h20h-20zM1346 1460h20h-20zM1346 1460h-21h21zM1346 1460h-21h21zM1346 1421q0 16 10 20.5t10 18.5h16h-16q0 -14 -12.5 -18 t-28.5 -21l-41 -41q-14 0 -7 12.5t7 28.5q4 -6 10 -8q10 -6 11 8q16 0 18 2t2 19zM1423 1481h-20q16 0 20 2t21 18zM1444 1501h20h-20zM1284 1421q-6 -4 -12 -12q-6 -6 -12.5 -13t-14.5 -16h-22h-19q-6 -6 -10 -12q-10 -14 -10 -25q-4 4 -8 7q-8 4 -9 -7l-20 -20l-23 20 q0 -16 -7 -28t7 -12q16 16 21.5 20t21.5 20q-16 -16 -21 -28t-22 -12q-14 0 -26.5 -2.5t-12.5 -18.5v-39v-20l-20 -23v-39q-14 -12 -7 -29.5t7 -48.5h-18v-82l-23 -18v-30.5t2 -28t7 -13.5t14 15v36.5t2 31t6 30.5t10 39q0 -29 -9 -69t-9 -68q0 -16 -11.5 -30.5t-11.5 -31.5 q-14 -16 -16 -30.5t-2 -30.5q-14 -43 -18.5 -88t-20.5 -90q-45 -90 -82 -166t-97 -152q-29 -43 -60.5 -78.5t-59.5 -78.5q-29 -33 -71 -60t-89 -41q-29 -31 -60.5 -45t-76.5 -14q-31 -16 -70 -18.5t-72 -2.5q-43 16 -86 30.5t-71 31.5q-14 14 -27.5 37.5t-13.5 37.5 q-14 16 -16.5 41t-2.5 41q-16 31 -6 59.5t25 59.5q16 31 30.5 68t28.5 53q0 29 -2 38t-16 -20q29 45 46 78t34 62q16 16 29.5 32.5t29.5 47.5l-21 -60q0 -16 -11 -55t-27 -86q0 -43 -11.5 -76t-11.5 -61v-78v-62q0 -16 23.5 -29.5t37.5 -29.5h62h57q31 14 53.5 22.5 t67.5 36.5q59 31 116.5 77t100.5 122q45 45 81 111.5t77 126.5q33 59 62.5 120.5t58.5 139.5q0 14 11 32.5t11 47.5q14 0 16.5 11t2.5 25v23q14 0 18 8q2 4 2 10v21q14 16 16.5 30.5t2.5 30.5v-22v-19v19l18 22l-18 -22v22q0 4 2 11q4 10 16 10v16v21q0 14 11.5 39.5 t11.5 40.5q-16 0 -31 -9.5t-29 -9.5q-76 -33 -149.5 -55.5t-149.5 -5.5h-59h-121q-29 0 -48.5 14t-49.5 47q-16 14 -29.5 18.5t-30.5 20.5q-16 0 -16 -2t16 -18l-61 61q0 16 -2 20.5t-15 16.5l17 -17h61h60q31 -16 59.5 -18t58.5 -2q31 16 63 18t77 2h137q61 12 123.5 24.5 t136.5 12.5q0 14 10 19q4 2 10 2v-21l21 21q0 16 -2 33.5t-19 46.5h21q0 31 -10.5 47t-10.5 33q14 12 19 26q2 8 2 12v-20v-119v-59h18q0 -16 3 -8t20 8h20h17h-17h17h20q14 16 32.5 20t47.5 21l21 -21h-21h-39h21h18zM926 864q4 4 10 13q12 16 12 26q-16 -14 -19 -18.5 t-3 -20.5zM1047 1380h18h-18z" />
<glyph unicode="K" horiz-adv-x="843" d="M59 88q-14 16 -14 18.5t14 2.5v-21zM59 147v-16v16zM59 209q0 -16 -10 -21q-4 -2 -8 -2v-39v-38q0 -14 -10 -19q-6 -2 -11 -2q16 33 18.5 48.5t2.5 31.5v61q0 8 8 -4q4 -8 10 -16zM20 29q0 -14 -10 -19.5t-10 -21.5v22q14 0 18 8q2 5 2 11zM121 784h16h-16zM59 762v22h19 q-14 -16 -18.5 -19t-18.5 -3h18zM1018 -469v-18v18zM1018 -449l-17 17h17v-17zM1001 -432v22v-22zM1001 -449v17v-17zM979 -432q0 -12 11 -26.5t11 -28.5q12 -16 14.5 -21.5t2.5 -21.5q0 16 -2 21t-15 22q0 14 -13 31.5t-30 45.5q-14 16 -21 43t-38 56q0 8 6 5t14.5 -10.5 t14.5 -16.5t6 -15v-23q14 -14 18.5 -29.5t20.5 -31.5zM1057 -647v57q0 -14 3 -27.5t19 -29.5h-22zM1079 -647v-21v21zM958 -348q-14 12 -18 24.5t-18 12.5q0 16 -11.5 30.5t-11.5 28.5h-18v21q0 14 -2 19t-19 22q0 16 -13 20t-26 16q4 4 6 11q4 12 -6 12q0 14 -10 18t-10 21 q-14 0 -9 13t-10 26q-14 8 -22 16q-8 6 -14.5 8t-6.5 -4q33 -29 40 -49t22 -49q-14 29 -29.5 49.5t-32.5 48.5q0 14 -11 39t-28 39q-6 16 8.5 -15.5t31 -73.5t26.5 -74t-4 -17q-29 61 -60.5 119.5t-78.5 117.5q-6 16 -3 10t7 -16t3 -16t-16 8q0 16 -8 31.5t-8 27.5 q-16 16 -21.5 31t-21.5 31q-14 29 -27.5 48t-13.5 50q-12 14 -27.5 30.5t-31.5 49.5q-14 14 -26.5 31.5t-12.5 46.5q-14 16 -28.5 32.5t-31.5 45.5q0 16 -10 33.5t-10 46.5q-12 16 -27.5 40.5t-29.5 38.5q-16 -59 -43 -121.5t-56 -136.5q0 -14 -3 -18t-19 -20v-19 q-14 0 -19 -10q-2 -6 -2 -10v-23l-16 -18v18v-18v-19v-20q-16 -16 -21.5 -39t-21.5 -39l-19 -23h19v23v20q-6 -4 -10 -12q-8 -16 -9 -31v80v21q12 0 17 10q2 4 2 10v37v23v20q0 12 10 16q4 2 10 3q0 8 -3 17t-7 17.5t-7 10.5t-3 -7v-77q0 16 -7.5 39.5t7.5 37.5q0 16 10 32 t10 30t-8 40.5t8 55.5q16 47 21.5 91t17.5 91v17l21 20h-21q-10 0 -14 -10q-2 -6 -2 -10h-23h23q0 4 2 10q4 10 14 10h-16l-23 -20v20q16 0 21.5 11.5t17.5 11.5h21q0 29 13 49t28 49q0 16 2 29.5t18 29.5v62q12 12 14.5 16t2.5 21q0 16 3 30.5t19 28.5q0 14 2 29.5t19 32.5 q4 4 8 12q4 4 7 11t3 16v18q0 16 -2 26.5t-16 -6.5q14 16 16 21.5t2 19.5v39q-14 16 -16 20.5t-2 20.5v17v-17q14 0 16 -2t2 -18q16 -16 27.5 -32.5t11.5 -45.5q16 0 18 -13.5t2 -29.5q16 -14 18.5 -18.5t2.5 -20.5v-80v-80v-98q16 16 20 38.5t19 22.5q16 16 30.5 20.5 t30.5 16.5q16 16 29.5 21.5t30.5 21.5l116 56q16 0 30.5 11t29.5 11q16 0 33.5 12.5t46.5 26.5q16 16 33.5 18.5t45.5 2.5q16 0 31 9t29 9q0 16 8 18t-8 2q16 0 27.5 13.5t11.5 27.5q14 0 18 9q2 4 2 10v20v-20q4 0 10 -2q10 -6 11 -17q0 -14 -10.5 -32.5t-10.5 -46.5 q-16 -16 -20 -29.5t-17 -30.5q-16 -16 -28.5 -21t-12.5 -20q-16 -14 -30.5 -18t-28.5 -19q-16 -33 -43 -48t-55 -32q-33 -16 -61.5 -30.5t-59.5 -30.5q-59 -29 -118.5 -49.5t-119.5 -50.5h-41h-20q0 -29 -8.5 -56.5t-8.5 -40.5v-22q4 0 9 -2q8 -4 8 -17q16 0 28.5 -12 t12.5 -29q45 -43 90 -97t88 -99q16 -14 31.5 -43t27.5 -57q16 -14 27.5 -18.5t11.5 -20.5q16 -16 21.5 -30.5t19.5 -29.5q14 -16 18.5 -30.5t20.5 -30.5q0 -12 11.5 -27.5t11.5 -32.5q14 -14 18 -28.5t19 -26.5q0 -16 10 -31.5t10 -29.5q25 -41 30 -45.5t-2 8t-19.5 35 t-23 35t-12.5 7t15 -43.5q16 -16 20 -33t17 -47v-19q0 -14 10 -18q6 -2 12 -2q-10 0 -10 -2t2 -6t8 -9v-22q16 -16 18.5 -20.5t2.5 -18.5v18v-18v-23v23q0 -16 8 -21q4 -2 10 -2v-16q16 -47 30.5 -81t28.5 -81v-39v23v16q0 16 -9 30.5t-9 31.5v-21q0 -16 2 -30.5t16 -26.5z M377 903q16 0 18 -8t2 8h-20zM158 444q16 0 19 2.5t3 18.5q0 -14 -12 -19q-6 -2 -10 -2zM801 27v39v-39z" />
<glyph unicode="L" horiz-adv-x="1169" d="M698 1303v20v-20zM678 1264l20 20q0 -14 -10 -18q-6 -2 -10 -2zM698 1206l19 21v37v59v18v-18v-78v-78q0 -6 -3 -4t-6 9.5t-6.5 17.5t-3.5 16zM717 1380q12 12 16 27q2 8 2 12v19v-39zM1286 39v-21q0 16 -2 18.5t-18 2.5h20zM1266 39h-21h21zM1227 39h18h-18zM1245 39 q0 -16 2 -18.5t19 -2.5q-16 0 -18.5 2.5t-2.5 18.5zM1245 0q12 0 29 8q8 4 12 10h39h-20q-29 -14 -46.5 -16t-31.5 -2q-29 0 -48.5 -10t-48.5 -10q-8 0 -6 3t9.5 7t17.5 7t16 3h21h39h18zM1382 18h-20h59h-39zM1421 18h19h-19zM1167 18q-14 -14 -37.5 -16t-37.5 -2h-21h-37 q-4 -6 -12 -10q-14 -10 -27 -10q-8 0 -9 3t-1 7t-1 7t-9 3q-14 0 -18.5 -10t-18.5 -10l-20 20q-8 0 -17.5 -3t-18 -7t-10.5 -7t5 -3h98q-29 0 -48.5 -9.5t-49.5 -9.5q-14 0 -31 9.5t-45 9.5q-29 0 -58.5 -9.5t-58.5 -9.5q-29 6 -11.5 1t45 -12t48 -12.5t0.5 3.5 q-29 0 -53.5 -2t-46 -1t-43 7t-41.5 20q-29 14 -46.5 16.5t-31.5 2.5q-29 16 -68 27.5t-67 11.5q-29 16 -58.5 20t-58.5 20t-55.5 18.5t-42.5 2.5q-14 -16 -14.5 -18.5t14.5 -2.5q-29 0 -45.5 -10t-30.5 -10q-8 0 -15.5 -3t-11.5 -7q-8 -6 -12 -10q-6 0 -10 -3 q-10 -4 -11 -16v19v-19h-18h18q0 14 2.5 18.5t18.5 20.5q14 31 30.5 79t45.5 77q0 29 12 45t27 32q16 14 30.5 31t30.5 45q14 29 37.5 69t38.5 68q16 14 20 18.5t19 20.5q0 14 9 18.5t9 20.5q16 14 29.5 30.5t30.5 45.5q43 72 76.5 145.5t78.5 145.5q0 10 8 27q4 6 11 12 q0 16 10 20t10 19q14 0 16.5 2t2.5 16v39v-18l18 18h-18l18 21v20q4 4 10 12q4 6 7 12.5t3 14.5q0 14 9.5 28.5t9.5 28.5q0 4 2 11q4 10 18 10v-21q-6 6 -10 8q-10 4 -10 -8v-39q0 12 10 27q4 6 10 12v-76q0 -16 -2 -18t-18 -2v-20q-14 -16 -7 -29.5t7 -30.5q0 -14 -2 -18 t-17 -19q14 0 7 -2t-7 -18v-39q14 29 16.5 46t2.5 32v-78q-14 -14 -26.5 -27.5t-12.5 -29.5v-115q-29 -45 -49.5 -91t-42 -92.5t-50 -88t-71.5 -78.5q0 -16 -11.5 -29.5t-27.5 -30.5q-29 -29 -45 -57.5t-31 -56.5q-16 -16 -29.5 -20.5t-29.5 -18.5q-14 -14 -27.5 -18.5 t-29.5 -20.5q-4 0 -13 -2q-12 -2 -28 -17q16 14 30.5 16.5t30.5 2.5q43 16 97.5 8t113.5 -8q43 0 89 -11.5t106 -27.5q20 -6 37.5 -8t36 -3t40 -3.5t49.5 -10.5q31 -10 38 -14t3 -5t-13 1t-13 3t3 0t36 -5q16 0 29.5 -9.5t29.5 -9.5h21h20q0 -12 8 -16q4 -2 10 -2v18 q10 -12 27 -16q8 -2 12 -2h-20h20h19h-19h19h20q29 0 57.5 -2t57.5 -19h39h-21h-57h20h37zM582 954q0 -16 -9.5 -20t-9.5 -19q14 14 16.5 18.5t2.5 20.5zM838 76l20 -19q-6 0 -10 2q-10 5 -10 17z" />
<glyph unicode="M" horiz-adv-x="1404" d="M1042 8v-18q0 14 -2 18t-16 21zM1024 47v21v-21zM1004 104v-36v36zM1004 68h20h-20zM1024 68v-21v21zM985 68q14 -29 26.5 -46.5t12.5 -31.5q0 -16 2 -20.5t16 -18.5q0 14 -9 18t-9 21q-16 29 -29.5 48t-29.5 48q-14 29 -28.5 60.5t-27.5 74.5q-8 14 -6 12t9.5 -10 t16.5 -20.5t17 -20.5v-39q14 -16 18.5 -29.5t20.5 -27.5v-18zM1100 -205q0 29 -8.5 46.5t-8.5 31.5v-18q12 -16 16.5 -33t20.5 -45zM1120 -244v21v-21zM1198 1245l-20 -18h20v18v0zM1178 1206v21v-21zM1448 -319l18 -21q-12 0 -16 10q-2 5 -2 11zM1427 -260q12 0 19 -10 q2 -6 2 -11zM1448 -281v-20v20zM1427 -319l21 -21v-18v18q-14 0 -18 10q-2 4 -3 11q-10 10 -14 26q-2 8 -2 12q-16 29 -27.5 48.5t-11.5 48.5q-8 6 -6 4t7 -9.5t11.5 -17.5t6.5 -16v-21q0 -12 10 -16t10 -21v-20zM1507 -473q0 14 -10 28.5t-10 28.5q0 -12 10 -26 q4 -8 10 -13v-18zM1507 -473v-21v21zM1411 -223q-16 29 -29.5 45t-29.5 33v18v21v18q0 14 -19.5 28.5t-19.5 28.5q6 0 8 2q4 4 -8 19q-6 4 -10 12q-8 12 -9 27q4 4 6 8q4 10 -6 10q0 8 -6 17.5t-12 14.5t-8 4t6 -15q0 -16 10 -40t10 -38q0 14 -12 40.5t-29 55.5v78 q-12 29 -26.5 50.5t-28.5 64.5q-8 66 -17.5 125t-17.5 117.5t-10 116.5t6 122v80v39q-16 -29 -34.5 -67t-61.5 -52q-16 -12 -18.5 -16.5t-2.5 -20.5q-29 0 -36 -11.5t-21 -27.5q-16 -14 -31.5 -26.5t-44.5 -12.5q-12 12 -26 8q-8 -2 -13 -8q-16 -14 -16 -16t16 -2h-41 q0 -16 10.5 -28.5t10.5 -29.5v-39l20 -20q0 -14 2 -28.5t17 -28.5h-19v18v-18h19v-37v-21h20q12 -45 26.5 -98t29.5 -94v-39v18l-19 21q0 14 -2 28.5t-18 26.5v-16h20q0 -16 2 -32.5t17 -45.5q-14 29 -37 66.5t-39 66.5v20q-6 0 -10 2q-8 4 -9 17v41q0 14 -22.5 30.5 t-36.5 45.5q4 0 8 2q10 4 10 16q-14 16 -26 29.5t-12 29.5v39q-6 8 -15.5 20.5t-16.5 20.5t-10.5 9.5t3.5 -13.5q16 -43 29.5 -74.5t29.5 -60.5q-16 29 -39.5 60.5t-36.5 74.5q0 29 -10 58.5t-10 58.5q-29 43 -55.5 79t-43.5 95v37q-14 -12 -27.5 -36t-27.5 -40 q-16 -29 -29.5 -57.5t-29.5 -57.5q-43 -45 -75 -100t-60 -113q-29 -45 -61 -87t-73 -87q-31 -16 -57 -51t-41 -63q-16 -29 -13 -39t32 18q-43 -29 -61.5 -65.5t-33.5 -51.5q-16 -29 -29.5 -48t-29.5 -48v-18v18q0 16 2 23.5t18 36.5q6 29 19.5 69.5t30 83.5t34 84t31.5 72 q29 72 68 134t67 134q43 74 77 145.5t77 143.5q16 16 20.5 32.5t18.5 47.5q16 14 29.5 39.5t29.5 54.5q29 59 59.5 107.5t75.5 105.5q0 16 2.5 20.5t16.5 18.5v20v-20v-19q16 -16 18 -29.5t2 -29.5v-55q0 -31 9.5 -60.5t9.5 -58.5q0 -12 2 -26.5t18 -28.5v-39q0 -16 8.5 -40 t8.5 -40q0 -12 10 -36t10 -40q14 -29 18.5 -71t20.5 -82v-21q0 14 8 18q4 2 10 3q0 14 10.5 18t10.5 20q16 12 20 16.5t19 20.5q0 16 12 29.5t25 30.5q16 14 20 18t19 21q16 14 20 18t19 21q29 29 48 67.5t48 67.5q0 4 2 8q4 10 18 10v21h19v16h20h-20v20h20q0 14 2 28.5 t17 29.5h20h-20v-19l20 19v-19v97q0 29 2 55.5t17 40.5v78q0 -6 2 -13q2 -10 18 -26q12 -43 24.5 -105.5t12.5 -107.5q0 -59 10 -106.5t10 -106.5q0 -14 2 -40t17 -54v-99v-114v-117q0 -100 12 -201.5t27 -204.5v-57v-39q0 -14 2 -16t18 -2v-21v-39v21v-21h-20h20v-18v-21 q14 -29 18.5 -59.5t20.5 -75.5v-18v18q0 8 -3 14.5t-7 12.5q-6 6 -10 12q0 -14 2 -28.5t18 -28.5zM616 954h-18v-20h18v20zM791 723q0 -14 2 -28.5t18 -28.5q0 14 -2 28.5t-18 28.5zM1100 1053h20h-20zM1352 164q0 -16 -2 -28.5t-17 -12.5q0 4 2 12q5 17 17 29z" />
<glyph unicode="N" horiz-adv-x="1185" d="M664 1370v23v-23zM623 1323l22 27zM729 1434q0 16 11.5 20t11.5 21v-21q-16 0 -19.5 -2t-3.5 -18zM752 1475h20h-20zM582 1176q-10 -8 -11.5 -15.5t-1.5 -15.5t-2 -16.5t-10 -16.5q0 -6 -2 -12q-4 -12 -16 -13q0 -12 -11 -16q-6 -2 -10 -2q0 -8 3 -18.5t7 -18.5t7.5 -11 t3.5 3q14 18 16 36.5t2 51.5q0 -33 -2 -51.5t-16 -36.5q0 -14 -13.5 -29.5t-29.5 -33.5q0 -14 -3.5 -41t-21.5 -43q-23 -47 -40 -95.5t-34.5 -94.5t-40 -91t-55.5 -86q-16 -16 -21.5 -28.5t-23.5 -12.5q-16 -33 -30.5 -64.5t-32.5 -62.5q0 -33 -23 -54.5t-39 -51.5 q-16 0 -26.5 -7.5t-16.5 -17.5t-10 -20.5t-12 -18.5q0 -16 2 -16t18 16q-16 -35 -28.5 -53.5t-12.5 -34.5q-16 -16 -21.5 -20.5t-21.5 -20.5v-23v23v20v42t2 53.5t6 53.5t13 42q16 47 21 86t22 86q14 16 20 42t23 42q0 18 11 36.5t11 51.5q31 31 51.5 75t53.5 79 q49 78 91 154.5t103 142.5q0 16 11.5 20t11.5 18l18 25q18 0 21.5 3t3.5 20l22 20h21h-21v21h21v18q14 18 30.5 36.5t30.5 51.5h23q-16 -18 -21.5 -23.5l-19.5 -19.5h18v18l23 25q0 -18 -11.5 -32.5t-11.5 -30.5v-25zM453 1049q-16 0 -19.5 -3.5t-3.5 -21.5zM965 -193v-22 v22zM965 -174v-19v19zM965 -174q-16 0 -18.5 2t-2.5 18q0 -16 2.5 -18t18.5 -2zM965 -193v19v-19zM922 -193q16 -16 21 -22t22 -23v-22v22q-16 16 -29.5 33t-13.5 31q-16 16 -32 32.5t-34 30.5q0 16 14.5 6t30.5 -24v-25l21 -20v-19zM1032 -344q0 16 -13 21.5t-13 21.5 l26 -23v-20zM1051 -344h-19h19zM1221 1362v20v-20zM1221 1362v-21v21zM1221 1317v24v-24zM1221 1362v-21v21zM1264 1341q-16 16 -21.5 28.5t-21.5 12.5v43v-20q16 -16 21 -34.5t22 -53.5v-39q16 0 18 -14.5t2 -30.5q0 -8 -3 -5t-7 11t-7 19.5t-3 19.5v20q0 4 -2 13 q-2 8 -21 30h23zM1178 1511q4 -4 10 -12q12 -16 12 -31q-6 6 -12 15q-10 14 -10 28zM1178 1532v-21v21zM1294 1042q0 -18 -10 -36.5t-10 -49.5q0 -8 8 5.5t17.5 30t12.5 28.5t-5 4q-47 -111 -87 -217.5t-104 -188.5q-14 -16 -28.5 -31.5t-14.5 -31.5q-31 -16 -51.5 -56 t-36.5 -73q-16 -16 -33.5 -42t-50.5 -42q-16 -18 -21.5 -23.5t-23.5 -19.5q0 -6 -2 -14q-4 -16 -18 -31q0 -14 2 -14t18 14q-16 -14 -20.5 -28.5t-20.5 -14.5v-18v-43l21 -25v-19v19v-19v-22q0 -16 10 -20.5t10 -20.5l-20 20q12 -14 8 -18q-2 -2 -8 -2h20v-23v-18 q18 -20 33.5 -49t32.5 -64v-18h-21q4 0 10 2q10 4 11 16h-21q0 16 -2 21.5t-18 23.5v-24h20v-39q0 14 -13.5 29.5t-31.5 33.5l-20 21v47l-41 18v23l-23 20q-16 14 -8 20.5t8 22.5q-16 0 -29.5 7.5t-13.5 -7.5q16 -16 21.5 -31.5t21.5 -31.5q-16 16 -29.5 33.5t-13.5 48.5 l-20 25v43q-8 16 -18.5 28t-21 23.5t-17.5 25t-7 29.5q-35 113 -58.5 224.5t-4.5 228.5q0 14 -9.5 31.5t9.5 50.5v151q0 29 2 61.5t16 65.5q16 16 19.5 42t3.5 40v25v20v43h22v23v45v20v23v-23l19 -20v-27q10 10 13 18.5t7 14.5q2 8 4 14q0 4 2 10q4 12 19 13l-21 -23 q0 -16 -12 -21.5t-12 -25.5q18 -49 31.5 -94t13.5 -74q0 -51 10 -99t10 -95t11.5 -95.5t11.5 -95.5v-215q16 -49 18 -86t2 -86q16 -16 19.5 -20.5t3.5 -20.5q16 47 30.5 95t30.5 98q18 47 45 83.5t43 86.5q31 49 64.5 86.5t64.5 85.5q25 41 36 53t18.5 18t14.5 17.5t23 52.5 q16 18 19.5 23.5t3.5 19.5q16 16 19 21t3 24v20q16 16 18.5 21.5t2.5 26.5v-27v27h20h-20v18v22q8 8 10 9.5t2 3.5t-1 7t-1 21v23v20v-20v-23q2 10 4 19q2 6 4 9t2 -5l-10 -45v45q0 -16 11.5 -22.5t11.5 -22.5q0 -8 2 -2t3 14t3 13.5t2 -3.5h20q0 -16 -2 -18t-18 -2v-43 q4 -4 10 -12q4 -6 7 -14.5t3 -18.5h-20q0 -14 10 -29q4 -8 10 -12q0 -18 -10 -23q-6 -4 -10 -2q0 -8 3 -18t7 -18.5t7 -10.5t3 8v84v-84zM1188 1042q0 -18 -8.5 -23t8.5 -22v45z" />
<glyph unicode="O" horiz-adv-x="1067" d="M918 1311l-19 20zM936 1274h18h-18zM954 1255q12 0 19 -10q2 -4 2 -8q0 4 -2 8q-7 10 -19 10zM954 1255v19v-19zM954 1294v-20v20zM918 1350q-14 0 -16.5 2t-2.5 16q-16 0 -20.5 2t-16.5 16q12 -14 24.5 -18t12.5 -18q29 -14 56.5 -40t56.5 -55q14 -29 25.5 -44t11.5 -29 q12 -16 16 -27q2 -8 2 -12q14 -14 16 -27.5t2 -28.5q14 -14 7 -14t-7 14q-14 14 -18 27.5t-18 28.5v18v39l-27.5 27.5t-30.5 27.5v19l-16 20q-16 12 -20.5 14.5t-18.5 2.5q0 16 -9 20.5t-9 18.5zM655 1444h58h16q0 -14 10 -19q4 -2 11 -2h18h-39q0 14 -8 19q-4 2 -8 2h-21 h-18h-19zM637 1444h18h-18zM430 1237l19 18zM1104 938q0 -14 -9.5 -27.5t-9.5 -29.5q0 -14 3.5 -25.5t4.5 -24t0 -26.5t-8 -35h-18v-94q-14 -14 -25.5 -18.5t-11.5 -18.5t-5 -32.5t-9 -33t-2 -19.5t16 9q14 57 27.5 92t27.5 76q-14 -41 -27.5 -84t-27.5 -84 q-29 -29 -54.5 -58.5t-39.5 -72.5q-14 -14 -38 -38.5t-36 -53.5q-16 -29 -40.5 -48.5t-53.5 -47.5q-41 -29 -93 -65t-95 -64q-14 0 -27.5 -10.5t-28.5 -10.5q-14 -12 -27.5 -16t-29.5 -21q-29 -14 -56.5 -25.5t-56.5 -11.5q-29 -14 -46 -16t-46 -2t-47 9t-47 9 q-14 14 -36.5 27.5t-39.5 30.5q-12 12 -24.5 35.5t-12.5 38.5q-29 29 -35 65.5t-20 65.5v131v94q14 14 16 36.5t2 37.5q29 72 47.5 150.5t47.5 148.5q41 72 86 128t100 97q14 14 28.5 27.5t26.5 27.5q16 16 27.5 20.5t11.5 18.5q14 0 18.5 9.5t18.5 9.5l37 36h-18 q98 57 150 87t93 44q14 14 27 19q6 2 10 2h-16q-16 -16 -29.5 -20.5t-28.5 -18.5q0 -14 -11 -18t-28 -19l-8 -12q-8 -16 -8 -25q-8 0 -15 -3t-12 -7q-8 -6 -12 -10l-37 -37q-29 -29 -45 -47.5t-30 -46.5l-56 -56q-57 -72 -98 -152.5t-70 -164.5q-29 -86 -45 -172t-30 -184 q0 -43 4 -92.5t32 -77.5q14 -41 42 -66.5t71 -25.5q14 0 36.5 9t39.5 9q29 14 46 25.5t46 11.5q29 29 68.5 47t80.5 47q72 57 139.5 105.5t123.5 119.5q29 29 45 46.5t30 45.5q0 16 10.5 30t10.5 28h16q0 14 10.5 28.5t10.5 26.5v21q12 0 16 8q2 4 2 10q0 14 2 25.5t17 11.5 q-12 0 -17 -10q-2 -4 -2 -9v-18v18q12 0 17 9q2 4 2 10v18v19v20q10 10 6 15q-2 2 -6 2q14 29 16 56.5t2 55.5q0 29 -9 66t-9 65q-12 0 -17 9q-2 4 -2 10v18v21q0 -16 2 -18.5t17 -2.5q-14 0 -16.5 -2t-2.5 -16q10 0 17 -10q2 -4 2 -9v-37q0 -12 8 -24q4 -6 10 -12v18 q0 6 -2 12t-16 25v55q14 -41 27.5 -83t27.5 -85v-16v-39zM879 508q16 14 27.5 27.5t11.5 27.5q-6 -6 -10.5 -11t-8.5 -10t-8 -12.5t-12 -21.5z" />
<glyph unicode="P" horiz-adv-x="1134" d="M303 -317v18v-18zM303 -258v-21v21zM262 -279q16 -16 18.5 -20t2.5 -18v-21v21q0 14 -10.5 28.5t-10.5 30.5t-9 33.5t-9 46.5q0 10 8 -2q4 -8 10 -17v-20v-41q12 -14 8 -18q-2 -3 -8 -3zM324 -438q0 16 -10.5 20t-10.5 19v20q0 -16 10 -27q4 -8 11 -12v-20zM223 883 q16 0 20.5 -10.5t18.5 -10.5h-18q0 4 -2 10q-7 11 -19 11zM182 903q0 4 -2 10q-6 10 -18 11q12 0 18 -11q2 -6 2 -10zM182 903h21h-21zM203 883v20v-20zM262 844q-29 14 -59.5 21t-61.5 38q-29 16 -48 34.5t-52 66.5l20 -23q14 0 21 -10q2 -4 2 -8q4 -4 8 -13q4 -6 7 -13 t3 -13q16 0 29.5 -12.5t30.5 -28.5q31 -16 48 -20.5t34 -18.5q14 0 18 -2t21 -19zM422 803q-14 0 -18.5 2t-20.5 18q16 0 16 -8t-16 8h-21h41q14 -16 18.5 -18t20.5 -2h21h-21h-20zM463 803h18h-18zM1243 1081q16 -45 16.5 -87t-16.5 -70q0 -47 -11 -81t-28 -79 q-16 -31 -43.5 -57.5t-56.5 -42.5q-47 -47 -104.5 -74t-116.5 -27q-29 0 -70 -10t-72 -10h-39q0 -6 3 -11q4 -10 18 -10q-61 16 -93 20.5t-48 20.5q-12 0 -17 8q-2 4 -2 11l-22 -19q-14 -47 -39 -80.5t-39 -79.5q-45 -78 -67.5 -154.5t-51.5 -166.5q-6 -4 -10 -12 q-10 -14 -10 -29v-18v-21q-16 0 -18.5 -2t-2.5 -18v-39v20v-20h-20h20v-21q0 -14 -2 -29.5t-18 -29.5v-60v-20v20v39v-59q-16 29 -18.5 46t-2.5 34q0 4 -2 8q-6 10 -16 10v23q14 0 16 2t2 16q-6 4 -10 12q-8 16 -8 29h18q-12 10 -16 27q-2 8 -2 12q0 14 8 18q4 2 10 3 q0 14 -9 33.5t-9 4.5v-79q0 16 -8.5 39.5t8.5 39.5v80v101q14 53 26.5 105t29.5 100.5t42 93.5t61 82q0 31 11.5 46t27.5 15q16 29 29.5 59.5t30.5 59.5q16 31 43.5 57.5t56.5 42.5q16 16 27.5 29.5t11.5 30.5q16 14 16 24t-16 -6q14 8 23.5 16.5t15.5 15.5t10 14t12 15 l39 39v21v-21v-18q-14 -45 -28.5 -97.5t-30.5 -82.5q-16 -45 -30.5 -79t-28.5 -81q-16 -29 -30.5 -59.5t-29.5 -61.5q29 0 58.5 -8t60.5 8q45 0 78 12.5t63 28.5q29 16 59.5 30.5t61.5 28.5q29 16 49.5 44t48.5 57q16 16 28.5 42.5t12.5 57.5q31 57 0 119q-16 31 -33.5 50.5 t-45.5 49.5q-31 16 -64 30.5t-78 29.5q-29 16 -69.5 30.5t-69.5 28.5q-31 0 -71 13.5t-70 29.5q-59 14 -131 16.5t-148 2.5q-16 0 -39.5 -2.5t-40.5 -16.5q-16 0 -28.5 -2t-12.5 -18h-20q-4 0 -12 -2q-12 -4 -27 -21q-16 0 -27.5 -11t-11.5 -28v21h18h-18h-23h23 q0 -14 -12 -19q-6 -2 -11 -2v-20h-20v-19q-14 -16 -7 -40.5t7 -41.5q16 -29 31.5 -46t29.5 -31v-62v21v18h-18v41q-16 0 -21 10q-2 4 -2 10v-20q0 -6 2 -10q4 -8 21 -8q0 -16 2 -28.5t16 -12.5q-31 14 -51 41.5t-49 58.5v18v41v21v39q4 4 10 12q4 6 7.5 13t3.5 16q0 10 8 26 q4 8 10 15h20q16 16 30.5 29.5t31.5 29.5h39q0 16 12 27.5t29 11.5q16 16 16 19t-16 3q-31 -16 -48.5 -28.5t-31.5 -12.5l-30.5 -30.5t-31.5 -28.5q31 29 63 56.5t79 43.5q31 14 62.5 16.5t78.5 2.5q45 16 91 26.5t106 -6.5q47 0 91 -12t91 -27q29 0 49.5 -3t50.5 -19 q16 0 32.5 -2t47.5 -17q14 0 39 -10t41 -10q29 -16 49.5 -29.5t50.5 -29.5q16 -16 40 -30.5t40 -31.5q31 -29 48.5 -59.5t31.5 -61.5zM262 1303h62q-31 31 -62 0zM324 82q16 0 18 2t2 16q-14 0 -18 -10q-2 -4 -2 -8z" />
<glyph unicode="Q" horiz-adv-x="1323" d="M776 -43h-22h22zM797 -43q4 0 10 2q12 4 12 18q0 -14 -12 -18q-6 -2 -10 -2zM797 -43h-21h21zM754 -43h22h-22zM500 49q0 -14 10 -18q4 -2 10 -2q-33 16 -50 31.5t-34 31.5q0 4 -2 10q-6 10 -18 11v20q16 -31 34.5 -49.5t49.5 -34.5zM393 154q14 0 21 -11q2 -6 2 -10z M1235 1128q16 -47 43 -96t41 -112q16 -47 19 -106.5t3 -123.5q16 -33 8 -63.5t-8 -63.5q0 -31 -11 -49t-11 -35v-20q-14 0 -16.5 -13.5t-2.5 -29.5l-22 -21q0 -16 -13.5 -41.5t-29.5 -42.5v23h22v20v-20h-22v-23v23v-23q0 -14 -9 -19t-9 -22q-6 0 -13 -2q-10 -4 -10 -18h-20 q-31 -63 -88.5 -110.5t-120.5 -78.5q-14 -4 -25 -12q-10 -6 -20.5 -14t-16.5 -17q0 16 8 21q4 2 11 2h22v20q31 0 48.5 15.5t33.5 48.5v-23q-31 -16 -59.5 -30.5t-44.5 -30.5q33 31 73.5 64.5t73.5 80.5h21q0 16 2 21.5t18 19.5q16 0 21.5 13.5t19.5 29.5q16 16 21.5 45 t21.5 60h23q0 16 2 28.5t16 12.5v43q0 16 11 31.5t11 31.5v62q-16 -14 -20 -29q-2 -8 -2 -14v-62q0 -4 -2 -12q-2 -12 -16 -29v-43q14 47 16 94.5t2 94.5q16 31 16 73.5t-16 73.5q-14 63 -41 114.5t-43 115.5q-61 125 -125 188q-47 31 -93 59.5t-95 44.5q-47 16 -93.5 8 t-93.5 -8q-47 -16 -94 -44.5t-94 -59.5q-31 -33 -60.5 -63.5t-46.5 -63.5q-61 -47 -98 -120t-68 -150q-16 -39 -22 -71t-9 -59.5t-5 -54t-11 -57.5v-104q0 -33 2 -52.5t19 -52.5q16 -31 16 -39t-16 39q16 -31 31.5 -62.5t31.5 -62.5q0 -16 12.5 -31.5t28.5 -31.5l31.5 -31.5 l32.5 -32.5q16 -16 31.5 -20t29.5 -21h23h-23q-14 0 -32.5 2t-49.5 19q-16 16 -41.5 31.5t-42.5 31.5q-33 31 -50 51.5t-34 51.5q-16 16 -18 21t-2 22l-23 22q0 14 -10 29.5t-10 32.5q-16 16 -18.5 31.5t-2.5 31.5t-10 30.5t-10 30.5q0 31 -5 54.5t-10.5 46t-7.5 46t7 54.5 q0 63 12 114.5t28 115.5q33 63 64 112t63 98q31 61 68 108.5t98 78.5q49 47 108.5 78.5t123.5 48.5q63 31 127.5 34t144.5 -14q125 -31 218.5 -115t156.5 -178zM1341 709q16 -14 8 -29.5t-8 -32.5v62zM1257 -420h21h-21zM1217 -440h-23h23zM1217 -440h18h-18zM1235 -463 q16 0 21.5 11.5t21.5 11.5l22 20l-22 -20q-16 0 -31.5 -13.5t-29.5 -29.5q-16 -16 -43 -28.5t-41 -12.5q-8 -8 -9.5 -6t2.5 8t11.5 12t13.5 6h23q16 16 29.5 20.5t13.5 20.5q14 0 16 -8t2 8zM1403 -356q0 16 3 18t19 2q-16 -16 -31.5 -21t-31.5 -22q6 4 14 10q17 13 27 13z M1151 -483q-14 -16 -40 -31.5t-42 -32.5h-20v-20h-43q-8 0 -12.5 -3t-10.5 -7.5t-15.5 -7.5t-23.5 -3h-63q-16 0 -21.5 10.5t-21.5 10.5h-41q-16 -16 -16.5 -18.5t16.5 -2.5q31 -16 62.5 -18t62.5 -2h-62q-16 0 -31.5 2t-31.5 18q-33 16 -52.5 31.5t-52.5 32.5 q-16 16 -31.5 30.5t-31.5 30.5t-28.5 34.5t-12.5 49.5q-16 47 -18.5 82t-2.5 66q-33 88 0 145q0 78 12.5 141.5t28.5 110.5q0 33 2 52.5t19 51.5q16 31 19 73t3 73v84v63q16 33 5 60.5t-27 44.5v22v-22q0 16 -10.5 21t-10.5 20h-41q-16 -14 -31.5 -19.5t-31.5 -21.5h-21 q16 0 20.5 13t20.5 28q4 6 13 14l13 13t17 16h41q16 0 29.5 -2t13.5 -19q16 0 20.5 -11t20.5 -11q0 -12 10 -17q4 -2 11 -2q16 -16 19 -32.5t3 -32.5q31 -63 46.5 -123t15.5 -107q0 -63 -2 -125.5t-19 -126.5q-16 -31 -21 -74.5t-20 -91.5q14 0 41 10.5t43 10.5 q45 33 82 56.5t84 70.5v-23q-16 0 -20 -10t-21 -10q0 -6 -2 -10q-4 -10 -20 -11q0 -14 -21 -18q-8 -2 -20 -2q-16 -16 -42 -29.5t-42 -13.5q-14 -14 -19 -8q-2 2 -2 8q-16 -16 -21 -18.5t-20 -2.5v-63q-16 -47 -19 -104.5t-3 -104.5q16 -47 33.5 -91t50.5 -77 q0 -16 13 -28.5t28 -12.5q16 0 19 -2t3 -18h21h-21h21h22h62h-21l21 -23l-21 23h21h20h21q33 16 63.5 20t63.5 21h41h-23h-18q-16 0 -21.5 -10.5t-21.5 -10.5q16 0 31.5 2.5t29.5 18.5zM776 -463q0 -14 10 -18q4 -2 11 -2q0 4 -2 10q-7 10 -19 10z" />
<glyph unicode="R" horiz-adv-x="1177" d="M276 92v19v-19zM260 74v-17v17q0 6 -2 12t-16 25v34q0 12 9 4t9 -22v-35v-18zM260 4v16v-16zM584 924v-107q-12 -14 -14.5 -26.5t-2.5 -26.5q-14 0 -16 -11.5t-2 -23.5q-14 -27 -18.5 -51.5t-16.5 -36.5q-14 -14 -18 -25.5t-19 -11.5q0 -12 -8 -25.5t-8 -27.5 q-14 -20 -33.5 -56t-39 -76t-36 -76t-22.5 -56l-19 -19v-16q-10 0 -14 -10q-2 -4 -2 -9v-18h-19h19v-16q0 -14 -9.5 -29.5t-9.5 -42.5h-16h16v35v-17l-16 -18v53v19q-6 4 -10 10q-8 12 -8 24h18l-18 19q4 0 8 2q10 4 10 14q-6 10 -10 17q-8 12 -8 2v-54v54v35 q0 14 -9.5 29.5t-9.5 41.5q14 27 31.5 67t37 83t40 84t39.5 67q0 12 9 16.5t9 18.5q14 12 26.5 27.5t26.5 42.5q0 14 13.5 25.5t40.5 11.5q6 6 13 12t11 10q6 6 10 12q14 14 14.5 16.5t-14.5 2.5q12 0 25 8l12 8q0 14 8.5 18.5t8.5 18.5v-18zM311 287q4 0 8 2q10 4 11 16z M195 905q14 0 18 -2t16 -14q-12 0 -14 2t-2 14h-18zM160 924q0 10 -10 16q-4 2 -9 2q4 0 9 -2q10 -6 10 -16zM160 924h16h-16zM176 905v19v-19zM141 905q27 -12 42.5 -14t29.5 -2q10 -12 23 -17q6 -2 12 -2h-19q-27 14 -52 26.5t-54 27.5q-27 14 -52.5 30.5t-52.5 57.5 q0 14 2.5 14t14.5 -14l12 -13l10 -10t15 -12q0 -6 2 -10q4 -8 14 -9q14 -12 26.5 -23t26.5 -11v-19zM408 836h-19q-14 12 -26.5 14t-26.5 2h18q12 0 27.5 -8t42.5 -8h-16zM1204 1030q12 -29 23.5 -62.5t11.5 -62.5q0 -78 -53 -160q-14 -27 -47 -50t-60 -38 q-27 -12 -52.5 -14t-53.5 -2q-41 12 -78 14t-64 2t-33.5 -2t33.5 -14q-41 12 -68.5 16.5t-53.5 18.5q27 -14 42 -36t27 -36q14 -12 27.5 -36.5t25.5 -51.5q4 -12 15.5 -48t25 -82t28.5 -97t29.5 -95t25 -77t14.5 -41q14 -53 25.5 -106.5t11.5 -106.5q8 0 14 -10q2 -4 2 -9 v-16v-18v-19q4 0 8 -2q10 -6 10 -14l-18 16v-16h18v-19q0 -14 9.5 -26.5t9.5 -26.5v-18v36l-19 -18h19v-18q-14 0 -18.5 11t-18.5 25q-12 0 -14 2.5t-2 14.5q0 10 -11 16q-4 2 -8 2v19l-18 16v19q-10 4 -19 6q-16 4 -16 -6q14 -14 24.5 -18.5t10.5 -16.5l-35 35v34 q-12 14 -32.5 27.5t-20.5 26.5q-12 41 -25.5 68.5t-28.5 56.5q0 12 -8 25t-8 28q0 4 -7 31.5t-19.5 67.5t-27 85t-27.5 85t-24.5 68.5t-15.5 32.5v35q0 27 -11 42.5t-24 27.5q-14 14 -16 29.5t-2 42.5q0 14 -9.5 26.5t-9.5 26.5q-12 0 -14 -2t-2 -17v19h-18h-17v18v35h17h18 q12 0 34.5 -9t35.5 -9h106q41 0 78 9t64 9q41 0 69.5 10.5t54.5 24.5q14 14 26.5 37.5t27.5 50.5q0 29 -2 54.5t-17 51.5q0 14 -8 26.5t-8 27.5q-14 14 -18.5 24.5t-18.5 10.5q-41 53 -102.5 93t-126.5 66q-66 27 -133.5 51.5t-133.5 36.5q-66 14 -132 25.5t-132 11.5 q-14 -14 -35.5 -16t-35.5 -2q-12 -12 -25 -17q-6 -2 -10 -2h-19v-16q-14 12 -18 6t-17 -6v-18q-14 -14 -24 -18.5t-10 -16.5v16q0 -4 -2 -8q-4 -8 -17 -8h19l-19 -19q0 -12 -2 -14t-16 -2v-19v-88q0 -14 11 -35.5t26 -35.5v-19l16 -16h-16q4 0 6 2q4 4 -6 14 q-14 14 -18.5 29.5t-18.5 42.5v-18q0 -12 7 -12.5t-7 12.5q14 -27 18 -42.5t19 -27.5q-14 27 -36 54.5t-36 68.5v18v19v16v37q14 0 16 2t2 14v19q0 12 2.5 25.5t14.5 27.5q0 -4 2 -6q4 -6 16 6q14 12 18.5 25.5t16.5 27.5q14 12 26.5 8t26.5 9q4 6 11 12q4 4 11 10t13 14 q-27 -14 -42 -18t-28 -18q-14 -12 -26 -25.5t-27 -28.5q14 14 26.5 27.5t26.5 26.5q12 14 28 25t42 11q29 12 56.5 16.5t68.5 18.5q41 0 82 9.5t94 9.5q94 -14 184.5 -38t169.5 -52q41 -12 71 -27.5t71 -42.5q41 -29 80 -56.5t80 -68.5q27 -27 42 -54.5t29 -68.5zM229 1331 h54q-12 -14 -25.5 -7t-28.5 7v0zM1006 -119q10 -12 6 -16q-2 -2 -6 -2v18zM1094 -367v17l18 -17h-18zM1094 -332v-18v18zM1075 -350q0 -10 8 -15q4 -2 11 -2v-18l-35 35q-14 14 -18.5 18t-18.5 17q0 10 8 6q4 -2 10 -6q14 0 9 -8.5t10 -8.5q0 -6 2 -10q4 -8 14 -8z M1128 -438v35v-17l19 -18h-19z" />
<glyph unicode="S" horiz-adv-x="1210" d="M377 676h-41h63h-22zM295 676v-23v23zM252 653q0 -12 -10 -16q-4 -2 -9 -2zM252 653h43h-43zM150 510h20l23 18q14 16 32.5 31.5t48.5 32.5l21 -21q31 16 52.5 40t51.5 24q16 0 30.5 -11.5t31.5 -11.5h-41q-47 0 -91 -15t-77 -46q-14 0 -29.5 -13.5t-29.5 -27.5 q-16 -16 -32 -34.5t-32 -49.5q-16 -16 -18 -6t-2 26q14 0 18 11q2 4 2 10q0 16 10.5 21.5t10.5 21.5zM711 551q16 0 16 -3t-16 -20q-16 33 -42 50.5t-42 33.5h-19v23q31 -16 48.5 -24.5t33.5 -39.5zM733 510q0 14 -3 16t-19 2q16 0 19 -2t3 -16zM1167 1339q-6 0 -10 2 q-8 4 -8 19q0 -14 8 -19q4 -2 10 -2zM1210 342q0 -16 -2 -31.5t-18 -31.5q0 -31 -11.5 -48.5t-11.5 -33.5q-14 -33 -39.5 -52.5t-42.5 -50.5q-47 -33 -104 -63.5t-104 -61.5q-63 -33 -122 -48t-106 -15q-125 -31 -250 0q-47 0 -80.5 12t-66.5 29q-14 0 -19.5 3t-21.5 19 q-6 0 -10 2q-8 4 -8 17h-23q-16 16 -30.5 21t-30.5 22v20q-31 16 -47.5 34.5t-16.5 49.5v-22h23v-19v19q-16 0 -19.5 3t-3.5 19v-22q0 16 -2 19t-18 3v19v22v21q0 12 -11 18q-6 2 -10 2q-16 78 9.5 153.5t72.5 139.5q6 4 14 8q6 4 13.5 7t15.5 3q4 4 12 11q16 12 29 12 q-14 0 -18 -12q-2 -6 -2 -11h-21l-20 -18q-16 -16 -32 -34.5t-32 -49.5h23v20q14 16 32.5 42t49.5 40q-31 -31 -56.5 -85t-25.5 -101v-20v-21v-41v-22v-21q0 -16 2 -18t16 -2q0 -16 13.5 -29.5t29.5 -13.5q-6 -6 -8 -11q-4 -8 8 -8l31.5 -31.5t32.5 -31.5q4 0 8 -2 q10 -6 10 -19l22 -20h62q-16 16 -42 28.5t-42 12.5q-14 16 -29.5 31.5l-31.5 31.5q33 -31 68.5 -49t96.5 -35q33 -16 66 -28.5t80 -12.5q123 0 250 62q61 16 110 44.5t97 59.5q33 31 50 49.5t33 34.5q16 14 19.5 19.5t3.5 21.5q4 0 8 2q10 4 10 19q-4 12 -12 22 q-6 10 -13 20.5t-16 20.5q0 31 -12 51.5t-28 50.5q-33 16 -50.5 42t-33.5 42q-16 31 -44 49.5t-59 32.5q-31 31 -75 63t-91 62q-16 16 -31.5 33.5t-31.5 50.5q-14 0 -19 10q-2 4 -2 11q-16 0 -20 10q-2 4 -2 10q-14 16 -19.5 31.5t-21.5 32.5q-16 31 -20.5 62.5t-20.5 62.5 q0 29 2 70.5t18 72.5q16 33 42 63.5t42 61.5q31 16 62.5 31.5t62.5 29.5q63 16 111.5 16.5t95.5 -16.5q4 -6 12 -10q16 -8 31 -8h19q33 -16 50 -19.5t33 -3.5q31 -16 60 -20t45 -21q8 0 15 -3t14 -7q8 -6 14 -10l18 -23v23v20v-20q16 -16 16.5 -42t-16.5 -42q0 -31 -2 -49.5 t-16 -32.5q0 -16 -3 -30.5t-20 -30.5v-23q-14 0 -18 -10q-2 -4 -2 -8v-23q-16 0 -18.5 -2t-2.5 -18v-41q0 -16 -10 -21.5t-10 -19.5h-41h-23q-16 14 -20 16t-20 2v23h-21v20v21v20v23v18v43q0 14 10.5 19.5t10.5 21.5q8 -8 6 -7t-2 3t7 -1t29 -18h-20l-20 23q0 12 10 16 q4 2 10 2v23h-20q0 16 -2.5 18t-18.5 2h-41h-22l-21 21h-63q-31 0 -48.5 -2t-33.5 -19q-47 -16 -65.5 -36.5t-18.5 -65.5q0 -16 3 -42t19 -42v-20q16 0 18.5 -2t2.5 -19q4 -6 12 -10q14 -10 29 -10q31 -47 78 -83t110 -83q14 -16 43 -34.5t59 -49.5q16 -16 42 -45t42 -60 t32 -62.5t32 -62.5q14 -31 29.5 -64.5t31.5 -80.5zM336 -74q16 -16 33.5 -18t50.5 -2q-16 0 -42 10t-42 10z" />
<glyph unicode="T" horiz-adv-x="868" d="M1403 1372h18h-18zM1386 1372h-18h18zM1368 1372h-20h20zM1386 1372h-18h18zM1368 1356q14 0 26.5 8t26.5 8h21q-6 0 -10 -2q-10 -4 -11 -14q-14 0 -35.5 -2t-37.5 -17q-27 0 -44.5 -10t-46.5 -10q-6 0 -4 3t9.5 7t16.5 7t15 3h19q14 0 24.5 2t10.5 17q16 0 18 -7t2 7z M1516 1391l-21 -19v19h55h-34zM1550 1391h17h-17zM1294 1356q-12 -14 -35.5 -18.5t-35.5 -20.5h-19h-20h-17q-14 0 -26.5 -10.5t-28.5 -24.5v18q-14 -14 -27.5 -16t-25.5 -2q0 -12 -10 -6q-6 2 -11 6q-6 0 -15 -5t-14 -12.5t-3 -12.5t14 -5q14 12 36.5 16.5t37.5 18.5 q-14 -14 -39 -18t-51 -17h-158q-8 -4 13.5 -6t59 0t83 5t83 6t59 5.5t13.5 2.5q-35 -6 -79 -9.5t-88 -5.5t-85 -2h-67h-21v-18q0 -14 3 -37t5 -46.5t1 -46t-9 -36.5q-20 -41 -28.5 -82t-13.5 -82l-10 -82t-20 -82q0 -41 -12 -82l-24 -82q0 -82 -11.5 -153.5t-23.5 -155.5 v-53q-6 0 -10 -2q-10 -4 -11 -19v-16v-18v-19h-18v-18v18h18v-18q0 -12 -10 -17q-4 -2 -8 -2v-108l-17 -19v19q12 14 12.5 24t-12.5 10v-34h-18q0 14 -2 29.5t-18 43.5v17q14 0 18 8q2 4 2 10q0 14 -10 18.5t-10 18.5t10 9t10 10q-16 0 -18 11t-2 23q4 0 10 2q10 4 10 19 q-10 8 -18 14q-8 4 -13.5 7t-5.5 -3q0 -14 8.5 -30.5t8.5 -42.5q-12 14 -14.5 36.5t-2.5 36.5q0 12 8.5 27.5t8.5 44.5q0 14 -8.5 38.5t-8.5 53.5q12 94 8 181t9 184q16 14 18 26.5t2 26.5q6 33 3 67.5t-5 65.5t4 57.5t33 44.5q20 20 28.5 43t8.5 38.5t-5 20.5t-14 -9 q14 20 16.5 37.5t4.5 30.5t8 24.5t27 17.5q-27 0 -54.5 8.5t-54.5 8.5q-16 14 -37.5 16t-36.5 2q-41 16 -79.5 20.5t-65.5 16.5q-41 0 -70.5 2t-58.5 16q-27 14 -51.5 16.5t-38.5 2.5q-14 -14 -20.5 -16.5t20.5 -2.5q-41 0 -59.5 -9t-30.5 -9q-29 -12 -44.5 -16.5 t-29.5 -20.5q0 16 9 20.5t9 16.5q12 14 38 35.5t52 38.5q29 14 55.5 24t55.5 10q55 14 100 16.5t99 2.5q55 0 108.5 -9.5t93.5 -9.5q53 -12 99.5 -23t99.5 -11q27 0 65 -3.5t77.5 -5.5t77.5 -1t65 10q14 0 -2.5 -4.5t-47 -9.5t-68.5 -12t-69.5 -12t-48 -9.5t-2.5 -4.5h140 h34h37h37h-18h18h21h-21h21h16q41 14 70.5 16.5t58.5 2.5h35h-19h-16h-39v-19q14 0 14 9.5t-14 9.5q14 -14 28.5 -7t26.5 7zM653 240q0 14 2 16t19 2q0 -6 -2 -10q-5 -8 -19 -8zM969 1317q0 8 -16.5 11t-36 3t-36 -3t-16.5 -11h105zM635 -125v21v-21zM635 -70v-18v18z M580 -70q0 -14 10 -26.5t10 -28.5q-16 0 -18 -2t-2 -16v18q0 16 -2.5 30.5t-14.5 43.5v71q0 14 10.5 -3t26.5 -31l-20 -19v-37zM618 -215v-18h-18q0 14 2 18t16 16v21v-37z" />
<glyph unicode="U" horiz-adv-x="1064" d="M174 1442q0 4 2 10q4 10 21 10zM152 1417v-22v22zM152 1376v-24v24zM174 1395l-22 -19v19h22zM197 1155q0 -16 -3.5 -11t-8.5 19.5t-8 31.5t-3 26q0 8 7 12t14.5 8t14.5 9t7 14v88h25q0 33 -9.5 63.5t9.5 46.5q4 6 8 15q4 6 7 13t3 15q0 -16 -2 -21t-16 -22v-133 q-18 -49 -23.5 -87t-21.5 -87zM260 1616q0 16 3 44t22 46v20h22q-16 -35 -22 -52t-25 -36v-22zM307 1726v23v-23zM899 1155v21v-21zM1165 1395q16 -14 26.5 -37t-5.5 -70q-16 -35 -32.5 -70.5t-33.5 -82.5q-16 -51 -32.5 -87t-32.5 -71q-35 -47 -50.5 -86t-15.5 -88 q-18 -49 -23 -99.5t-20 -99.5q0 -49 -15.5 -99t-31.5 -99q0 -14 -9 -42t-9 -45q-18 0 -21.5 -3t-3.5 -21q0 -33 9 -65.5t-9 -63.5v-131q0 -53 12.5 -102.5t12.5 -102.5v-39v-24v-19v-24v24v-24q0 -16 2 -18.5t16 -2.5v-65v-25v25v20h-18h18q-14 -16 -14 -18t14 -2l-18 -25 q0 18 -15.5 31.5t-31.5 13.5v23v22q-6 0 -11 2q-10 4 -10 19q-6 -2 -12 2q-12 4 -13 22q6 0 13 2q12 4 12 17h-45q0 -14 10 -19.5t10 -23.5q-6 6 -10 14q-10 14 -10 29v47q-16 12 -32.5 20t-33.5 45q0 49 -21.5 101.5t-21.5 119.5q0 -16 -3 -19t-21 -3q-16 -18 -45 -30.5 t-62 -12.5q-18 -18 -48.5 -21.5t-61.5 -3.5h-45q-16 0 -33.5 3t-32.5 22q-16 0 -43.5 12t-46.5 31q-33 31 -64.5 67.5t-66.5 85.5q-16 33 -41 79t-25 96q-16 35 -19 80.5t-3 93.5q0 35 3 67.5t19 67.5v43v22q16 0 18.5 13.5t2.5 29.5v25v65v-24v-21v21q4 -2 10 2q12 4 12 22 h-22q16 16 19 21.5t3 23.5v19q16 68 33 123t35 121l43 43v-23h-22v-20q-16 -16 -18.5 -36t-2.5 -50v20q16 16 21.5 43t21.5 43q-16 -33 -19 -78t-3 -96v-27v-16q-16 -16 -18.5 -22.5t-2.5 -24.5q-18 -14 -9 -44t9 -65h-25q0 -35 9.5 -53t-9.5 -35q-6 -6 -10 -14 q-10 -14 -10 -29q8 -8 16.5 -22.5t14.5 -24.5t10 -12t4 14v66v90v-90v-88q0 -8 -3 -23.5t-6 -34t-2 -39t11 -34.5q0 -16 7 -36t17.5 -40.5t21.5 -41t20 -34.5q16 -51 35.5 -87t52.5 -69q16 -18 31.5 -24t33.5 -23h23h20h25h20h21q16 16 33.5 22.5t35.5 24.5q33 16 61.5 45 t45.5 64q18 16 30.5 33.5t12.5 32.5q18 16 21 22t3 25q0 4 3 8q4 10 20 10q16 51 18 114.5t2 129.5q0 33 11.5 65.5t11.5 67.5q16 31 32.5 63.5t33.5 65.5q35 35 53 79t35 79q0 31 -3.5 44t-19.5 -3q35 49 53.5 85.5t36.5 67.5q33 35 54.5 50.5t54.5 15.5q16 0 33.5 8 t33.5 -8zM-2 561q16 14 19 31.5t3 34.5q-16 -16 -19 -34t-3 -32zM881 -170l-4 -8q-4 -4 -7.5 -6t-13.5 -2zM946 -408h19h-19zM946 -408v21v-21zM946 -408v21v-21zM881 -430h18v-23q0 16 -12.5 22.5t-30.5 22.5q-6 4 -12 13q-10 14 -10 33q6 -2 14 -5q6 -4 14 -7t19 -13h-25 q0 -14 12 -19q6 -2 13 -2v-22zM989 -496h-24v23q4 0 8 -2q2 -2 2 -7t-10 -14h24zM965 -496h24h-24z" />
<glyph unicode="V" horiz-adv-x="749" d="M39 1364h-19h19zM39 1323v23v-23zM121 1364q-16 0 -27 10q-8 4 -12 10v21v-21q14 0 18 -12t21 -26q14 -16 16 -31t2 -31q8 -6 6 -7t-7 3t-11 10t-6 15q-16 0 -8 2t8 16q-6 0 -10 2q-10 4 -11 21q4 0 11 2q10 4 10 16zM20 1444q0 6 3 8q4 4 16 -8h-19q-6 6 -8 14 q-4 14 8 27h-20h20v-41zM20 1485v20v-20zM965 1444l18 22zM965 1444h-21h21zM944 1425v-20v20zM944 1444q0 -12 10 -17q4 -2 11 -2h-21v19zM1004 1384q0 16 2 28.5t16 12.5l20 19q-6 0 -10 -2q-10 -4 -10 -17q0 -16 -9 -30.5t-9 -30.5q-16 -14 -27.5 -32.5t-11.5 -47.5 q-8 -8 -12.5 -3t-6.5 15t-2 27q0 16 10.5 11t10.5 12q14 0 16 11t2 27q4 -6 10 -8q11 -6 11 8zM1104 1546q-16 -16 -20.5 -19t-18.5 -3v-19h-23q16 14 21.5 27.5t19.5 13.5h21zM901 1346q6 4 14 8q6 4 13.5 7t15.5 3v-18q-16 0 -18 7t-2 -7q-16 0 -19.5 -13.5t-3.5 -27.5v18 q16 0 21.5 11.5t21.5 11.5q-16 -16 -21 -41t-22 -39v-23q-12 0 -16 -10q-2 -4 -2 -8q-8 0 -9.5 -7.5t-1.5 -16.5t-1 -19.5t-9 -18.5q-6 6 -10 8q-8 4 -8 -8v-39h-21v-41q16 16 20.5 30.5t18.5 31.5q0 -16 -11 -33.5t-28 -48.5q-4 -6 -12 -12q-6 -6 -13 -12.5t-16 -14.5 q0 -29 -2 -60.5t-18 -60.5q-29 -45 -46.5 -99t-31.5 -102q-16 -45 -33.5 -93t-48.5 -107q-16 -14 -18 -29.5t-2 -30.5q-23 -39 -30 -78.5t-14.5 -75.5t-22.5 -64.5t-54 -43.5q-23 -14 -34 -37.5t-13 -42t5 -26.5t23 6q-23 -23 -34 -42.5t-20 -35.5t-22.5 -31.5t-43.5 -29.5 q-23 -6 -43 0q-16 4 -33 17t-25 44q0 14 2 37.5t19 40.5q-16 31 -26.5 70.5t5.5 68.5q8 45 5 87t-10 82t-18.5 78t-19.5 75v182q-14 74 -28.5 141.5t-28.5 159.5v39v20v21l-21 20v21h21v18v-18h-21v18v21q0 14 -9 39.5t-9 42.5v39h18l-18 -21q0 -14 2 -19t16 -22v62 q0 -16 12.5 -39t26.5 -23v-18h21q-16 -16 -18.5 -21.5t-2.5 -19.5l39 -21q-4 -6 -6 -10q-4 -8 6 -8q0 -6 2 -10q4 -10 21 -11l-23 -20q16 -16 29.5 -26.5t13.5 5.5t-10 30.5t-10 31.5q0 -16 10 -30.5t10 -31.5q0 -16 2 -29.5t19 -29.5q0 -16 19.5 -41t19.5 -41q6 -45 20 -90 t27.5 -90t23.5 -90t10 -90q0 -14 9.5 -29.5t9.5 -30.5v-61q16 31 27.5 58.5t11.5 43.5q31 45 58.5 92t43.5 109q45 92 90 169t90 150q16 16 20.5 30.5t18.5 31.5q4 0 11 2q10 4 10 16q14 0 18 11q2 4 2 10q16 14 18.5 19t2.5 22v-23q0 4 2 10q4 12 18 13h-20l20 18 q16 0 16.5 3t-16.5 20q29 14 46.5 39t31.5 41zM139 1044q-14 -16 -14 -20t14 -20v40zM702 1083q16 0 20.5 2t18.5 19q-8 0 -14 -3t-12 -7q-9 -7 -13 -11z" />
<glyph unicode="W" horiz-adv-x="1404" d="M655 504l-20 -23v23h20zM614 461v20v-20zM614 461q-6 0 -10 -2q-10 -4 -10 -17q0 14 2 16.5t18 2.5zM635 461h-21h21zM571 397q-16 -31 -29.5 -51t-29.5 -53v-19q-18 0 -23.5 -10t-21.5 -10q0 -14 -2 -25q-4 -25 -19 -39q0 6 -2 9q-6 4 -18 -9q0 -16 -3 -20t-20 -20 q-6 0 -10 -3q-10 -4 -10 -16q0 -16 -2 -21.5t-16 -21.5q0 -6 2 -8t5 -2t11 10v21h20v22q16 14 21.5 26.5t21.5 12.5q-16 0 -21 -12.5t-22 -26.5v-22q-14 0 -18 -11q-2 -6 -2 -10q-29 -35 -59 -65q-16 -16 -42 -16.5t-40 -14.5q-16 -16 -30.5 -29.5t-31.5 -13.5h-20 q0 -12 -13 -8q-6 2 -10 8h-22l-21 20l-20 23l-2 -10v20q-14 16 -16.5 31.5t-2.5 32.5l-22 22v21v61q-14 0 -19 10q-2 4 -2 10v21v125q-16 66 -6 127t27 125q16 14 19 38.5t3 41.5q14 47 18.5 95t20.5 95q0 23 4 55.5t12.5 65.5t20.5 60.5t29 43.5q16 33 21 62t22 43 q0 33 -2 36t-19 -14q16 31 21.5 59.5t21.5 45.5q0 14 2 28.5t17 30.5v23v-43q8 -23 12 -55.5t6 -67.5t2 -69v-58q-8 -31 -12 -72t-6 -83t-3 -83t-1 -71q-14 -63 -19.5 -115.5t-21.5 -114.5q0 -63 -10.5 -125.5t-10.5 -126.5v-102v-21v-20v-39q16 0 18.5 -13.5t2.5 -29.5v-22 h22q14 16 28.5 32.5t31.5 32.5l12 12q6 4 13 11.5t18 15.5q4 0 10 2q10 4 10 18q16 0 18.5 2.5t2.5 18.5h18q0 16 10 21.5t10 21.5v-21h23h-23v21l23 20h20q16 29 46 50.5t59 52.5l20 20h-20v-20q-14 0 -18.5 -12.5t-20.5 -28.5h20v20q14 0 18.5 12.5t20.5 28.5zM281 109 q4 0 10 2q10 4 10 20q-16 0 -18 -3t-2 -19zM1593 1376v19v-19zM1573 1335v21v-21zM1573 1356h20h-20zM1634 1315q6 8 7 18t-1 21q-2 10 -6 22q14 14 16.5 19.5t2.5 23.5v-24q0 -29 -9.5 -57.5t-9.5 -45.5q0 -31 -12 -50t-29 -52v43q0 12 11 16q4 2 10 2v64h20zM1673 1563 q0 -14 -2 -28.5t-18 -31.5q0 16 2 28.5t18 12.5v19zM1696 1563h-23h23zM1550 1233q4 4 11 12q12 12 12 27v-21h-23v-18q-16 0 -18 -13.5t-2 -29.5h20q0 16 -2 16t-18 -16q16 16 29.5 31.5t13.5 29.5q0 -29 -3 -57.5t-20 -44.5v-21v-22q-14 0 -18 -10q-2 -4 -2 -9 q-8 -8 -9 -16t-1 -18.5t-1 -22.5t-10 -29q-18 -16 -22 -28q-4 -8 -2 -12q0 -16 -10 -21q-4 -2 -9 -2v-59q14 31 28.5 58.5t14.5 43.5q0 -16 -14 -44l-29 -58q0 -16 -12 -35t-29 -49q-16 -29 -21 -65t-22 -83q-39 -61 -74.5 -123.5t-74.5 -123t-83 -119t-99 -111.5 q0 -14 -13 -27q-6 -8 -10 -12q-14 -16 -16 -21.5t-2 -21.5q-16 0 -20.5 -11t-20.5 -11q-16 -16 -35 -32t-49 -32h-105q-47 0 -88 28.5t-57 78.5q-16 31 -28.5 61.5t-12.5 62.5v21q0 4 2 10q4 10 18 10v39q14 8 23.5 22.5t12.5 31t4 31t1 24.5v39q-16 -14 -20 -18.5 t-21 -20.5q-16 -18 -21 -36.5t-22 -49.5q-8 -8 -9 -6t1 10t5 18.5t3 18.5q4 0 11 2q12 4 12 18q16 0 18 14.5t2 30.5h21v19v-19q14 45 20.5 69t22.5 54q0 16 11 30.5t28 31.5q8 0 20.5 14t25.5 30.5t26.5 28t21.5 2.5q8 0 14 -15t10.5 -37.5t7.5 -46t3 -38.5v-104 q-18 -29 -21.5 -61.5t-3.5 -63.5q-16 -16 -18 -31.5t-2 -30.5v-41q4 -6 12 -12q14 -10 33 -10l18 22l21 21l20 20q47 47 93 95.5t94 111.5q66 94 127 199.5t122 198.5q16 16 20.5 30.5t20.5 28.5q0 16 3.5 21.5t19.5 21.5q14 0 18 10q2 4 2 10v21q4 6 11 14q4 6 7 13.5 t3 15.5v-21h20v21v-21q-16 0 -18 2.5t-2 18.5l20 22q10 0 7 9q-2 4 -7 10q33 33 50.5 63.5t33.5 63.5zM1341 858q16 16 18.5 20.5t2.5 20.5q-6 -4 -10 -12q-11 -15 -11 -29z" />
<glyph unicode="X" horiz-adv-x="923" d="M1180 -446v-21v21zM1161 -426v18v-18zM1141 -389v-19v19zM1141 -408h20h-20zM1161 -426v18v-18zM1122 -426q14 -16 28.5 -20.5t29.5 -20.5v-20v20q-14 16 -39 30.5t-41 28.5q-14 14 -27.5 33t-30.5 47q-8 6 -6 7.5t8.5 -3t12.5 -11.5t6 -15q12 0 16 -8q2 -4 2 -9 q14 -16 19.5 -28.5t21.5 -12.5v-18zM1280 -604q0 14 -13.5 28.5t-29.5 30.5q16 -16 21.5 -20t21.5 -21v-18zM1296 -604h-16h16zM1081 -350q-14 16 -38.5 33.5t-41.5 48.5q-12 0 -16 8q-2 4 -2 8l-18 23q0 8 -6.5 15t-14.5 11q-8 6 -20 10q-8 8 -8.5 13.5t2.5 7.5q2 2 6 2 q-14 12 -26.5 17.5t-12.5 21.5q-14 0 -9 9t-10 9q-8 6 -17 13.5t-17.5 11.5t-10.5 3t4 -9q16 -14 34 -30.5t46 -45.5q-29 12 -46 36.5t-34 39.5q-14 16 -28.5 40.5t-28.5 39.5q-8 14 -21.5 26.5t-29 25.5t-28.5 28.5t-19 37.5q-47 59 -91 122t-87 134q-31 -59 -65 -110 t-91 -68q-31 -6 -53.5 -24.5t-33.5 -36t-10 -24.5t15 7q-29 -23 -43 -43t-26.5 -35.5t-31 -21.5t-55.5 0q-27 2 -47 10q-16 8 -28.5 23.5t-4.5 46.5q31 45 70 96t70 84q72 57 134 128t120 145q-14 16 -16.5 20t-2.5 18q-14 31 -27.5 49.5t-13.5 51.5q-12 41 -36.5 85 t-39.5 91q-31 29 -46 71t-15 85q0 31 -2 60.5t-16 57.5q-14 16 -16.5 22.5t-2.5 -22.5q0 45 -10 66.5t-10 52.5q-16 14 -20.5 30.5t-20.5 47.5l12 -12l29 -29q14 -14 34.5 -37.5t41 -50.5t38 -55.5t23.5 -51.5q14 -29 29.5 -59.5t27.5 -58.5q16 -14 30.5 -41t29.5 -58 q29 -43 59.5 -100t60.5 -115q12 29 37 49.5t39 49.5q74 74 148.5 156.5t148.5 156.5l13 12q4 6 11 12.5t15 14.5l21 20q14 0 18 11.5t18 11.5v16l21 21v-21q0 16 2 18.5t18 2.5h-20l20 18h21v21q14 16 38.5 41.5t39.5 56.5h39h-19v-18q-16 0 -20 -11.5t-19 -11.5l19 -18v18 q16 0 20 13.5t19 27.5q-14 -31 -18.5 -50.5t-20.5 -47.5v-21h-19l-22 -18q-14 0 -16.5 -21.5t-2.5 -38.5q-6 6 -10 9q-8 4 -8 -9q0 -16 -2 -20t-19 -19q-6 0 -10 -2q-10 -4 -10 -18q-8 0 -12 -9t-4 -18.5t4 -14.5t12 3q16 29 20.5 46.5t20.5 31.5q0 -14 -12.5 -38t-28.5 -40 l-29.5 -29.5t-27.5 -29.5q-16 -29 -30.5 -58.5t-29.5 -58.5q-45 -45 -79.5 -93t-68.5 -94.5t-69 -89.5t-80 -79q0 -14 13.5 -38t27.5 -40q43 -104 100.5 -195.5t116.5 -195.5q14 -16 18.5 -30.5t20.5 -29.5q0 -14 8 -26q4 -8 11 -13v-22l20 -19q16 -16 19 -26q2 -8 2 -15 v-16v16l18 -16v-23h18q16 -45 34 -75.5t46 -59.5q4 -6 9 -14q4 -6 7 -12t3 -13q0 8 -10 15q-4 2 -9 2v22q0 14 -11 18.5t-28 18.5q16 -14 18.5 -14t2.5 14q0 -14 9 -28.5t9 -30.5zM924 1067q-14 0 -16.5 -2t-2.5 -16q4 0 8 2q11 4 11 16zM866 -14v41v-41zM1237 1421h-16 l16 21v-21zM1198 1421v-18v18zM1198 1403q0 -16 -2 -19.5t-16 -3.5zM1221 1403h-23h23zM1260 1343q0 14 2 37t18 23l16 18l-16 -18q-16 -16 -21.5 -33.5t-21.5 -46.5q-12 -14 -19.5 -31.5t-37.5 -46.5v60h41q0 14 2 26t14 12q0 10 10 7q7 -3 13 -7zM1358 1540 q-16 -16 -21.5 -27.5t-17.5 -11.5h-23q16 0 21.5 8.5t17.5 8.5v22h23z" />
<glyph unicode="Y" horiz-adv-x="436" d="M836 1509h-17l17 15v-15zM819 1493q0 -4 -2 -8q-4 -8 -14 -8q10 0 14 8q2 4 2 8zM836 1477q0 12 2 22t14 10q0 10 2 14.5t12 18.5l-14 -18q0 -23 -8 -37t-8 -25q-12 -23 -16.5 -39t-16.5 -39q-12 -12 -12 2.5t12 28.5q4 0 8 2q8 4 8 15v30q12 10 14.5 7.5t2.5 7.5z M897 1636q0 -12 -7 -24.5t-7 -24.5h-17l16.5 16.5t14.5 16.5v16zM897 1649v-13v13zM803 1432q-12 -27 -21.5 -47.5t-9.5 -32.5v-17l-14 -14l-17 -14q-12 -12 -8 -25.5t-8 -24.5q-12 -12 -14 -24t-2 -23h-15q-6 -6 -9 -16t-3 -19.5t3 -13.5t9 2q10 25 14.5 40.5t16.5 37.5 q-12 -23 -16 -38t-15 -40q-12 -14 -24.5 -24.5t-24.5 -22.5q-10 -25 -22.5 -55.5t-22.5 -54.5q-25 -25 -41 -40.5t-39 -37.5q0 -12 -9 -24.5t-22 -22.5q-12 0 -16 -10.5t-16 -22.5q-10 -10 -30.5 -22.5t-33.5 -22.5q-10 -12 -31.5 -16.5t-44.5 -14.5v-18q0 -12 -9 -23.5 t-9 -21.5v-62q0 -12 -2 -36.5t-7 -51.5t-10.5 -50.5t-11.5 -35.5q-10 -23 -14 -49.5t-14 -61.5q-6 -23 -10.5 -57.5t-8.5 -72t-8 -72.5t-10 -60v-30v-15q-12 0 -14.5 -2t-2.5 -14v-16v-17v-12v-66l-14 -16v16h14v31l-14 -16h14q-8 0 -12 -9q-2 -4 -2 -6q0 10 -2 22.5 t-14 24.5v19q0 10 -8.5 13t-8.5 16h17q0 12 -8.5 16t-8.5 16q4 0 8 2q8 4 9 13q-14 0 -23 6q-6 4 -10 8q0 -23 8 -28t8 -17q0 12 -8 23.5t-8 21.5v35q0 6 -2 24.5t-3 41t-3 43t-2 26.5q0 57 -2 115.5t32 117.5q0 14 2 25.5t15 24.5q0 6 2 26.5t7 45t11 48t13 35.5 q0 12 10 30.5t35 31.5q4 4 8 10q8 12 8 22h-16h-17q0 12 -2 14.5t-14 2.5q-23 10 -35 29.5t-12 31.5l-31 31q0 10 -8 23q-4 6 -8 10q-10 35 -30 69.5t-34 71.5q-12 35 -14 71t-2 70q12 23 6 44.5t-6 35.5q0 23 -7.5 23t-7.5 -23v94q-10 10 -12 24.5t-2 39.5q0 -12 7 -16.5 t7 -16.5q12 -12 25.5 -30.5t28 -41t24.5 -45t17 -41.5q12 -47 25.5 -92t37.5 -82q27 -68 80 -139l14 -16l15 -17h16h33q4 4 10 9q12 8 20 8q0 12 10.5 16t20.5 14q0 10 10.5 14.5t22.5 16.5q14 12 26.5 32.5t36.5 33.5q23 23 48.5 56.5t62.5 68.5q10 12 14 16t17 14 q10 10 12 14.5t2 16.5h17q0 4 2 8q4 8 14 8q0 10 8 23q4 6 8 10v-18v18h15h-15l15 17l16 14q25 47 47 94q2 4 8 8q12 8 23 9h-17v-17q-10 -14 -14 -17t-14 -14h14q10 10 12 22.5t2 25.5h17zM203 100q-12 0 -14.5 -2t-2.5 -14zM614 1180q-4 0 -8 -2q-6 -4 -6 -15zM186 -119 v-14v14zM186 -102v-17v17zM172 -102q0 -12 5 -21.5t-5 -9.5v-19v19v31q-12 10 -14 22t-2 23q0 10 8 -2l8 -13q-4 -4 -6 -8q-4 -8 6 -8v-14zM186 -197v-16v31v-15z" />
<glyph unicode="Z" horiz-adv-x="1337" d="M1438 1114h18h-18zM1438 1114h-17h17zM1421 1114h-20h20zM1438 1114h-17h17zM1552 1135q16 0 20.5 3t18.5 19l-18 -22h-37h16zM1591 1157h19h-19zM37 4h-19h19zM74 39v-16v16zM74 23h-19h19zM-61 -57q-14 0 -14.5 3t14.5 19q-14 -16 -18.5 -19t-18.5 -3q0 -6 -2 -11 q-4 -8 -17 -8q14 14 28 16.5t28 2.5zM1638 -14h-18h18zM1602 -14h-21h21zM1565 -14h16h-16zM1602 -14h-21h21zM1638 -35l19 21q0 -6 -2 -11q-4 -10 -17 -10h-36q-16 0 -20.5 -2t-16.5 -14h-62h-18h-39q-6 0 -2 2t14 6t27 8q14 0 18 -8t19 -8q16 0 21 8t22 8h16h39h18z M1792 27q-14 0 -18.5 -11.5t-20.5 -11.5h-16h-21h37q4 0 10 2q10 4 11 21h18zM1503 -35h-57h-37h-20h-17q-16 0 -21 10.5t-20 10.5h-57q-16 0 -28.5 2t-28.5 16l-21 23h-18.5t-21.5 -2t-10 -7.5t13 -13.5q8 0 15.5 -3t11.5 -7q6 -4 10 -8h57h-57q-12 0 -25 8q-8 4 -12 10 q-14 0 -9 -6t14.5 -11t15.5 -7.5t-9 4.5q-14 0 -29.5 10t-31.5 10q-14 0 -29.5 9.5t-44.5 9.5q-59 41 -106 72.5t-105 60.5q-16 14 -39.5 26.5t-37.5 12.5q-29 12 -47.5 14t-47.5 2h-80q-14 0 -36.5 -2t-38.5 -14q-29 0 -46.5 -2.5t-31.5 -18.5q-43 0 -84 -9t-70 -9h-57 q-14 -16 -31.5 -33t-46.5 -45h-18q12 0 16 10q2 4 2 10q16 0 21.5 2t17.5 17h-16q-16 -14 -21.5 -18.5t-19.5 -20.5q0 14 8 18q4 2 10 2q-14 0 -27.5 -12t-29.5 -27h-19v-20q-14 0 -18 -8t-19 -8v-19v19v-19h-18l18 19q14 0 16.5 10t2.5 26q14 14 28.5 41t30.5 56 q27 29 52.5 45t41.5 32q14 14 30 18.5t28 18.5q12 0 16 9q2 4 2 10q0 8 3 9t7.5 1t7.5 1t3 9q14 16 16 34.5t2 6.5q-29 -31 -36 -48t-21 -32q14 14 21 39t36 41q0 12 22.5 26.5t34.5 29.5q16 29 22.5 58.5t35.5 57.5q47 41 89 84t85 88q57 43 103 83t106 69q16 0 39.5 12 t40.5 29q14 0 29.5 11t43.5 26q16 14 33 18t47 19q14 16 27.5 20t28.5 18h79q29 0 53.5 13.5t41.5 25.5q16 0 24 10.5t-4 10.5v-21h-20h-39l-13 -8q-16 -8 -26 -8q0 4 -2 6q-4 4 -15 -6h-41q-6 4 -10 6q-10 4 -10 -6q-6 0 -15.5 -3t-16.5 -8t-9 -8.5t4 -3.5q29 0 48.5 3.5 t49.5 19.5q-31 -16 -50 -19.5t-48 -3.5q-14 0 -30.5 11.5t-47.5 11.5h-57h-55q-119 41 -216.5 79t-168.5 111q-29 0 -46.5 10.5t-31.5 26.5l-21 11q-10 4 -19 7t-18 3l-16 18h-41q-18 14 -26 17q-8 2 -13 2l-18 20h-17q-16 14 -21 7t-20 -7l-20 -20v-19v-39v-37 q0 -16 2 -29.5t18 -25.5q-16 0 -20 8.5t-16 8.5q0 14 -20.5 39.5t-20.5 56.5v76q0 14 12 26t29 12q12 16 26.5 27.5t28.5 11.5q16 14 29.5 16.5t27.5 2.5q45 0 66.5 -9.5t50.5 -9.5q41 -14 85 -31.5t87 -45.5q43 -29 86 -48.5t84 -48.5q76 -57 149.5 -91t161.5 -64h37h19 q4 0 8 -2q10 -6 10 -15h20h-20h20h23h35h-17h17v-18v18h20h19q29 0 57.5 2t58.5 15l17 -17h-17h-40h20h37q-12 0 -26.5 -9t-30.5 -9q31 0 46 9t31 9t30.5 8.5t27.5 8.5h18h-18v-17q0 12 12 14.5t29 2.5q0 4 2 10q4 10 14 10l-16 -20q-16 0 -30.5 -2t-27.5 -15 q-16 -14 -40.5 -31.5t-37.5 -46.5q-31 -14 -56 -28.5t-42 -28.5q-29 -14 -47 -27.5t-45 -27.5q-16 -16 -41 -30.5t-39 -27.5q-41 -31 -86 -59.5t-86 -56.5q-43 -29 -96 -60.5t-96 -74.5q-43 -29 -80 -61t-73 -63.5t-74 -63.5t-81 -60v-21q0 16 2.5 18.5t16.5 2.5t41.5 10 t56.5 10q29 12 56.5 14.5t56.5 2.5q45 0 74.5 -2.5t60.5 -14.5q45 0 74.5 -15.5t60.5 -45.5l172 -115q20 -14 25.5 -19t7.5 -7.5l6 -7.5t27 -19q16 -16 30.5 -20.5t26.5 -16.5q4 0 10 -2q10 -6 11 -16h20l16 -21h21q4 0 12 -2q12 -2 29 -16h-21v18v-18h21h-21h21h16 q10 -14 17 -9q2 2 2 9q0 -16 13 -19.5t26 -3.5h20q16 -14 38.5 -16t37.5 -2h18l19 -21h-19v21h-18h-55h16q16 0 29.5 -10.5t27.5 -10.5zM1036 1094q4 0 8 -2q10 -6 11 -15zM401 330l-18 -21q0 14 8 19q4 2 10 2zM1120 121q14 -16 18.5 -18.5t20.5 -2.5q-16 0 -20.5 10.5 t-18.5 10.5z" />
<glyph unicode="a" horiz-adv-x="854" d="M958 188q0 -14 -12 -18q-6 -2 -10 -2zM854 147l20 21q0 -6 -2 -10q-4 -11 -18 -11zM874 168h23h-23zM897 147v21v-21zM897 125h-23q-16 -14 -31.5 -16.5t-29.5 -2.5q-4 4 -12 7q-6 2 -14.5 1t-16.5 -8h-20h-19h62h61q33 14 60.5 30t43.5 32h41q-16 0 -20 -2t-21 -19 q-16 0 -31.5 -11t-29.5 -11zM1122 274h23q-16 -16 -30.5 -29.5t-31.5 -13.5h-22q16 0 31.5 10.5t29.5 10.5v22zM793 125q-33 0 -64 3t-61 19h-21l-20 21q-16 16 -21.5 29.5t-21.5 13.5q0 16 -10.5 20.5t-10.5 20.5q-37 -33 -61 -64q-33 -31 -63.5 -59.5t-63.5 -44.5l-21 -21 h-18q0 -14 -3 -16t-20 -2h-20v-22h-19q-16 -16 -42.5 -18.5t-43.5 -2.5h-41q0 14 -12 18q-6 2 -10 3q-12 0 -16 10q-2 6 -3 12q-14 0 -30 8q-8 4 -13 10q-14 16 -19 29.5t-21 13.5q0 31 -10.5 51.5t-10.5 53.5v63v19v20v23q0 14 10.5 31.5t10.5 50.5q16 31 30.5 71.5 t30.5 73.5q47 63 104.5 94t104.5 31q33 0 74 10.5t71 10.5l21 22q16 0 40.5 -3t41.5 -19v22l209 -22q0 -31 -2.5 -62t-16.5 -63q-16 -94 -58 -162t-89 -129l20 -19v-22h23q16 -47 56 -67.5t87 -37.5q16 -16 21.5 -19t21.5 -3h-20v22h-23q-16 0 -30.5 2.5t-30.5 18.5v-21h22 q14 -16 30 -19t32 -3zM502 520q-16 -14 -19.5 -39.5t-3.5 -42.5q16 0 21 11q2 4 2 10v61zM397 336q16 29 41 50.5t41 51.5q0 16 3 42t20 40q0 33 11 63.5t28 63.5v21q-16 0 -30.5 -10.5t-31.5 -10.5q-31 0 -59.5 -21.5t-44.5 -21.5q-123 -61 -187 -186q0 -16 -10 -31.5 t-10 -32.5v-18v-23v-20v-19v-43h20h23h20q16 0 21.5 10.5t21.5 10.5q29 16 59.5 42t63.5 42zM438 731h21h-21z" />
<glyph unicode="b" horiz-adv-x="839" d="M324 670h20h-20zM383 670h-21h21zM362 670h-18h18zM344 670h-20h20zM815 571q0 -16 10.5 -39.5t10.5 -39.5q0 -29 -12.5 -55.5t-26.5 -43.5q0 -16 -10.5 -29.5t-10.5 -29.5q-14 -14 -26.5 -31.5t-12.5 -46.5q-14 -14 -29.5 -35.5t-34 -43t-41 -43t-52.5 -36.5 q-14 -16 -42 -29.5t-57 -29.5q-29 -14 -58.5 -26.5t-60.5 -12.5h-137q-29 16 -60.5 29.5t-76.5 29.5q-16 14 -29.5 32t-29.5 46q0 16 -9.5 32.5t-9.5 47.5q-8 14 -9 31.5t1 36t5 37t3 32.5q0 29 11.5 49.5t27.5 49.5q0 16 9.5 39.5t9.5 37.5q16 45 30.5 77t28.5 63 q29 59 59.5 117.5t59.5 117.5t70.5 105.5t86.5 91.5q29 0 60 59q0 14 11 28.5t28 29.5q14 16 21 23t-21 -23q29 45 55.5 74.5t42.5 43.5q6 8 13.5 14.5t13.5 12.5q8 6 12 12q8 8 14 15.5t13 13.5q6 8 12 12l20 19q-16 -14 -20 -28.5t-19 -31.5q0 -14 -12 -28.5t-29 -28.5 q0 -31 -11 -50.5t-27 -49.5q-14 -29 -39 -69t-39 -69q-45 -74 -87 -147.5t-71 -147.5q0 -29 -12.5 -49t-26.5 -49q14 0 31.5 10.5t46.5 10.5q29 14 61.5 16t75.5 2q14 0 13 -3t-10 -6t-21.5 -6t-20.5 -3h-39q-29 0 -46 -2t-34 -19q-12 0 -16 10q-2 4 -2 11 q-16 -16 -20.5 -18.5t-18.5 -2.5v-39q-16 -29 -39.5 -70.5t-40.5 -86.5q0 -29 -9 -46.5t-9 -31.5q-16 -31 -20.5 -47.5t-20.5 -32.5v-78q0 -16 2 -29.5t18 -29.5l39 -39h39q16 0 20.5 -10.5t20.5 -10.5q14 0 31.5 2t46.5 19q16 0 29.5 2t29.5 16q29 16 58.5 33.5t60.5 46.5 q29 14 58.5 42t58.5 56q16 14 27.5 39t11.5 39q14 14 18 29q2 8 2 12v19q16 16 18.5 20t2.5 18v21q-16 16 -18.5 29.5t-2.5 29.5v-20l21 -19l-21 19v20q-14 0 -18 8q-2 4 -2 11q0 4 -2 10q-6 10 -17 10q-29 16 -49 20.5t-49 18.5h-98h-21h-39h21h18h80v21q-14 0 -18 -11 q-2 -6 -2 -10q-16 16 -40 16.5t-38 -16.5v21h155h21h20q14 0 28.5 -10.5t29.5 -10.5q0 -14 12 -18t29 -21q14 0 18 -12t21 -27q-6 0 -9 -2q-6 -6 9 -18q14 -14 16 -39t2 -39q0 -16 -9 -29.5t-9 -29.5v-60q14 29 16 49.5t2 49.5q16 16 8 39.5t-8 39.5zM678 334q0 12 10 26 q4 6 10 13q-6 -6 -10 -13q-10 -14 -10 -26zM324 670h20h-20zM383 670h-21h21zM362 670h-18h18zM344 670h-20h20zM815 571q0 -16 10.5 -39.5t10.5 -39.5q0 -29 -12.5 -55.5t-26.5 -43.5q0 -16 -10.5 -29.5t-10.5 -29.5q-14 -14 -26.5 -31.5t-12.5 -46.5q-14 -14 -29.5 -35.5 t-34 -43t-41 -43t-52.5 -36.5q-14 -16 -42 -29.5t-57 -29.5q-29 -14 -58.5 -26.5t-60.5 -12.5h-137q-29 16 -60.5 29.5t-76.5 29.5q-16 14 -29.5 32t-29.5 46q0 16 -9.5 32.5t-9.5 47.5q-8 14 -9 31.5t1 36t5 37t3 32.5q0 29 11.5 49.5t27.5 49.5q0 16 9.5 39.5t9.5 37.5 q16 45 30.5 77t28.5 63q29 59 59.5 117.5t59.5 117.5t70.5 105.5t86.5 91.5q29 0 60 59q0 14 11 28.5t28 29.5q14 16 21 23t-21 -23q29 45 55.5 74.5t42.5 43.5q6 8 13.5 14.5t13.5 12.5q8 6 12 12q8 8 14 15.5t13 13.5q6 8 12 12l20 19q-16 -14 -20 -28.5t-19 -31.5 q0 -14 -12 -28.5t-29 -28.5q0 -31 -11 -50.5t-27 -49.5q-14 -29 -39 -69t-39 -69q-45 -74 -87 -147.5t-71 -147.5q0 -29 -12.5 -49t-26.5 -49q14 0 31.5 10.5t46.5 10.5q29 14 61.5 16t75.5 2q14 0 13 -3t-10 -6t-21.5 -6t-20.5 -3h-39q-29 0 -46 -2t-34 -19q-12 0 -16 10 q-2 4 -2 11q-16 -16 -20.5 -18.5t-18.5 -2.5v-39q-16 -29 -39.5 -70.5t-40.5 -86.5q0 -29 -9 -46.5t-9 -31.5q-16 -31 -20.5 -47.5t-20.5 -32.5v-78q0 -16 2 -29.5t18 -29.5l39 -39h39q16 0 20.5 -10.5t20.5 -10.5q14 0 31.5 2t46.5 19q16 0 29.5 2t29.5 16q29 16 58.5 33.5 t60.5 46.5q29 14 58.5 42t58.5 56q16 14 27.5 39t11.5 39q14 14 18 29q2 8 2 12v19q16 16 18.5 20t2.5 18v21q-16 16 -18.5 29.5t-2.5 29.5v-20l21 -19l-21 19v20q-14 0 -18 8q-2 4 -2 11q0 4 -2 10q-6 10 -17 10q-29 16 -49 20.5t-49 18.5h-98h-21h-39h21h18h80v21 q-14 0 -18 -11q-2 -6 -2 -10q-16 16 -40 16.5t-38 -16.5v21h155h21h20q14 0 28.5 -10.5t29.5 -10.5q0 -14 12 -18t29 -21q14 0 18 -12t21 -27q-6 0 -9 -2q-6 -6 9 -18q14 -14 16 -39t2 -39q0 -16 -9 -29.5t-9 -29.5v-60q14 29 16 49.5t2 49.5q16 16 8 39.5t-8 39.5zM678 334 q0 12 10 26q4 6 10 13q-6 -6 -10 -13q-10 -14 -10 -26z" />
<glyph unicode="c" horiz-adv-x="897" d="M473 88h-20h20zM410 88h20h-20zM430 45q16 16 21.5 18.5t21.5 2.5q0 16 10 20q4 2 11 2l-21 -22q-16 0 -31.5 -10.5t-31.5 -10.5q-16 -16 -35 -21.5t-51 -21.5v23h22q8 8 12 9t8.5 -1t8.5 -5t12 -3q0 14 10 18q6 2 13 2h20zM602 131h-43v-22h-20q18 18 28 20q8 2 13 2h22 zM602 154v-23v23zM860 580q-16 -16 -21 -32t-22 -32q-6 -6 -12 -14q-10 -14 -10 -29q-31 -63 -64 -63q-16 -16 -31.5 -29.5t-31.5 -13.5v-21q0 4 2 12q4 14 18 29q0 16 13.5 43t29.5 43v66q0 4 2 10q4 10 19 10v21h-21h-43q-16 -16 -21 -18.5t-22 -2.5q-16 0 -21.5 -10 t-21.5 -10t-43 -11.5t-43 -11.5q-47 -16 -96 -34.5t-96 -51.5q-33 -33 -65 -63.5t-64 -65.5q-31 -31 -58.5 -62.5t-27.5 -66.5q-33 -29 0 -63v-21v21l22 -21h23q0 -16 8 -20q4 -2 10 -2h-18h18v-21v21h23q4 0 10 -3q12 -4 12 -18v21q33 -16 63.5 -18.5t65.5 -2.5h21h-21h-45 h66q-33 -16 -51.5 -21.5t-34.5 -21.5h-21h-22q-6 0 -11 2q-10 4 -10 21q-16 0 -19 -3.5t-3 -19.5h-41v23h-66l-22 20v21q-14 0 -29 10q-8 6 -12 12q-16 16 -19.5 16t-3.5 -16l43 -43q16 -16 34.5 -21.5t51.5 -21.5q-33 0 -51.5 13.5t-34.5 29.5l-43 43v21v45v18v45v64 q0 14 10 28q6 8 13 15q0 16 2 21t18 22q33 47 79 95t93 97q47 33 98.5 62.5t114.5 46.5q33 16 51.5 18t34.5 2t43 10.5t43 10.5t21.5 3t21.5 19h43h43h21q16 -16 32.5 -21t32.5 -22q16 0 18.5 -13t2.5 -30q16 -16 19 -21.5t3 -21.5v-22zM88 172v-18q6 4 8 8q4 10 -8 10z" />
<glyph unicode="d" horiz-adv-x="892" d="M868 1335q0 4 -2 11q-6 10 -18 10q16 0 18 -2.5t2 -18.5zM868 1270v-23v23zM868 1270v22v-22zM932 1122q8 -16 9 -14t-3 11t-12 23.5t-17 22.5q0 16 8.5 29.5t-8.5 13.5v62q-16 0 -8 3t8 19q-16 0 -18 13.5t-2 29.5l-21 21v43v-23q16 -31 28.5 -62.5t12.5 -66.5 q16 -29 19.5 -52.5t3.5 -72.5zM805 1567q0 -16 11 -35t11 -53q0 16 -11 33.5t-11 31.5v23zM782 1567h23h-23zM426 721h20h-20zM909 698q16 49 19.5 83t3.5 67q0 -33 -3 -66.5t-20 -83.5q0 -16 -12 -43.5t-29 -60.5q-16 -49 -23 -95t-40 -93q-63 -82 -126 -156t-128 -121 q-16 -16 -41 -31.5t-41 -31.5q-33 -16 -53.5 -28.5t-53.5 -12.5q-16 -16 -32.5 -19.5t-32.5 -3.5h-84q-31 16 -62.5 34.5t-62.5 51.5q-16 14 -31.5 32.5t-31.5 51.5q0 16 -11.5 33.5t-11.5 52.5q0 29 3 72t20 76q0 16 2 31.5t18 31.5q0 16 10.5 29.5t10.5 29.5 q16 33 41.5 63t42.5 46q33 16 53 27.5t55 11.5q16 16 41 19t41 3t32.5 11.5t33.5 11.5h40q16 0 32 -11.5t30 -11.5q16 -16 31.5 -21t31.5 -20q16 -16 33 -34.5t33 -51.5q-16 0 -21.5 13.5t-21.5 29.5q-33 16 -64.5 27.5t-60.5 -4.5h-63q-16 0 -21.5 -3t-22.5 -20h-22 q-33 -16 -49.5 -34.5t-32.5 -51.5q-35 -16 -50 -42.5t-15 -59.5q-33 -66 -22 -122t42 -91q0 -14 10 -18q6 -2 13 -2q33 -31 61 0q33 0 64.5 13t64.5 30q61 47 111.5 95t99.5 95q47 61 81 113.5t64 117.5q16 31 22.5 49.5t22.5 34.5q0 16 2 28.5t19 12.5v23v22v21 q16 16 18 30.5t2 30.5v-20v-21v21v20h21h-21v23q14 0 19 10q2 6 2 12v21v168v22q0 16 2 21.5t18 21.5v-20q-6 0 -10 -2q-10 -4 -10 -21h20q-16 -16 -16 -34.5t16 -51.5v23v86q0 -35 11.5 -77t11.5 -73v-41v-43q-16 -16 -8 -35.5t8 -50.5h-23q0 -16 8.5 -31.5t-8.5 -31.5 q0 -16 -10 -21.5t-10 -19.5q0 -16 2 -29.5t18 -13.5v-23zM782 657q16 0 19.5 12.5t3.5 28.5q0 -16 -11.5 -21.5t-11.5 -19.5z" />
<glyph unicode="e" horiz-adv-x="657" d="M616 236q0 12 11 16q4 2 10 2zM578 236h20h-20zM559 215h19h-19zM598 236q-16 0 -18 -2.5t-2 -18.5v21h20zM598 197q14 14 18.5 26.5t20.5 12.5t20.5 2t18.5 16q-12 0 -17 -10q-2 -4 -2 -8q-31 -16 -47 -29.5t-32 -30.5q-29 -16 -49.5 -23.5t-49.5 -35.5q-14 0 -16 6 t4 13t15.5 13.5t15.5 6.5h41l20 20t19 21h20zM776 315q0 4 2 9q4 10 17 10q-14 -14 -28.5 -18.5t-31.5 -20.5q0 16 12.5 18t28.5 2zM518 176q-29 -16 -55.5 -30.5t-42.5 -28.5q-6 0 -10 -2q-10 -4 -11 -19h-20h-39q-6 0 -10 -6t-8.5 -13t-8.5 -13.5t-12 -6.5h-20 q-14 0 -28.5 -10t-29.5 -10h-20h-21q-4 -6 -12 -10q-14 -10 -27 -11q-16 -14 -25 -16t5 -2h39h20q0 14 12.5 16t28.5 2h19v21h20h-20v-21h-19q-8 0 -15 -3t-13 -7q-8 -4 -13 -8h-39h-20q-14 0 -28.5 2t-31.5 16q-16 16 -29.5 30.5t-29.5 31.5q0 4 -2 8q-6 10 -16 10 q0 16 -2 27.5t-19 11.5v62v18q-8 0 -15 -3t-13 -7q-8 -4 -13 -8h-18q14 0 18 9t21 9l20 21q0 14 2 28.5t19 30.5q0 29 11 46t28 32q0 16 11 39.5t27 40.5q31 29 50.5 59.5t48.5 58.5q31 29 62.5 56.5t76.5 42.5l21 20h18v19h39q16 0 30.5 10t30.5 10q14 0 31.5 -2t46.5 -18 h21l20 -19l19 -20q16 -14 27 -39t11 -41v-58q-12 -12 -16 -28q-2 -8 -2 -12l-39 -39l-20 -21q-4 -6 -13 -12q-6 -6 -13 -12.5t-15 -14.5q-6 -6 -13 -10q-14 -10 -26 -10l-39 -39q-90 -59 -178 -60q-29 0 -66 -10t-53 -10h-19v-18h19h-19v-39h-20v-62l20 -18q0 -14 9 -19 q4 -2 10 -2h39h20h21h20h19q16 16 26 19q6 2 13 2q-12 0 -17 -11q-2 -6 -2 -10l19 21q0 -14 10 -19q4 -2 10 -2l-20 21h20h21q14 0 16 2t2 16q29 0 70 12.5t69 28.5h19h20h-20q-14 0 -28.5 -10t-29.5 -10q29 0 45.5 2t32.5 18zM281 471q-29 -29 -55.5 -58.5t-43.5 -58.5 q31 14 50.5 28.5t48.5 31.5q16 14 39.5 28.5t39.5 28.5q29 16 46.5 41t33.5 39h-20l-21 -19q-29 -16 -58 -30.5t-60 -30.5zM104 117q0 -16 2.5 -20.5t16.5 -18.5q-14 0 -24.5 11.5t5.5 27.5z" />
<glyph unicode="f" horiz-adv-x="632" d="M745 1133l-20 22h20v-22zM684 1196h21h-21zM705 1174v22q0 -16 2 -19t18 -3h-20zM725 1174h-20h20zM623 1235q0 -16 2 -20.5t18 -18.5q6 0 14 -2t27 -20v-19q16 0 30.5 -11t30.5 -11q0 -16 3.5 -21.5t19.5 -21.5l-23 22q-16 16 -40.5 31.5t-38.5 30.5q-16 16 -35 30.5 t-49 30.5q-8 8 -6 9t10 -1t18.5 -5t18.5 -3zM872 1006q-16 0 -28.5 13t-12.5 30h-20q16 0 28.5 -13.5t12.5 -29.5h20zM872 987v19v-19zM831 653h21h-21zM811 653v-22v22zM831 631q0 4 -2 10q-4 12 -18 12h20v-22zM831 612l21 19h20h-20q0 -14 -12.5 -16.5t-28.5 -2.5 q0 -16 -11.5 -21t-11.5 -22q-16 0 -8 13.5t8 29.5l23 -22q0 16 2 19t18 3zM893 653h20h-20zM788 612q-16 0 -21 -11t-22 -11v-21h-20q-14 0 -18 -10q-2 -6 -2 -10q0 6 -3 8q-6 4 -18 -8v-21q-12 0 -16 11q-2 4 -2 10l-23 -41q16 16 28.5 20t12.5 21q0 -16 -12.5 -28.5 t-28.5 -12.5h-41q0 -16 -13.5 -28.5t-29.5 -12.5q-47 0 -81 -10.5t-64 -10.5h-41q0 -33 -10.5 -53t-10.5 -51q-16 -47 -44.5 -91t-61.5 -77q-14 -16 -37 -42t-23 -42q-8 -6 -15 -13t-9 -10.5t3 -3.5t21 9q-33 -33 -61.5 -50.5t-44.5 -33.5l-21 -21q-16 0 -20 -11t-21 -11 h-20q4 0 12 6q6 4 13.5 12t15.5 25q16 16 30.5 44.5t30.5 57.5q16 33 29.5 61.5t13.5 45.5q33 47 48.5 106t15.5 123q0 16 10 33.5t10 48.5q-16 0 -41.5 10t-42.5 10q-16 16 -29.5 34t-13.5 50q0 6 -3 13.5t-7 13.5q-6 8 -10 14q-16 16 -18.5 16.5t-2.5 -16.5q0 16 -10 31.5 t-10 32.5v20h-21h21q16 0 30.5 -10t30.5 -10t29.5 -2t13.5 -19q16 -16 42 -21t42 -22v273v229v121q0 16 2 32.5t17 32.5q0 16 3 30.5t19 31.5l41 41h43h43h41q14 -16 29.5 -20.5t32.5 -20.5h-23v20h-20q4 0 10 -2q10 -6 10 -18h23v-21h18q33 -31 61.5 -62.5t45.5 -62.5 q4 -6 10 -14q4 -6 7 -13t3 -16v21l-20 22l-13 13q-6 6 -13 12t-15 16v-22h20q0 -14 12.5 -27.5t28.5 -13.5q-31 16 -51.5 31.5t-52.5 31.5q-16 0 -21 11q-2 4 -2 10l-18 22q-16 16 -31.5 18.5t-30.5 2.5q4 4 6 10q4 10 -6 10h-41h-22v-20h22h19h-41h-21v-21q0 -16 2 -21 t19 -22v-41v-43q0 -70 9 -137t17.5 -136t9.5 -139.5t-14 -148.5v-41h19h188h41h23h-23h23h18q14 0 18 -12q2 -6 3 -10q0 4 -3 10q-4 12 -18 12h21q16 0 31.5 2t31.5 17l20 -19q-14 10 -18 6q-2 -2 -2 -6h20zM309 1423q-16 -16 -20 -18t-21 -2q0 16 12.5 18t28.5 2zM602 612 q4 0 10 -2q10 -6 11 -20q-6 0 -11 2q-10 4 -10 20z" />
<glyph unicode="g" horiz-adv-x="868" d="M100 -127q16 16 22.5 21.5t22.5 21.5l-22 -20zM78 -168h-23q16 0 19.5 2t3.5 19v-21zM55 -190q-14 -16 -16 -21.5t-2 -21.5q0 16 2 29.5t16 13.5zM78 -168q-16 0 -21 -12q-2 -6 -2 -10v22h23zM-6 -446v86q4 4 10 12q4 6 7 12t3 17q16 16 28.5 42.5t12.5 43.5l23 22 q16 33 33.5 61.5t33.5 45.5q14 16 29.5 29.5t32.5 13.5q-12 0 -29 -13q-8 -6 -14 -10q-31 -47 -61.5 -85t-47.5 -87q-14 -16 -19 -43t-22 -43q0 -31 -10 -51t-10 -53zM256 -104q-6 0 -12 -2q-10 -4 -11 -19q0 4 3 10q4 11 20 11zM340 -39q16 14 11 16.5t11 2.5 q-33 -31 -61.5 -49.5t-44.5 -34.5q16 16 31.5 32.5t31.5 32.5h21zM385 -20h-23h23zM877 602v21q0 16 -16.5 30.5t-49.5 14.5q-16 16 -45 18t-61 2q-16 0 -33 -10t-33 -10t-31.5 -3t-29.5 -20q-66 -16 -117 -46t-99 -60q-49 -33 -82.5 -78t-68.5 -92q0 -14 -12 -31 q-6 -8 -11 -14q0 -16 -9 -21.5t-9 -21.5v-19q0 -6 -2 -12q-4 -10 -21 -10v-23v-22q0 -14 3.5 -16.5t19.5 -2.5v-22h18q16 0 45 11t46 11h18v19h43q6 4 14 10q16 12 31 12q14 16 29.5 19.5t31.5 3.5v22h23q16 14 29.5 19.5t13.5 21.5q16 0 32.5 13.5t33.5 29.5q14 0 19 3 t21 20l21 18q35 16 53.5 32.5t34.5 33.5q16 16 31.5 32.5t32.5 32.5v-22h20v-21q-16 -35 -18 -55.5t-2 -50.5q-16 -66 -29.5 -128.5t-13.5 -109.5q-14 -14 -19 -29q-2 -8 -2 -14v-18v-23q-16 -16 -19 -33.5t-3 -33.5q-16 -31 -21.5 -60t-21.5 -45q-8 -33 -7.5 -38t4 -3 t4.5 1t-8 -25q-14 -66 -42.5 -119t-63.5 -117q-33 -47 -68 -96t-82 -96q-16 -31 -43.5 -52.5t-62.5 -56.5q-16 0 -22.5 -2t-22.5 -19l-19 -20h-22q-16 0 -31.5 -10t-30.5 -10q0 -6 -2 -13q-4 -10 -20 -10h-45q-16 0 -31.5 11.5t-32.5 11.5h23h18q0 -6 2 -13q4 -10 21 -10 l-23 23h-18q0 16 -3 18t-20 2q16 0 19.5 -2t3.5 -18h-23q-14 14 -18 28q-2 8 -2 12q-16 14 -23 15q-4 0 -6 -2v28q-82 207 0 416v29q10 10 16.5 -1t9.5 -26.5t3 -27t0 -2.5v-23q0 29 -4 49q-4 16 -9.5 28.5t-15.5 2.5v-29q-20 -20 -23 -58t-3 -81v29q10 20 16 26t12 8 t12.5 5.5t14.5 19.5q-8 -31 -14.5 -50.5t-9.5 -35.5t-4 -34.5t-1 -49.5q0 -23 6 -43t23 -20v-43v-41q0 -6 2 -13q4 -10 18 -10q0 -35 23.5 -50.5t40.5 -15.5q16 0 33.5 13.5t33.5 29.5h41h21q0 16 13 33t28 33q0 16 8 16t-8 -16q-8 0 -14.5 -3t-12.5 -7q-8 -6 -14 -10 q-16 -16 -21.5 -22.5t-21.5 -23.5q-14 0 -19.5 -3t-21.5 -19h-23h23q16 16 21.5 22.5t19.5 22.5q16 0 21 11.5t22 11.5q6 4 14 12q6 6 12.5 13t14.5 16q35 16 64.5 44.5t43.5 61.5q43 86 59.5 122t21.5 53.5t7 29.5t19 51q33 49 51 108.5t35 106.5q8 33 7 35t-6 -2t-10 -2 t-5 35q16 16 18 32.5t2 30.5v23q-14 0 -18 -13q-2 -6 -2 -10q-16 0 -31 -2t-15 -16q-33 -16 -53 -22.5t-51 -22.5h-45q-16 -16 -31.5 -19.5t-29.5 -3.5h-132q-33 0 -50 14.5t-34 30.5h-22l-23 23q0 14 -3 19t-19 22v84v22v23q0 16 3 21t19 20q35 98 95.5 174.5t142.5 124.5 q16 0 21.5 11t19.5 11q16 16 32.5 21.5t32.5 21.5q31 0 61 13.5t46 29.5q16 0 32.5 11.5t33.5 11.5h-23h106q33 16 63 16t46 -16q33 0 50.5 -3t33.5 -20q16 -16 32.5 -23.5t33.5 -41.5v-21zM356 -659q16 16 33 31.5t33 31.5q-16 -16 -33 -31.5t-33 -31.5zM512 711 q-6 0 -12 -2q-10 -4 -11 -21q0 16 11 21q6 2 12 2z" />
<glyph unicode="h" horiz-adv-x="776" d="M553 -113h20q-14 0 -18 -10q-2 -6 -2 -10v20zM612 -10q0 -16 -2 -20.5t-18 -18.5q16 14 18 18t2 21v0zM592 -49v-25v25zM592 -49q0 -18 -2 -21.5t-17 -3.5q14 0 16.5 3t2.5 22v0zM612 72q-16 -31 -20 -48.5t-19 -33.5v-21q-16 -14 -18 -30.5t-2 -32.5q-6 -6 -10 -12 q-10 -14 -11 -27q-16 -16 -18 -20.5t-2 -20.5q0 4 2 12q4 14 18 29q16 29 28.5 63.5t12.5 79.5q14 16 26.5 32.5t12.5 49.5q0 4 2 12q2 10 19 27v41q8 16 11 11t3 -18t-3 -29.5t-11 -22.5q0 -8 -3 -15.5t-7 -13.5q-7 -8 -11 -12zM453 -297q-16 -16 -31.5 -39.5t-32.5 -40.5 l21 21q0 14 13 31.5t30 52.5v-25q-16 0 -16 -8t16 8zM369 -397q4 0 10 2q10 4 10 18q0 -14 -10 -18q-6 -2 -10 -2zM776 539v-21q0 -14 -2 -38.5t-18 -41.5v21v20v-20v-21v-43v-20q-14 0 -14.5 -10.5t14.5 -10.5q-14 -59 -39 -118.5t-41 -122.5q-6 0 -12 -2q-10 -4 -11 -19 l-20 -20v20h20v21q16 14 21.5 39.5t21.5 44.5h-20q0 -18 2 -21.5t18 -3.5q-16 -16 -31.5 -39.5t-31.5 -40.5q16 16 18 40t2 40q16 18 19.5 43t3.5 41v18q16 16 18 20.5t2 20.5t2 29.5t19 30.5v20v25q0 14 -10.5 28.5t-10.5 30.5h21v39q0 8 -3 15.5t-7 13.5q-6 8 -11 12 q0 14 10.5 28.5t10.5 30.5l-21 25q-16 14 -18 14t-2 -14l20 -25v-40v-39v-21v-18v78q0 8 -3 15t-7 13q-6 8 -10 12v25v19h-23h-20q-16 0 -18.5 -2.5t-2.5 -16.5q-16 0 -29.5 -3t-29.5 -22q-16 0 -20.5 -10t-20.5 -10q-8 0 -14 -3t-13 -7q-8 -6 -12 -10q-47 -29 -83 -49.5 t-83 -49.5q-29 -31 -49 -59.5t-55 -44.5v-39q0 -16 -9.5 -20.5t-9.5 -20.5l-20 -21v-38q-16 0 -18.5 -12.5t-2.5 -26.5q-14 -18 -18 -31.5t-21 -13.5q-16 -16 -20 -29.5t-21 -30.5q0 -4 -2 -12q-4 -14 -16 -31v23q-16 -16 -44 -28.5t-60 -12.5l-80 -21l20 82q6 14 10.5 26.5 t8.5 24t8 24.5t12 30h-20h20q16 45 42 87t42 70q16 31 40 53.5t40 51.5q16 45 28.5 90t12.5 94q29 74 46 136.5t32 125.5q18 47 21 99.5t3 82.5q0 47 -12 58.5t-12 -33.5v119v80q-14 18 -16.5 32.5t-2.5 30.5t-2 30.5t-18 29.5v20q16 -16 20 -32.5t19 -47.5q18 -29 33.5 -83 t31.5 -101q14 -14 16.5 -28.5t2.5 -31.5v-63q16 -29 18 -56.5t2 -43.5q0 -94 -10 -172t-10 -152l20 19q47 16 93 40.5t94 38.5h38q16 16 31 18.5t29 2.5h20h21q16 16 31.5 18t31.5 2t20.5 -10t20.5 -10q0 -6 2 -10q4 -10 17 -11q0 -14 10 -28.5t10 -30.5v-84v-20v-39z M696 762q16 0 20.5 -10.5t20.5 -10.5q0 12 -10 19q-6 2 -10 2q-16 0 -28.5 8t-12.5 -8h20z" />
<glyph unicode="i" horiz-adv-x="575" d="M537 193h18h-18zM516 193h21h-21zM516 193q0 -14 2 -16.5t19 -2.5h-21v19zM537 158q12 0 16 8q2 4 2 8q0 12 8 16q4 2 8 3l-16 -19q-6 -4 -10 -10q-8 -12 -8 -27q-16 0 -29.5 -11t-28.5 -26l8 13q4 4 7.5 10t3.5 14h18q0 4 2 10q5 11 19 11zM612 233q0 4 2 9q4 10 17 10 q-14 -14 -19.5 -16.5t-21.5 -2.5h22zM498 137q-14 0 -25.5 -11t-11.5 -26h-19v-18h-20q-14 0 -19 -10q-2 -6 -2 -11q0 -10 -8 -6q-4 2 -8 6q0 -6 -2 -10q-4 -8 -18 -8h-19l-18 -39l21 12t13.5 8.5t10.5 8.5t12 10q-8 -6 -12 -10t-10.5 -8.5t-13.5 -8.5l-21 -12h-37 q-14 -14 -27.5 -16t-30.5 -2q0 -12 -10 -17q-6 -2 -10 -2h-18h-17q-43 14 -73.5 30.5t-59.5 45.5q0 14 -12.5 28.5t-26.5 28.5v58q-14 27 -7 55.5t7 56.5q0 14 9.5 18.5t9.5 18.5q0 4 2 8q4 10 18 11q0 14 2 16t16 2q0 16 2.5 20.5t16.5 16.5l20 20q14 16 27.5 32t28.5 44 q16 14 40.5 26.5t55.5 12.5q14 0 25.5 11.5t11.5 23.5q29 14 35 27.5t20 13.5q14 14 18.5 16t20.5 2v19v-19v-18q-8 -8 -15.5 -24.5t-14.5 -34t-14 -34t-13 -22.5q-14 -29 -37 -54.5t-37 -41.5q-16 -29 -30.5 -55.5t-28.5 -55.5h-17v-18q0 -6 -2 -10q-4 -8 -18 -9v-59 q-14 -12 -5 -35.5t25 -38.5h55h58h18h19h18h-18h18h19q4 0 10 2q10 4 10 17v-19h-20h20v19h16q31 0 47.5 11t30.5 28h19v-21v21l-19 -21h-18v-18q14 14 14 16t-14 2h37zM291 82q0 14 -2 14t-17 -14h19zM461 778v21v20q4 -6 8 -8q10 -6 10 8l-18 -20v-21zM272 723h-18v18v21 h18v16v21q4 0 9 2q10 4 10 18h18h37h55h21h20h19h-19h19h-19h19v-20v-21h-19q0 16 9.5 6t9.5 -22l-19 16v-16v-21q0 4 2 11q4 10 17 10q0 -6 -2 -10q-4 -10 -17 -11v-36q-16 -16 -22 -25.5t-35 4.5h-20h-19q-14 0 -18 2t-19 19q0 10 -10 16q-4 2 -8 2h-19z" />
<glyph unicode="j" horiz-adv-x="657" d="M563 287q0 -53 -10 -120t-25 -136q14 0 18.5 9t16.5 9q-12 0 -16 -9t-19 -9q-29 -111 -59.5 -209t-85.5 -197q-29 -53 -54.5 -96t-54.5 -84q-31 -41 -66.5 -74t-64.5 -76q-27 -14 -45 -26t-45 -27q0 -14 -11 -16t-26 -2q-16 -14 -28.5 -16.5t-28.5 -2.5q-14 0 -26.5 9.5 t-26.5 9.5q0 14 -9.5 18t-9.5 19l-18 16v55v39q0 41 2 71t16 56q14 14 18.5 27.5t18.5 28.5v16q12 0 16.5 12t18.5 29v14q29 31 57 58l-20 -19l20 19h19h-19v18q12 0 17 8q2 4 2 10q14 0 16 2.5t2 16.5q14 0 16.5 2t2.5 14q41 41 84 80t98 66q6 0 12 2q12 4 23 20q4 0 10 2 q12 4 12 17q0 -14 -3 -16.5t-19 -2.5q-8 0 -13 -12q-2 -6 -2 -10q-31 0 -46 -19.5t-29 -32.5q0 4 2 9q4 8 16 8t16.5 9t20.5 9q16 12 25.5 17.5t9.5 21.5q-27 -29 -63 -56.5t-64 -55.5q0 -12 -2 -14.5t-17 -2.5q0 -14 -2 -18t-14 -21q-14 0 -18.5 -10t-20.5 -25 q-12 0 -25.5 -22.5t-27.5 -48.5q-6 0 -10 -2q-8 -4 -9 -21q-16 -10 -20 -26.5t-16 -44.5q-6 -6 -11 -13q-10 -10 -10 -24q-14 0 -16 -20.5t-2 -33.5q14 27 18 42.5t21 29.5q12 27 16 43t20 33q-16 -31 -38.5 -69t-36.5 -79q0 -14 -2 -28.5t-15 -26.5v-37v-18v-21 q12 -12 14.5 -16t2.5 -21h18h21l16 21q98 55 159.5 144t118.5 188q10 53 34 99t38 101q14 27 27.5 54.5t27.5 54.5h-18q-29 -27 -57.5 -46.5t-71.5 -45.5q-14 -14 -12 -12l10 10l19.5 19.5l17.5 17.5q16 16 28 20q6 2 11 2q14 14 29.5 26.5t43.5 28.5v17q-6 0 -10 -2 q-8 -4 -8 -15q0 10 8 15q4 2 10 2q0 14 8.5 27.5t8.5 27.5q0 29 10 43t10 31v74q14 27 16.5 45t2.5 45v73v19v18h-19q0 -6 3 -8t4 -2t0 -1l-7 -7q-29 -14 -53.5 -35.5t-38.5 -36.5q-43 -16 -82 -50t-65 -60l-38 -38t19 21q-41 -31 -79 -58.5t-66 -53.5q-41 -14 -62.5 -29.5 t-48.5 -44.5h-18q14 14 26.5 20t26.5 35q29 14 69 51t81 80q41 39 78.5 78t66.5 68q27 27 54.5 53.5t56.5 52.5l18 23q14 12 18.5 16t16.5 18l20 21q14 27 38 53.5t52 52.5q0 -12 2 -34.5t17 -36.5v-56v-57l16 -35v-37v-73zM-131 -575v-72v72zM604 729v19h17q-10 0 -15 -11 q-2 -4 -2 -8v-20v20v19v-19zM604 748v-19h-18v-20q0 16 -3 6t-20 -25v19v-19v19l-16 -37l16 18l-16 -18q0 4 -2 8q-6 10 -17 10q0 -6 -2 -10q-4 -8 -14 -8h-20h-19v18h-16q0 4 -2 8q-6 10 -17 11q-6 10 -10 20q-10 20 -10 35q0 4 2 10q4 10 18 10v35v21h19h16q14 0 18.5 2 t20.5 14h-20h20h16v-16h19l16 -21l-16 -16v-19q4 0 8 -2q8 -4 8 -18h23v-16h18h-18h18z" />
<glyph unicode="k" horiz-adv-x="768" d="M20 -66v-20v20zM41 -25v-20v20zM20 -45h21h-21zM20 -25h-20q0 -16 10 -30.5t10 -30.5v-20v20q0 16 -10 30.5t-10 30.5v101q0 14 10 -5.5t10 -33.5l-20 -21q0 -16 2 -20.5t18 -20.5zM20 -205v-20v61v-41zM805 76v20v-20zM784 117v-21v21zM764 117h20h-20zM784 96v21v-21z M764 76h41v-21q-16 16 -30.5 20.5t-31.5 20.5q-16 0 -30.5 2t-30.5 19h20q12 0 19 -11q2 -6 2 -10h41v-20zM883 -4q0 16 -10.5 20t-10.5 21q0 -6 2 -10q4 -10 19 -11v-20zM883 -4h20h-20zM723 117q-16 16 -41 20t-41 19h-18q0 4 -2 10q-6 10 -19 10h-41v21h-39v20 q-8 6 -18 10t-17.5 4t-10.5 -4t5 -10q16 -16 30.5 -20t29.5 -21q-14 16 -28.5 20.5t-31.5 20.5q-16 14 -29.5 26.5t-29.5 12.5q-16 16 -40 20.5t-40 20.5q-16 14 -41 38.5t-39 41.5q-16 0 -20 10t-21 10v19q-6 0 -10 2q-10 4 -10 18l-21 21l-41 41q-16 -47 -20 -79t-21 -63 q0 -16 -9 -30.5t-9 -28.5v-21v-20q-14 0 -16.5 -2t-2.5 -18v-39v20v-20h-20h20v-21h-20v-20v-60v-59l-21 -21v21q14 12 19 26q2 8 2 13h-21h21q-14 -14 -18 -27l-3 -12v80v20v19v61v39q0 16 8.5 18t-8.5 2v39v-79q-16 16 -16 33.5t16 45.5v82v39q0 16 2.5 30.5t18.5 31.5 q14 59 26.5 112.5t27 104.5t35 101t50.5 104q0 16 10.5 29.5t10.5 29.5q31 31 48 62.5t32 78.5q16 29 33.5 56.5t47.5 42.5q14 16 26.5 40.5t12.5 40.5q16 29 30.5 46.5t29.5 33.5q0 14 10 29q4 8 10 12v21v-41q-8 -16 -12 -41t-8 -50.5l-8 -51t-11 -39.5 q-16 -29 -28.5 -49.5t-12.5 -49.5q-16 -16 -20 -40.5t-19 -39.5q-16 -47 -30.5 -91t-30.5 -91q-16 -16 -29.5 -33.5t-29.5 -48.5q0 -14 -2 -27.5t-19 -29.5h21q0 16 2 18t18 2h19q16 14 20 16.5t21 2.5h20h20h19q16 14 30.5 16t30.5 2q59 31 119 0h80q16 0 16 10.5t-16 10.5 h82h61q-6 0 -10 -2q-10 -4 -10 -19q-16 -6 -34.5 -19.5t-37 -26.5t-37 -22.5t-32.5 -9.5q-47 -16 -81 -30.5t-81 -30.5q-14 0 -28.5 -10.5t-31.5 -10.5l-20 -18q0 14 -2 7t-17 -7h-20q-4 -6 -12 -10q-16 -8 -29 -8v-21l21 -20v-21q16 0 18 -2t2 -18h20q14 -16 18.5 -30.5 t20.5 -31.5q31 -29 57.5 -59.5t43.5 -61.5q8 0 14 -3t12 -7l13 -8l20 -21v-20h21q16 -16 18 -20.5t2 -18.5v19v-19h21v-20h18q16 -16 33.5 -30.5t48.5 -29.5v-20v20h-21q0 14 -2 16.5t-18 2.5q16 -14 20.5 -18.5zM80 336q0 4 2 10q4 10 16 10q0 -14 -10 -18q-4 -2 -8 -2v0z M502 315q16 0 18 -2t2 -16q-14 0 -18 8q-2 4 -2 10z" />
<glyph unicode="l" horiz-adv-x="405" d="M535 354q0 -14 -12.5 -28.5t-26.5 -28.5v-21h-21v21l39 57l21 21h20zM674 1243q0 -6 -2 -12q-2 -10 -19 -27v-20v-60q-16 -16 -20 -30.5t-21 -30.5q0 -29 -14 -59.5t-43 -75.5q-31 -59 -62.5 -106.5t-74.5 -92.5q-16 -14 -40 -51t-40 -68q-6 0 -10 -2q-8 -4 -9 -18h19 h-19q-16 -29 -30.5 -48.5t-30.5 -49.5q-16 0 -20.5 -9.5t-18.5 -9.5q0 -16 -10 -30.5t-10 -28.5q-16 0 -20.5 -11.5t-20.5 -27.5h-17v20l9 13q8 12 8 24q16 31 40.5 73t39.5 85l20 41q16 31 30.5 60.5t30.5 58.5q43 74 85 148.5t71 145.5q0 14 10.5 32t10.5 48q12 0 16 9 q2 4 2 10v20v41v21v18q0 -6 -2 -10q-4 -8 -16 -8l-21 -21q0 -14 -10 -18q-6 -2 -10 -2v-21q-14 0 -18.5 -12t-18.5 -27q0 -16 -12.5 -30.5t-28.5 -30.5q-14 -43 -38 -84t-40 -72q-16 -45 -30.5 -76.5t-30.5 -60.5q-29 -90 -58.5 -164t-58.5 -133q0 -31 -9.5 -56.5 t-9.5 -41.5l-20 -78v-21v-20q-16 -16 -18.5 -33.5t-2.5 -46.5v-20v-21v-16q0 -16 2.5 -20.5t18.5 -18.5q0 -16 2 -18.5t18 -2.5q14 -16 40 -18t57 -2l20 20h19h41q0 16 10 20.5t10 18.5h20v21h19h-19q0 -14 -10 -19q-6 -2 -10 -2l-20 21h40v16h19v-16q0 10 10 14q4 2 10 2 v21v20l78 80l-18 -59v18l18 -18l-39 -21q-16 -31 -39.5 -56.5t-38.5 -39.5l-30.5 -30.5t-30.5 -29.5q-16 -16 -32.5 -20t-47.5 -20h-20l-17 20q-16 0 -29.5 2t-29.5 18h-39q0 14 -10 18.5t-10 20.5v60q0 12 -10.5 16t-10.5 21v59v21q0 47 2 88t19 71v78q16 14 18 28.5 t2 30.5v21q14 43 21.5 88t37.5 88q14 45 28.5 92t27.5 107l20 20q16 29 30.5 70t29.5 86q16 16 30.5 39.5t30.5 40.5q0 16 2 30.5t18 28.5l19 21l20 18q61 90 117 119l21 20h18h21q31 29 59 0q6 0 13 -3t14 -7q8 -6 12 -10l20 -21v-41h21v-18v-21v-57zM338 119v16v-16z" />
<glyph unicode="m" horiz-adv-x="1378" d="M721 82q0 -16 -2 -27.5t-19 -11.5v-20q0 12 11 26q4 6 10 12v21zM1186 4q0 14 2 16.5t16 2.5zM1204 61v-18v18zM1204 121q-6 0 -10 -2q-8 -4 -8 -21v-37q-14 -14 -9 -28.5t-10 -28.5v-20v20q0 14 9.5 38t9.5 40q0 12 2 30.5t16 47.5v-39zM1147 -72q-6 -6 -10 -14 q-8 -16 -9 -25q0 12 2.5 17.5t16.5 21.5zM1128 -111l-22 -22zM1360 678q14 -12 16 -26.5t2 -26.5v-62v-18l-18 -19v-18q0 -16 -10.5 -41t-10.5 -37q0 -16 -9 -29.5t-9 -29.5v-19h-18v-20v-19q0 -8 -3.5 -15t-7.5 -11q-4 -6 -8 -11v17v-17h-22h22v-22h-22v-18 q0 -29 -11.5 -57.5t-27.5 -57.5q0 -6 -2 -12q-4 -10 -17 -11v23h19q0 10 10 24q6 8 12 15h-22h22q-16 -16 -21 -21.5t-20 -17.5q14 12 16.5 36.5t2.5 39.5v18q0 16 3 20.5t19 18.5q-6 4 -12 12q-10 14 -10 27q4 0 10 2q12 4 12 18v39q4 0 8 2q8 4 9 17q-4 16 -9 24 q-8 20 -8 -4q-16 -16 -19 -32.5t-3 -45.5q0 29 3 48.5t19 48.5v59v57v19v18q-16 0 -20 -10q-2 -4 -2 -8l-19 -19q-14 0 -18 -9t-19 -9q-14 -16 -26 -21q-8 -2 -13 -2q-16 -12 -21 -17t-17 -22q-6 0 -11 -2q-10 -4 -10 -14q-29 -16 -55.5 -43t-40.5 -55q-31 -29 -59.5 -45.5 t-57.5 -32.5q-14 -14 -29.5 -28.5t-27.5 -28.5q-16 -14 -16.5 -23.5t16.5 4.5q-16 -14 -29.5 -29.5t-30.5 -27.5q-14 -16 -18 -29.5t-21 -30.5v37q8 14 15.5 38t14.5 50.5t14.5 50t15.5 39.5q0 4 2 9q4 8 14 8q0 4 2 10q4 10 21 10v19v20q0 14 2 18.5t14 20.5q-4 4 -8 12 q-8 12 -8 27h16q0 8 -8 25q-4 8 -8 14q0 10 8 14q4 2 8 2q0 8 -6 15.5t-11 11.5t-6 3t7 -7v-62q0 16 -11.5 33t-11.5 47q6 6 8 13q4 12 -8 24v21h-16h-21q-29 -16 -45 -29.5t-32 -28.5q-29 -31 -61 -59.5t-75 -56.5q-14 -14 -27.5 -26.5t-29.5 -12.5q-31 -14 -56.5 -40 t-39.5 -55q-29 -31 -57.5 -48t-57.5 -31q-16 -14 -38.5 -28.5t-22.5 -31.5q-29 -29 -42.5 -44t-13.5 -32q-16 -14 -27.5 -18t-11.5 -20l-22 -19v19q16 0 19 2t3 18q0 20 6.5 48t15.5 54.5t19.5 51t16.5 39.5q14 14 28.5 29.5t30.5 27.5v39v20q0 12 8 17q4 2 9 2l-9 16 q-8 16 -8 4v-59v59q0 14 8.5 28.5t8.5 26.5v62q16 41 19 74.5t3 79.5v16v-16h-22q-12 -16 -30 -26.5t-46 -10.5q-14 0 -28.5 -11.5t-29.5 -11.5q-16 -14 -16 -16t16 -2q-16 0 -29.5 -10.5t-29.5 -10.5q0 -14 -11.5 -18t-27.5 -19q0 12 10 17q6 2 13 2q12 29 29.5 64.5 t45.5 52.5q14 12 38 36.5t38 40.5l19 19l22 18h17l22 19h16q0 16 12.5 19t26.5 3q16 0 29.5 -3t30.5 -19q10 0 16 -11q2 -4 2 -8v-18v-19v-20v-41q-14 0 -16 -10.5t-2 -26.5q-16 -59 -32.5 -116.5t-45.5 -114.5q57 55 117 116q43 29 86 57.5t86 57.5q0 16 11 20.5t11 16.5 q12 0 26.5 11t29.5 11q16 14 42.5 26.5t55.5 12.5q29 -16 55.5 -32.5t40.5 -44.5l8 -13q4 -6 7 -12t3 -12v-62v-55v-23v-16q-14 0 -16 -3t-2 -20v-36q0 16 9 20t9 16q29 47 62 80l76 76q14 16 37.5 29.5t40.5 30.5q12 0 27.5 8t29.5 8q16 16 29.5 21.5t27.5 19.5h117 q14 -14 26.5 -19.5t12.5 -21.5zM274 391h21v19zM874 584v-39q-14 14 -14 18.5t14 20.5zM856 410v20v-20h-18h18zM1321 410q0 4 2 10q4 10 16 10q0 -6 -2 -10q-4 -10 -16 -10z" />
<glyph unicode="n" horiz-adv-x="759" d="M498 -106v-21v21zM537 -49q0 -14 -11 -19q-4 -2 -8 -2zM518 -70v-18v18zM518 -88v18v-18zM498 -49q-8 -14 -9.5 -25.5t-1.5 -18.5t-1 -10t-9 -3q0 -16 -2 -20.5t-16 -18.5l18 18q0 29 10.5 48.5t10.5 47.5q0 16 10 32.5t10 45.5q6 14 10 13t4 -10t-4 -21.5t-10 -20.5v-18 q-16 0 -18 -12.5t-2 -26.5zM459 -203q-16 0 -20.5 -12t-18.5 -29v-18q0 14 9 28.5t9 30.5h21zM420 -262h-19h19zM729 684q16 -29 25.5 -57.5t-4.5 -59.5v-39v-18v-39l-21 -18q0 -16 -2 -29.5t-16 -30.5q0 -14 -2 -18t-17 -21q0 -14 -10 -27.5t-10 -29.5t-2 -20.5t-17 -18.5 q0 -16 -2 -20.5t-18 -18.5q0 -14 -2 -18t-17 -21h19v21l-19 -21v-18v-19q-16 -29 -29.5 -59.5t-29.5 -75.5l-18 -18v18q14 16 16 29.5t2 30.5v-21q0 -14 -9 -18t-9 -21q0 16 9 42t9 54v21q0 14 10 18t10 19v57q4 -4 9 -6q10 -6 10 6q0 14 -7 26.5t7 12.5q0 12 10 16 q4 2 10 2q0 8 -3 20.5t-7 22t-7 11.5t-3 -13q-14 -16 -16.5 -39.5t-2.5 -39.5q0 16 2.5 42.5t16.5 55.5q0 14 10 28.5t10 28.5v135v21v-21h-20q-6 0 -10 -2q-8 -4 -9 -16q-29 -14 -58.5 -18.5t-57.5 -20.5q0 -14 -10.5 -18t-10.5 -21q-14 0 -18 -2t-19 -16 q-29 -16 -57.5 -42t-56.5 -55q-14 -16 -28.5 -28.5t-29.5 -12.5q-16 -14 -29.5 -26t-29.5 -12q-29 -14 -45 -38t-31 -38q-16 -14 -16 -21.5t16 21.5q-29 -29 -36 -54.5t-21 -39.5q-16 -16 -21.5 -29.5t-17.5 -30.5v-18v18v39q0 16 8 51t8 64q16 14 21.5 37.5t19.5 38.5v59 q0 14 8 -2q4 -8 11 -19q-6 0 -11 -2q-8 -4 -8 -16h19v18v41v19q14 0 18 8q2 4 2 10q-6 4 -10 13q-10 14 -10 26q4 -4 10 -6q10 -6 10 6v21v39q-16 -16 -18 -29.5t-2 -30.5v60q16 14 18 18t2 21v57v39v20h-20h-19q-8 0 -14 -3t-12 -7q-8 -6 -15 -10q-12 -16 -12 -18.5 t12 -2.5q-6 0 -13 -3t-11 -7q-8 -4 -13 -8l-38 -39v18q0 16 9 33t9 47q0 14 10 27.5t10 30.5h21v18l16 18l23 21q14 16 18 26.5t19 10.5q8 8 14 15t12 13q6 8 13 13q12 12 34 16q10 2 23 2h59l9 -12q4 -4 7 -11.5t3 -13.5q14 0 18 -12q2 -6 2 -10v-76q0 -29 -10 -45t-10 -31 v-41q-12 0 -17 -10q-2 -4 -2 -8q-16 -29 -20 -58.5t-19 -58.5q-14 0 -18 -10q-2 -4 -2 -8l-18 -21v-18l-21 -21v21v-21q16 29 40 49.5t38 49.5q29 29 72 67.5t100 67.5q16 16 42 29.5t54 27.5l21 21h20v18h19q14 0 18 2t20 16h39q14 16 28.5 18.5t29.5 2.5 q16 -16 29.5 -20.5t27.5 -18.5zM170 432q6 0 8 2q4 4 -8 19v-21zM672 336q14 0 18 8q2 4 2 10z" />
<glyph unicode="o" horiz-adv-x="847" d="M414 805q0 16 10 20q4 2 10 2v-22h-20zM477 805q4 0 10 -2q10 -6 11 -19zM477 805h-20h20zM457 805h20h-20zM498 848q-8 8 -18.5 9t-20.5 -1q-12 -2 -25 -8q-16 16 -20 18t-21 2h21q33 0 53 -2t51 -18q31 0 51.5 -13.5t51.5 -29.5q16 -16 8 -16.5t-8 16.5h-41 q-14 0 -19 10q-2 6 -2 12q-16 16 -30.5 18.5t-30.5 2.5zM248 827q31 31 63 0v21l19 -21h-62h-20zM850 391q0 -31 -3 -82t-20 -84q-61 -92 -136 -141t-152 -66q-158 -61 -310 0q-33 16 -61.5 30.5t-42.5 31.5q-16 0 -21 10q-2 6 -2 12q-16 14 -20 16.5t-21 2.5q-16 16 -20 21 t-21 22q0 16 -10 31.5t-10 29.5v64v39q0 16 2 41.5t18 42.5q16 33 41 58.5t41 25.5q31 16 71 38.5t56 22.5l19 23q0 14 -2 16t-17 2q47 0 76 10t45 10q33 0 50.5 -5t33.5 -33l10 -15q12 -16 13 -28q0 -16 -13.5 -28.5t-29.5 -12.5q-16 -16 -45 -20.5t-58 -20.5 q-16 0 -31.5 -13.5t-31.5 -29.5q-29 0 -47.5 -22.5t-34.5 -39.5q-16 -16 -21 -31q-2 -8 -2 -12v-39v-22q16 0 21.5 -10.5t21.5 -10.5q16 -14 41 -29.5t41 -31.5q47 -33 106.5 -38t123.5 -5q119 33 186 125q47 33 65.5 79t18.5 109v62q0 12 -12 28q-6 8 -11 13v20v23h-22 q0 14 -2 26t-16 12h18v21v-21h-18v21v23h-21q-16 29 -45 58.5t-59 45.5q-6 0 -11 2q-10 4 -10 16v21v-21h21q0 -14 13 -18t28 -21v21q-14 0 -16.5 -2t-2.5 -19q0 16 -3 20.5t-19 18.5l-21 21q33 -16 59.5 -29.5t43.5 -30.5h22q0 -6 2 -12q4 -10 19 -10q0 -6 2 -12 q4 -10 16 -11q0 -14 14.5 -21t30.5 -40q16 -16 20.5 -30.5t18.5 -28.5v-23q8 -8 15 -18.5t13.5 -17.5t10.5 -10t4 5q-35 61 -62 123q27 -61 62 -123v-125zM768 412q14 14 18 30q2 8 2 13q-16 0 -18 -13.5t-2 -29.5z" />
<glyph unicode="p" horiz-adv-x="741" d="M-90 -768v-18v18zM-68 -725v-20v20zM-90 -745h22h-22zM-111 -623q0 8 3.5 7.5t5.5 -9t1 -18.5t-10 -19v-63h-20q0 -16 8 -29.5t-8 -13.5q0 -14 -2 -18.5t-19 -20.5l21 21v84q0 31 2 49t18 30zM-131 -870q0 -16 -2 -20.5t-19 -20.5h21q-14 -14 -19 -9q-2 2 -2 9q0 4 2 12 q5 15 19 29zM-152 -911v-21v21zM225 -6h-22h22zM264 -6h-20h20zM305 61h-18q-16 0 -21.5 -12t-21.5 -12v24q-14 -18 -19.5 -31.5t-21.5 -13.5q0 12 -10 19q-6 2 -11 2h21q16 0 28.5 3t12.5 21q16 0 25.5 3.5t17.5 6.5l16 6t25 3q0 16 -13 0q-6 -9 -10 -19zM682 643 q61 -92 61 -188q0 -47 -12 -94.5t-26 -94.5q-33 -59 -127 -125q-4 -6 -13 -10q-16 -8 -30 -8q0 -6 -3 -10q-4 -10 -18 -11h-20v-22h-43h22h-22l-19 -19q-33 0 -60.5 -14t-43.5 -31q-6 4 -15 11q-6 4 -13 7t-13 3h18h43v24q-16 0 -16 -12t16 -12h-43q16 18 32.5 30.5 t33.5 12.5v22h18h23q4 4 10 13q4 6 7 12t3 14l19 -18q0 14 3 19t19 22q4 -6 10 -8q10 -6 11 8q6 10 8 18q4 14 -8 2l-43 -43q0 16 13 29.5t30 13.5q16 16 28.5 20.5t12.5 20.5q18 16 23 31.5t20 32.5q16 29 21 47t22 35v63q0 29 -13.5 60.5t-29.5 64.5l-19 23h-24h-21h-41 q-63 -35 -125 0q-16 14 -31.5 7t-29.5 -7q-16 -16 -16.5 -19.5t16.5 -3.5q-33 0 -40 -10t-22 -10q0 -16 -3 -19.5t-19 -3.5v-123q-16 -55 -24.5 -106t-16.5 -101.5t-17.5 -102.5t-25.5 -108q0 -47 -11.5 -103t-27.5 -103q-6 -37 -9 -49.5t-4 -13.5t-2.5 5t-4.5 8t-9 -7 t-16 -40q0 -10 -4 -16l-8 -12q-6 -8 -11 -13v-43q-12 0 -16 -12q-2 -6 -2 -10v-19q0 -6 -2 -14q-4 -14 -19 -29v21h21h-21v-21v21v-21v-18v-23q-16 -16 -21 -43.5t-20 -58.5q-6 -6 -12 -14q-10 -14 -10 -31v22h22v23v41v-25q-6 -4 -12 -10q-10 -10 -10 -29v84v21v20 q16 0 20 11q2 6 2 12v61v41l19 21v18.5t-2 18.5t-6 10t-11 -6v-103v103q0 6 -2 -11.5t-4 -45t-5 -61.5t-5 -61.5t-4 -45t-2 -13.5v125q16 63 25.5 121.5t17.5 116t16 112t25 107.5v86q8 31 10 68.5t5 76.5t13.5 77t32.5 69q16 14 22.5 38.5t4.5 44t-10.5 27.5t-16.5 -8 q16 33 19.5 54.5t5.5 37t8 28.5t31 28l22 22q12 0 29 8q8 4 12 11q33 33 60.5 38t44.5 5q47 16 93 19t93 3h125q31 -16 49.5 -34.5t34.5 -49.5zM12 -350q16 16 19.5 21t3.5 22q-16 -16 -19.5 -21.5t-3.5 -21.5zM559 141q14 0 18.5 3t20.5 20q-16 0 -20.5 -11.5t-18.5 -11.5z " />
<glyph unicode="q" horiz-adv-x="954" d="M698 -80h21h-21zM680 -80l-18 -20v20h18zM623 -100h20h-20zM643 -100h19h-19zM680 -100h-18h18zM719 -100q16 16 26 18q6 2 13 2h-19q-16 -16 -30.5 -20t-28.5 -19h-18v-18h-19v-19v-59q0 4 -2 12q-4 12 -18 27l20 20v19v18h19h18l18 19h21zM891 -23q0 4 2 9q4 10 18 10 q-16 -14 -31.5 -18.5t-43.5 -18.5q14 14 27.5 16t27.5 2zM932 -4h-21h21zM969 729h-19q0 -4 -2 -12q-4 -14 -16 -27q-16 -29 -30.5 -60.5t-29.5 -74.5q-29 -29 -45 -64.5t-32 -50.5q-29 -72 -67 -132t-66 -120q-29 -57 -58 -123.5t-57 -123.5q-16 -31 -30.5 -62t-29.5 -76 q-14 -29 -27.5 -59.5t-27.5 -73.5q-16 -59 -28.5 -125.5t-12.5 -126.5v-73v-23h19q0 16 3 21.5t19 19.5q4 0 8 2q10 4 11 17q14 14 25 28.5t11 30.5q12 12 17 24q2 6 2 13q0 14 2 16t18 2v19q0 16 11 20q4 2 10 2q0 14 2 27.5t16 27.5v-18l-18 -18l18 18v18v-18v18v19l19 22 q0 41 9 85t9 85v21l21 20v-20v-21q-16 -14 -18.5 -27.5t-2.5 -27.5l21 19h-21q16 14 18.5 30.5t2.5 46.5v-137v-18v-19q0 -14 -2.5 -18t-18.5 -19q0 -16 8 -39.5t-8 -37.5v-19q-14 -16 -16 -30.5t-2 -28.5l-19 -19q0 -6 -3 -21.5t-4 -28.5t0 -18t7 9q14 31 25.5 58.5 t11.5 56.5q0 -29 -11 -56.5t-26 -58.5q-14 -29 -28.5 -55.5t-30.5 -40.5q0 -8 -3 -14.5t-7 -10.5l-9 -12v-19l-18 -22q0 -14 -11.5 -18.5t-25.5 -18.5h-22h-19h-18h-19h-18q0 12 -12 16q-6 2 -11 2q-14 14 -18 27.5t-19 13.5v37l-18 19v41q0 86 2 172t16 172q14 45 28.5 85 t31.5 70q0 14 2 25.5t16 11.5v39q14 29 27.5 45.5t28.5 30.5q0 16 3 30.5t19 28.5v19q-16 0 -21 -9.5t-20 -9.5h-18q-6 0 -16.5 -6t-15.5 -11t-4 -7t17 6q14 0 30.5 9t47.5 9q-31 0 -49 -11t-47 -28h-78q-31 0 -58.5 5.5t-56.5 33.5q-31 14 -56.5 41t-39.5 56 q-16 29 -28.5 57.5t-12.5 56.5q-14 72 9.5 130.5t68.5 101.5q14 16 18 29.5t19 27.5q31 14 59.5 41t59.5 55q29 14 56.5 26.5t57.5 12.5q14 0 38 9.5t40 9.5q14 0 20.5 2t-20.5 18q29 -16 53.5 -18t40.5 -2t29.5 -9.5t28.5 -9.5h-37q-16 0 -32.5 -2t-45.5 -18q-8 0 -17.5 -3 t-19.5 -8q-10 -4 -22 -8q-41 -29 -73 -48t-61 -48t-48 -60.5t-48 -72.5q-14 -16 -25.5 -30.5t-11.5 -29.5q-16 -14 -19 -30.5t-3 -46.5q0 -29 13 -67t28 -66q29 -14 60.5 -37t72.5 -23h41h18h19h-19h19l18 21h41h-22h22l19 20h18q29 41 48.5 85t47.5 87q29 43 60.5 84 t72.5 70q31 14 56.5 40.5t40.5 55.5q16 14 16 21.5t-16 -21.5q16 14 28.5 28.5t12.5 28.5q14 16 27.5 29.5t27.5 28.5q16 16 30.5 29.5t28.5 29.5h19zM276 92q14 -14 18.5 -16t18.5 -2q-14 14 -18.5 16t-18.5 2zM469 -600q0 -14 -9 -18.5t-9 -18.5l8 12q4 4 7 10.5t3 14.5z " />
<glyph unicode="r" horiz-adv-x="583" d="M156 784v-22v22v0zM197 784h-19q12 0 17 -12q2 -6 2 -10v-21q10 -4 18 -6q6 -2 8 -2t-6 8q0 16 -10 21.5t-10 21.5q0 12 -9.5 17.5t-9.5 21.5h-22h22q0 -16 2 -21t17 -18v0zM139 883v-21q0 4 -2 10q-6 10 -20 11h22zM682 600h-20v23l-23 -23h43h39h-21h-18v0zM762 582 h-23h23zM662 623h20q-16 0 -18 2t-2 18v-20h20v20q-16 0 -31.5 9.5t-29.5 9.5v20v-20h-21v20v-20l21 20h-21h-18v18h-23q-12 16 -37.5 28.5t-40.5 12.5h-104q-12 0 -39 -12t-39 -29q-31 0 -46 -11t-15 -27h-21v20v18q0 8 -3 15.5t-7 13.5q-6 8 -10 12v-18q-14 0 -16.5 2 t-2.5 16h19q-12 0 -17 11q-2 4 -2 10v-21v-79h19h-19v-19h19h-19v-20q14 0 14.5 -11.5t-14.5 -11.5v-18v-39q-16 -47 -30.5 -95.5t-30.5 -109.5q-16 -12 -29.5 -42t-30.5 -58q-16 -14 -30.5 -42t-28.5 -57q0 -29 -13.5 -50t-25.5 -50q-16 -16 -19 -53t-3 -66v-22 q16 16 21 19t17 3q0 12 13.5 25.5t27.5 13.5q-14 0 -14 2t14 16q4 4 13 11q6 4 13 7t15 3q16 16 20.5 18t18.5 2q16 16 19 27q2 6 2 12q16 16 30.5 41t30.5 41q14 14 16.5 18.5t2.5 20.5q31 31 47 61.5t25.5 62.5t15.5 66.5t14 73.5q0 29 -11.5 47.5t-11.5 30.5q16 0 21.5 3 t17.5 20h23q0 14 13.5 16t25.5 2q0 4 2 10q4 10 20 11h39q0 14 13.5 16t29.5 2h19l20 23l23 -23q12 0 17 11.5t22 11.5h-39l16 20v-20h23q14 0 18 7t21 -7h41v0zM178 561v-18v18z" />
<glyph unicode="s" horiz-adv-x="608" d="M567 676v18q0 -14 2 -16t19 -2h-21zM506 715q12 0 18 -10q2 -6 2 -11q-6 0 -10 2q-10 5 -10 19zM526 694h21h-21zM526 694h21h-21zM526 676q8 -8 15.5 -9t13.5 -1t9 -1t3 -10h39h-18q-31 0 -51.5 10.5t-49.5 10.5q-16 0 -40.5 2t-38.5 16h38q0 -6 3 -10q4 -8 16 -8h41h20 zM727 614q-16 0 -30.5 2t-28.5 19q6 0 13 -3t13 -7q8 -6 13 -11h20zM727 614l21 -18zM506 375q16 -31 38.5 -73t22.5 -89q0 -45 -2 -87t-18 -73l-21 -20l-20 -19l-19 -22q-31 -14 -48 -16.5t-31 -2.5q-16 -16 -31 -18t-31 -2t-30.5 2t-30.5 18q-45 0 -87 26t-73 54 q-16 31 -41 47.5t-39 32.5q-16 16 -16 23.5t16 -23.5q-61 66 -61 100l-19 21v20q0 4 -2 9q-6 10 -18 10v20l39 -39q16 -16 33.5 -30.5t45.5 -30.5q31 -14 48.5 -28.5t33.5 -30.5q45 -31 99.5 -43.5t101.5 2.5h21h18l23 20v21v20q0 16 -11.5 40t-11.5 40q-14 29 -38.5 46 t-41.5 34q-29 16 -61.5 30.5t-77.5 28.5q-16 16 -30.5 28.5t-31.5 12.5l-18 21q-6 0 -12 2q-10 4 -11 16l-18 23q-16 29 -18 46t-2 33q16 29 20 46.5t18 33.5q16 16 31 29.5t31 30.5h41v20q14 -16 19 -8t20 8q16 16 20 18.5t21 2.5h-21h21v-21v21h20h19h82 q14 -16 29.5 -18.5t29.5 -2.5l12 -12q6 -6 12.5 -13.5t14.5 -15.5l-19 21h-20q0 16 -12.5 18t-28.5 2v-20q16 0 16 10t-16 10q16 -16 30.5 -18t30.5 -2h-100h-20h-21h-20q-14 0 -18.5 -10.5t-20.5 -10.5t-20.5 -9t-20.5 -9h-19q0 -16 -2 -20.5t-18 -20.5q0 -6 2 -8 q4 -6 18 8q14 16 28.5 28.5t31.5 12.5q-16 -16 -30.5 -20.5t-29.5 -20.5q0 -14 -10 -19q-6 -2 -10 -2l-21 -18v-21h21v-20h20q14 0 28.5 -10t31.5 -10q29 -16 59.5 -31t61.5 -31q14 0 29.5 -11t29.5 -28q29 -14 47.5 -29.5t32.5 -29.5zM63 635q16 16 28.5 20t12.5 21 q-14 0 -27.5 -12.5t-13.5 -28.5z" />
<glyph unicode="t" horiz-adv-x="493" d="M373 160v20v-20zM328 141h24h-24zM352 141v19v-19zM352 160v-19v19zM373 123q0 12 8 24l8 13q0 16 10.5 21t10.5 22q0 -16 -2 -19.5t-19 -3.5q0 -16 -10 -39.5t-27 -40.5q-18 -16 -25.5 -30.5t-35.5 -28.5v-23v23l16 18q0 12 10 17q4 2 11 2q18 16 21 22t3 23h21z M471 283l-39 -39q16 16 27.5 30.5t11.5 30.5v-22zM696 793h-20h20zM653 793h23h-23zM653 772h43h-43q-16 -16 -20 -19t-19 -3l19 22h20zM756 772q-16 0 -21.5 2t-17.5 19q12 0 12 -10.5t-12 -10.5v21q12 0 14 -2.5t2 -18.5h23zM633 772q-14 0 -18.5 -3t-20.5 -19h-21h-20 l-21 -19v19q-16 0 -26 -9.5t6 -9.5h41h-41q-8 -8 -12 -9t-8.5 1t-8.5 5t-12 3q0 -16 -11 -28.5t-28 -12.5q-45 0 -92 -10t-92 -10h-21h-22v-41q-29 -109 -44.5 -201t-15.5 -184q0 -16 -10 -31.5t-10 -32.5v-39v-18v-23l20 -22h-20h20v-19v19v-19h21v-18h39q6 0 14 2 q16 4 29 16q4 0 12 2q16 4 31 17q4 0 8 2q8 4 8 20v-22h-16q-16 0 -21.5 -11.5t-21.5 -25.5h20v18q16 0 21.5 9.5t17.5 9.5q-12 0 -17 -11.5t-22 -25.5q-4 -6 -12 -14l-29 -29h-22h-17h-22l-21 20h-20q-14 0 -18.5 13.5t-20.5 27.5q0 14 -11.5 30.5t-11.5 33.5v18 q0 14 -10 35t-10 4q0 -29 2 -48t18 -54q-16 16 -18 45t-2 57v84q-12 31 -22.5 60.5t6.5 62.5q0 74 2 137.5t14 122.5v23q-12 14 -17.5 7t-21.5 -7h-20v20q4 0 10 2q10 4 10 19q4 0 10 2q12 4 13 18q4 4 10 8q4 4 11 7.5t15 3.5q0 33 13.5 63.5t29.5 58.5q14 16 18.5 41 t20.5 41q0 16 10.5 34t10.5 48q16 16 27.5 29.5t11.5 30.5q16 31 21 49t22 33q16 16 31.5 28.5t27.5 12.5q16 16 32.5 40.5t33.5 40.5q12 16 12 22.5t-12 -22.5q12 29 27.5 47.5t31.5 34.5t20.5 30.5t18.5 29.5v-39q-6 -16 -14 -41t-15.5 -53.5t-15.5 -58t-16 -52.5 q-29 -47 -46.5 -92t-35.5 -92q-16 -45 -29.5 -89t-30.5 -91v-41h60q35 0 76.5 8t87.5 -8h20h20h21v-21v21h20h60v-21q-14 16 -16.5 16t-2.5 -16h19zM43 690v-20v20v0zM125 221q6 4 8 10q4 12 -8 13v-23z" />
<glyph unicode="u" horiz-adv-x="800" d="M780 836q6 0 8 -2q6 -6 -8 -21v23zM758 770l22 21zM803 770v43q18 16 21 22.5t3 22.5v-22q-18 -16 -21 -44t-3 -47q0 -16 -11.5 -35.5t-11.5 -52.5v43v23q16 0 19.5 14.5t3.5 32.5zM827 901q0 16 2 30.5t19 14.5v23q0 -10 -3 -17.5t-7 -13.5q-6 -8 -11 -14v-23zM803 35 h-23h23zM758 35h22h-22zM780 -10l23 22l-23 -22q-16 0 -21 -11.5t-22 -11.5l21 23h22zM827 35h21h-21zM758 12q-16 -16 -21.5 -22t-21.5 -23h-21q0 16 -3 8t-21 -8h-23h-45q18 -16 34.5 -19t33.5 -3h-68q0 16 -10 22t-10 23q-16 0 -44 14t-44 31q0 16 -11.5 31.5t-11.5 31.5 q-16 -33 -48 -51t-67 -35q-16 -16 -33.5 -19t-52.5 -3h-114q-25 8 -48.5 24.5t-42 37t-29.5 45t-11 48.5q-16 35 -19.5 53.5t-3.5 34.5v46q16 49 22.5 97t22.5 81q16 51 35.5 83.5t52.5 49.5q68 33 68 67q16 16 16 27.5t-16 -4.5q35 16 53 32.5t35 32.5q0 18 14 23.5 t31 22.5q0 -6 -2 -11q-4 -10 -19 -10q0 -35 -12 -57.5t-12 -55.5q-16 -16 -21.5 -43.5t-21.5 -44.5q-16 -51 -30.5 -90t-14.5 -88q-16 -18 -19.5 -46t-3.5 -46v-41v-25q0 -16 3 -32.5t20 -32.5h88q35 16 67.5 46t65.5 65q70 66 135 135l43 43q0 16 3 18t22 2v25h20v22l23 21 l-23 -21l23 21v24h24v21q16 16 29.5 47t13.5 63l21 23v-23q-16 -16 -18.5 -21t-2.5 -22q14 14 19 31q2 8 2 12v-88l-21 -22q0 -6 -2 -10q-4 -10 -20 -11v-67q-6 6 -10 8q-10 4 -11 -8v-45q-6 0 -12 -2q-12 -4 -12 -19v-22h24q0 16 2 31.5t19 31.5q0 -16 -10.5 -31.5 t-10.5 -31.5v-23v-47v-45q0 -16 -3 -31.5t-21 -34.5q0 -16 -11.5 -32.5t-11.5 -32.5q-31 -33 0 -70v-43q4 0 10 -2q12 -4 13 -18h24v-23h21h43h-21v-22v22q0 -16 10.5 -16t10.5 16zM582 414h-23h23zM647 35v20v-20z" />
<glyph unicode="v" horiz-adv-x="581" d="M776 1051h-22h22zM729 1026h25h-25zM729 1026v-22v22v0zM729 1026h25h-25zM754 1004v-25q-18 0 -23 -12q-4 -6 -2 -13q0 -16 -12 -20q-6 -2 -10 -2q0 -10 -3.5 -21.5t-6.5 -20.5t-2 -12.5t12 7.5q16 35 22 55.5t25 38.5q0 18 11 35.5t11 36.5l25 22l-25 -22 q0 -18 -3 -24.5t-19 -22.5zM850 1169q-2 -6 -4 -14q-4 -6 -7 -14t-14 -19v25q18 0 24.5 14.5t22.5 30.5q0 -16 -12 -21q-6 -2 -10 -2zM707 932q-18 0 -24.5 -15.5t-25.5 -31.5q0 16 12.5 22t12.5 25h25v22l-25 -22q-18 -35 -35.5 -59.5t-36.5 -59.5l-22 -25q0 -18 -15 -22 q-6 -4 -12 -2h27h-27l-22 -25q0 -16 -3.5 -19t-21.5 -3v-25q0 -6 -2 -12q-4 -10 -20 -10q0 -18 -12.5 -24.5t-12.5 -24.5q-35 -53 -67.5 -95.5t-53.5 -95.5q-16 -35 -30.5 -56.5t-14.5 -37.5q-18 -20 -21.5 -37.5t-3.5 -34.5q-18 0 -22 -12q-4 -6 -2 -12q-18 -18 -24.5 -37 t-22.5 -35h-25q0 4 -2 10q-4 12 -20 12v25v25q-2 12 -4 28q-4 14 -7.5 31.5t-13.5 36.5q0 53 -12 106.5t-12 108.5q0 27 -7.5 56.5t-16.5 61t-16.5 62.5t-7.5 57l-24 25v23v-23v-74q0 -16 -3 -40.5t-22 -77.5q18 37 21.5 27.5t3.5 -27.5q0 -16 -3 -46t-22 -51q0 -35 -8 -83 t8 -83v-94q0 -18 12.5 -36.5t12.5 -37.5v-69v-25l24 -24v-23q0 -18 13 -22q6 -4 12 -2q0 -18 10 -23q6 -4 13 -2q18 -18 36.5 -32.5t34.5 -14.5q35 0 44 11t28 11q18 18 36.5 40t35.5 57q16 18 19 24t3 25l27 22v25l22 22v25l25 25q0 18 3 35.5t19 33.5q-2 8 2 17 q2 12 23 32q0 18 3 36t22 36q0 18 11 51t11 70q18 16 32.5 34.5t14.5 35.5q20 18 26.5 47.5t22.5 48.5q-16 -18 -22 -48t-27 -48v49q6 0 12 2q14 4 15 20q0 6 2 15q4 16 20 32q0 18 3 33.5t22 15.5q0 18 3 21.5t19 3.5v23q18 37 24.5 57t25.5 39v0zM467 598q0 16 3 19.5 t22 3.5z" />
<glyph unicode="w" horiz-adv-x="1165" d="M1184 821l20 21zM1165 741v19v-19zM1165 760q0 4 2 10q4 10 17 10zM1204 741q0 29 2 56.5t19 44.5v61v-41q0 -45 -10.5 -78.5t-10.5 -62.5q-16 -47 -20 -82t-19 -82q-8 -16 -9 -11t1 18.5t5 29.5t3 24q0 16 9.5 20.5t9.5 20.5t2 32.5t18 49.5zM1266 1108 q0 -33 -10.5 -52.5t-10.5 -51.5q0 16 2 34.5t19 46.5v23zM1266 1108v18v-18zM1165 639q-16 -47 -29.5 -82t-13.5 -82q-12 0 -16 -10q-2 -6 -2 -10v-19q-16 -16 -21.5 -31.5t-21.5 -29.5q0 -4 -2 -13q-4 -14 -17 -30v-39q-6 0 -10 -2q-10 -4 -10 -19q-6 -4 -10 -12 q-10 -14 -11 -29q0 -6 -2 -10q-4 -10 -18 -10q0 -16 -12.5 -20.5t-28.5 -20.5q-6 -4 -10 -12q-10 -14 -10 -27q0 -8 -3.5 -15t-5.5 -11.5t-1 -4.5t10 9q47 47 66.5 79.5t35.5 63.5q-16 -31 -35.5 -72t-66.5 -71q-16 -16 -31 -27.5t-29 -11.5q0 -16 -3 -18.5t-19 -2.5 l-21 -22q-14 0 -29.5 -9.5t-31.5 -9.5q-14 0 -28.5 -8t-31.5 8q-31 0 -61.5 5t-61.5 36q-16 16 -28.5 29.5t-12.5 30.5q-16 16 -18 21t-2 20v20h-18v-20h-23v-19q-29 -16 -60.5 -40.5t-60.5 -41.5v-22h-20v-19q-16 0 -30.5 -12t-31.5 -29q-4 -6 -12 -10q-14 -10 -29 -10 q-14 -14 -26 -19q-8 -2 -13 -2q-33 0 -60.5 2t-43.5 19q-12 0 -16 10q-2 4 -2 10q-16 0 -18.5 2t-2.5 19q-16 0 -20.5 12t-20.5 27q0 8 -3 19t-5 26.5t-1 35t9 42.5v20v20l21 21v20v21q0 31 12 58.5t29 43.5q14 45 27 90t13 93q16 31 16.5 39t-16.5 -39q16 61 30 107t30 77 q16 29 30.5 49.5t30.5 50.5v21v-21q0 -14 -2 -21t-18 -40q0 -29 -9.5 -82t-9.5 -100v-185q-16 -29 -19 -69.5t-3 -71.5v-41v-21q-6 0 -10 -2q-10 -4 -11 -18q0 -14 11 -18q4 -2 10 -2h41l20 20q0 16 12.5 20.5t28.5 20.5t30.5 33.5t31.5 48.5h20l21 20l61 62q14 14 40 42.5 t40 57.5q47 47 92 105.5t92 117.5q16 16 20.5 21.5t20.5 21.5q4 4 8 13q4 4 7.5 11t3.5 15v-20v-39q6 4 14 12q6 6 13.5 12.5t15.5 14.5q-47 -106 -69.5 -195.5t-53.5 -150.5v-39l-21 -43v-19v-20v-21v-20v-41v-21l21 -20q0 -16 12 -27.5t29 -11.5q16 0 30.5 2t30.5 17h21 l18 20q16 16 29.5 20.5t13.5 20.5q12 0 27 10q8 4 12 10q0 14 10 19q4 2 11 2l20 20q0 16 2 18.5t19 2.5q0 16 12 30.5t28 30.5l-20 -22v-19v19h20v22v-22q-6 0 -8 2q-4 4 8 20q0 4 3 11q4 10 18 10v18v21q29 47 57.5 95t42.5 109l13 13l13 13t17 15q0 -6 -2 -10 q-4 -10 -20 -10v-21q-16 -16 -20.5 -40.5t-18.5 -40.5h18q0 16 -2 18t-16 2q14 16 26.5 33.5t12.5 48.5h22zM778 131q16 0 27.5 2t11.5 17h-18q-6 0 -11 -3q-10 -4 -10 -16z" />
<glyph unicode="x" horiz-adv-x="741" d="M735 -236v-22v22zM735 -236h-22h22zM713 -236v23v-23zM688 -236q0 -16 12.5 -22t12.5 -23h22h-22q0 16 -14.5 22.5t-30.5 22.5q0 16 -15.5 22.5t-31.5 25.5q-14 12 2 8q8 -2 20 -8q8 0 10 -4.5t2 -8.5t1 -8t12 -4q0 -6 2 -12q4 -11 18 -11zM782 -350q0 18 -3 21t-21 3h24 q0 -6 2 -12q4 -12 21 -12h-23zM805 -373v23v-23zM668 -188q-18 16 -36 22t-34 23v24h-25q0 16 -14 18.5t-31 2.5l23 24q-16 0 -22.5 3t-24.5 22q4 4 8 10q2 4 2 7t-10 3q-10 4 -19 9q-6 2 -9 2t5 -11q0 -16 14.5 -21t32.5 -24q-18 0 -34.5 14.5t-32.5 30.5q0 18 -3 33.5 t-24 15.5q-16 14 -40.5 31t-24.5 37q-18 33 -47 55.5t-48 57.5q-16 -16 -22 -30.5t-23 -14.5q-16 -18 -36.5 -31.5t-55.5 -13.5q-14 0 -31 -13q-8 -6 -14 -10q-16 -20 -16 -23.5t16 -3.5q-14 0 -31 -12q-8 -6 -14 -10q-18 -14 -24.5 -16.5t-22.5 -2.5v-24v24v19 q8 8 17.5 24.5t17.5 34t17 32.5t18 26q16 18 33.5 46.5t33.5 47.5q16 16 33.5 32.5t36.5 32.5q0 18 -12.5 47t-12.5 48q-16 16 -19 33.5t-3 33.5q0 35 -14.5 57.5t-30.5 57.5t-16.5 66.5t16.5 50.5q0 35 -11.5 54t-11.5 36q0 18 -11 34.5t-11 32.5v72h-23h23q0 -6 2 -12 q4 -10 20 -11q8 -10 23.5 -26.5t33 -34.5t33 -38.5t25.5 -37.5q0 -18 11 -35.5t11 -33.5q16 -18 22.5 -36t22.5 -34q18 -35 36 -68.5t34 -68.5q0 -18 12.5 -24.5t12.5 -22.5q33 35 70.5 68.5t88.5 68.5l23 22h22h-22h22v25l25 23v-23h23q-16 0 -19.5 8t-3.5 -8v23h23 q16 16 31.5 34.5t15.5 34.5h20q-14 0 -18 -12q-2 -6 -2 -10q4 0 10 2q10 4 10 20q0 -10 -3 -18t-7 -15q-6 -8 -10 -14v-22q-18 0 -21.5 -3.5t-3.5 -19.5v-25h-22v-22h-23v-45q16 16 20 31q2 8 3 14q0 -6 -3 -14q-4 -14 -20 -31l-25 -23q-16 -16 -22 -34.5t-23 -34.5 q-18 -35 -48.5 -70t-67.5 -70q37 -68 70.5 -125t68.5 -129q0 -16 3 -21t19 -20v-24v-25h25v-20v-25v25l23 -25v-24q16 -16 22 -34t25 -34v-22q0 16 -3 22t-22 23v-23v23q0 -14 12 -31q7 -8 13 -14zM504 569q14 0 20 11l4 12zM528 39q16 16 16.5 19t-16.5 3v-22zM735 778h-22 l22 21v-21zM688 754l25 24l-4 -12q-4 -4 -7.5 -8t-13.5 -4zM735 754v24q16 0 19.5 2t3.5 19q0 -6 -2 -11q-4 -10 -21 -10q0 -6 -2 -14q-4 -16 -20 -33q-2 -6 -4 -14q-4 -6 -7.5 -14.5t-13.5 -18.5v25q0 16 12 20q6 2 13 2v23h22zM782 823q0 4 2 11q4 12 21 12z" />
<glyph unicode="y" horiz-adv-x="825" d="M168 -672v-22v22zM211 -633q-16 0 -19.5 -2t-3.5 -18q0 16 3.5 18t19.5 2zM168 -653h20h-20zM211 -555q0 -14 -12 -18q-6 -2 -11 -2q0 -14 -2 -27.5t-18 -30.5q-12 -12 -16 -26q-2 -8 -2 -13q0 -16 -10.5 -21t-10.5 -22q0 16 2 18.5t19 2.5q0 31 9 48t9 34q16 29 21.5 45 t21.5 32v-20zM109 -774q-14 0 -18.5 -11.5t-20.5 -27.5q0 14 10 18q4 2 10 2q0 4 2 13q4 14 17 26v-20zM694 772q8 -23 14.5 -54.5t10.5 -63t3 -60.5t-7 -43v-119q-16 -31 -18.5 -50.5t-2.5 -49.5q-16 -57 -30.5 -104.5t-30.5 -94.5q-16 -29 -27.5 -58.5t-11.5 -60.5 q-16 0 -20.5 -12t-20.5 -27q0 -14 -2 -29.5t-16 -31.5q-23 -43 -33 -61.5t-19.5 -32t-20.5 -32.5t-34 -64q-16 -16 -20.5 -27.5t-20.5 -11.5q0 -14 -9 -19.5t-9 -21.5q-14 0 -19 -11q-2 -6 -2 -10v-18l-20 -21v21v-21h-21h21l-21 -20v-19q-14 -31 -37.5 -60.5t-40.5 -59.5 q-6 0 -10 -3q-8 -4 -8 -16v19h18q0 14 11 28q4 8 10 12q-16 -16 -20.5 -20t-18.5 -20q14 16 18 40.5t21 38.5v21v20l20 19q6 0 7.5 7t0 16.5t-4.5 19.5t-3 16q4 -4 9 -6q10 -6 10 6q0 16 2 21.5t16 21.5q-8 6 -5 10.5t9 6.5q8 2 17 2v16t-2 17.5t-6.5 9.5t-12.5 -4 q-14 -29 -16 -46.5t-2 -33.5q0 16 2 39.5t16 40.5q0 14 12.5 31.5t28.5 45.5v62q0 16 10.5 30.5t10.5 28.5q14 16 16 29q2 8 2 12q8 6 1 -12.5t-18.5 -42t-22.5 -42t-11 -9.5q16 14 18 28.5t2 28.5q14 16 16.5 31.5t2.5 29.5q16 0 18 11.5t2 27.5q-8 -8 -9 -8t1 3t5 10.5 t3 15.5h21h-21h-20h41q-16 0 -30.5 -10.5t-29.5 -10.5q0 -14 -10 -18q-6 -2 -10 -2q0 16 -2 18t-19 2l-18 -20q-8 0 -9 3t-1 7t-1 7t-10 3q-6 -6 -10 -8q-10 -4 -10 8h-20h-19q14 -16 28.5 -18t30.5 -2q-16 0 -30.5 2t-28.5 18q-14 0 -28.5 12.5t-30.5 28.5 q-14 0 -29.5 12.5t-32.5 26.5q-45 76 -56 157t17 140v62q16 16 18.5 39.5t2.5 39.5q0 29 11 46.5t28 31.5q16 16 21 28.5t20 12.5q0 14 -2 16.5t-17 2.5q14 16 18.5 29.5t20.5 13.5v37q16 0 18.5 -2.5t2.5 -18.5v-119q0 -29 -10.5 -58.5t-10.5 -59.5v-101q-16 -29 -18 -58.5 t-2 -60.5q0 -45 17.5 -90t60.5 -88q0 -14 2 -16t18 -2v-21h20q12 0 19 -10q2 -6 2 -10h18h21h59h21v41q14 29 29.5 48t31.5 50q14 16 18.5 41t18.5 41q0 12 10.5 26.5t10.5 30.5q0 29 9 46.5t9 31.5q0 16 10 41t10 41q16 14 27.5 28.5t11.5 30.5q16 14 21.5 18.5t21.5 20.5 v39v21q0 16 2 29.5t17 29.5v39q0 16 2 31.5t18 30.5v20v-20v-19zM217 94q0 -14 2 -16t17 -2q0 4 -3 8q-6 10 -16 10zM387 -276q16 0 28.5 2t12.5 16q-16 0 -20.5 -9t-20.5 -9z" />
<glyph unicode="z" horiz-adv-x="1028" d="M877 725h-21h21zM877 725h20h-20zM-2 666q-14 0 -28.5 2t-30.5 16h-19h-20h20h19q8 8 22 15.5t28.5 13.5t28 9t21.5 3h59h41h99h122q59 -14 105.5 -9t93.5 -9h37h22h21h18h-18h18h21h59v18q16 16 30.5 19.5t31.5 3.5q0 12 8 16q4 2 10 2q16 0 21 10q2 4 2 10v-20 q-6 0 -13 -2q-10 -4 -10 -16l-18 -23h18h-18v-18h18h-41q0 -16 -9 -30.5t-9 -31.5q-31 -16 -57.5 -33.5t-43.5 -46.5q-14 -14 -39.5 -31.5t-39.5 -48.5q-29 -16 -60 -29.5t-59 -29.5q-47 -45 -80 -78t-80 -61q-14 -16 -19.5 -19.5t-21.5 -3.5l-20 -16v-21h-21v-20v20h-18h18 l-18 -20q-14 -14 -28.5 -29.5t-31.5 -32.5h-18h18q0 4 2 11q4 12 19 12h-21q0 -6 -2 -12q-4 -10 -16 -11q14 16 16 32t2 30h21q0 4 2 10q4 10 18 10v21h19v16q0 16 9 11t9 12v18q-14 -14 -18 -19t-19 -22q14 16 18.5 21.5t18.5 19.5q0 16 12.5 21.5t28.5 21.5q0 14 3 29.5 t20 28.5q31 23 54 48t47 49.5t51.5 46t64.5 38.5q0 12 13 14t30 2q0 16 9 20.5t9 20.5q-14 -16 -29.5 -28.5t-31.5 -12.5q-37 0 -68 -2t-58.5 -4t-55 -1t-58.5 7h-59q-6 8 -14.5 9t-17.5 1t-20.5 1t-25.5 10q-16 0 -30.5 2t-31.5 18q-16 16 -30.5 18.5t-30.5 2.5zM281 287 h18q0 -16 -9 -16t-9 16zM559 707h19h-19zM1106 104h-21h21zM1085 104h-20h20zM1085 104h-20h20zM1065 86q12 0 29 8q8 4 12 10h20h-20q-16 -14 -20.5 -19t-20.5 -22q-16 0 -15 -8t-14 -8q-14 0 0 10q8 4 19 11h20q-4 -2 -6 0q-4 4 -4 18zM1163 123h-18q14 0 18 9t21 9z M1184 141l86 11zM1055 68q-14 0 -29.5 -10.5t-28.5 -10.5v-18h-20q-16 0 -20.5 -2t-20.5 -19v21q-16 -16 -20.5 -18.5t-18.5 -2.5h-20q-6 -6 -9 -10q-4 -10 9 -10q16 0 20 2t18 18q0 -16 -14 -18t-45 -2q0 -14 -11 -9t-28 -10q-14 0 -38.5 -10t-41.5 -10h-178q-31 0 -73 2 t-89 18q-18 14 -24 17q-6 2 -13 2q-31 16 -58.5 20t-43.5 21q-31 0 -47 2t-31 16q-14 14 -37 19q-10 2 -22 2q-16 0 -21 -11q-2 -6 -2 -10q-12 16 -27.5 8t-31.5 -8l-21 -18h-20q4 0 10 2q10 4 10 16q0 16 12.5 29.5t28.5 13.5t19.5 2t3.5 17q0 6 2 12q4 12 14 24q4 6 11 15 q12 16 12 28q10 0 6 -10q-2 -6 -6 -10q0 -16 -3 -19.5t-20 -3.5v-18h-16v-18q12 0 27.5 9t29.5 9h160q31 -14 62.5 -18.5t76.5 -18.5q31 0 60.5 -11t60.5 -11q74 -16 136.5 -18.5t121.5 -2.5h39h21h20h18q4 0 11 2q10 4 10 19v-21h-21h21v21h20q31 0 47.5 3t32.5 19h19v-22 v22v-22q-14 16 -19.5 8t-21.5 -8h41zM840 47h-23h23z" />
<glyph unicode="&#x2000;" horiz-adv-x="899" />
<glyph unicode="&#x2001;" horiz-adv-x="1798" />
<glyph unicode="&#x2002;" horiz-adv-x="899" />
<glyph unicode="&#x2003;" horiz-adv-x="1798" />
<glyph unicode="&#x2004;" horiz-adv-x="599" />
<glyph unicode="&#x2005;" horiz-adv-x="449" />
<glyph unicode="&#x2006;" horiz-adv-x="299" />
<glyph unicode="&#x2007;" horiz-adv-x="299" />
<glyph unicode="&#x2008;" horiz-adv-x="224" />
<glyph unicode="&#x2009;" horiz-adv-x="359" />
<glyph unicode="&#x200a;" horiz-adv-x="99" />
<glyph unicode="&#x202f;" horiz-adv-x="359" />
<glyph unicode="&#x205f;" horiz-adv-x="449" />
<glyph unicode="&#x25fc;" horiz-adv-x="942" d="M0 942h942v-942h-942v942z" />
</font>
</defs>
</svg>
